<?xml version="1.0" standalone="no"?>
<!DOCTYPE svg PUBLIC "-//W3C//DTD SVG 20010904//EN"
 "http://www.w3.org/TR/2001/REC-SVG-20010904/DTD/svg10.dtd">
<svg version="1.0" xmlns="http://www.w3.org/2000/svg"
 width="630.000000pt" height="630.000000pt" viewBox="0 0 630.000000 630.000000"
 preserveAspectRatio="xMidYMid meet">
<metadata>
Created by potrace 1.11, written by Peter Selinger 2001-2013
</metadata>
<g transform="translate(0.000000,630.000000) scale(0.100000,-0.100000)"
fill="#000000" stroke="none">
<path d="M511 3734 c8 -10 6 -12 -10 -9 -12 2 -25 -3 -31 -13 -5 -9 -10 -13
-10 -8 0 5 -8 2 -17 -5 -15 -12 -16 -12 -8 1 8 13 6 13 -8 1 -9 -7 -14 -18
-10 -25 4 -6 -2 -4 -12 4 -17 14 -18 13 -12 -3 4 -10 3 -16 -2 -12 -5 3 -16
-1 -24 -9 -8 -8 -17 -12 -21 -9 -3 3 -12 1 -19 -5 -8 -7 -18 -8 -22 -4 -5 4
-5 2 -1 -5 5 -10 -23 -34 -44 -37 -3 -1 -4 -4 -3 -8 2 -4 -5 -4 -14 -1 -11 4
-14 3 -9 -5 5 -8 2 -10 -8 -6 -9 3 -16 1 -16 -6 0 -6 -4 -8 -10 -5 -6 3 -10 1
-10 -5 0 -6 -5 -8 -10 -5 -5 3 -10 1 -10 -5 0 -7 -7 -10 -15 -7 -8 4 -22 -4
-34 -18 -10 -14 -24 -25 -31 -25 -6 0 -8 -5 -4 -12 5 -8 2 -9 -10 -5 -9 4 -15
3 -11 -2 7 -12 -5 -41 -17 -41 -5 0 -6 5 -2 12 4 6 3 8 -4 4 -6 -3 -9 -17 -6
-31 3 -18 1 -23 -10 -19 -13 5 -15 -31 -16 -254 0 -204 2 -263 13 -274 7 -7
22 -28 32 -45 11 -18 23 -33 27 -33 4 0 8 -7 8 -16 0 -8 4 -12 10 -9 5 3 10 1
10 -6 0 -7 3 -9 7 -6 3 4 12 -1 19 -11 7 -9 17 -18 23 -18 6 -1 18 -2 27 -3 8
0 12 -6 8 -12 -4 -8 0 -9 15 -4 17 5 20 3 14 -11 -4 -12 -3 -15 6 -10 8 5 18
0 27 -12 9 -13 21 -18 34 -15 11 3 20 0 20 -6 0 -6 7 -11 16 -11 8 0 13 -4 10
-9 -4 -5 2 -8 11 -7 10 2 23 -3 28 -11 6 -8 20 -15 32 -16 12 0 19 -5 17 -9
-3 -4 2 -8 10 -8 9 0 16 -6 16 -12 0 -10 2 -10 9 0 6 10 10 9 14 -8 5 -20 11
-21 116 -19 87 1 111 4 115 16 4 9 14 13 25 10 15 -3 18 -1 14 11 -5 10 -2 13
6 8 7 -5 21 0 32 10 10 9 19 13 19 8 0 -5 5 -2 10 6 5 8 15 15 22 15 7 1 12 7
10 15 -3 11 0 11 14 -1 16 -12 17 -12 12 2 -4 11 0 15 16 15 14 -1 20 4 18 14
-2 8 0 12 4 8 4 -4 14 -2 22 5 13 10 14 9 7 -3 -8 -13 -6 -13 8 -1 9 7 14 18
10 24 -3 5 -2 7 4 4 10 -6 93 28 93 39 0 3 -5 2 -12 -2 -6 -4 -8 -3 -5 4 4 5
15 8 25 5 13 -3 28 7 47 29 16 18 32 32 37 30 5 -1 7 2 3 8 -3 6 -12 8 -18 4
-7 -3 -4 1 6 9 9 8 17 20 17 26 0 7 5 9 12 5 6 -4 8 -3 4 4 -3 6 -2 13 4 17 7
4 6 13 -1 27 -9 16 -8 19 2 13 9 -6 11 -3 6 8 -3 9 -2 19 3 22 6 4 10 12 10
18 0 7 -4 6 -11 -3 -9 -12 -10 -11 -6 6 2 12 0 28 -4 37 -6 10 -5 18 2 23 7 4
9 3 5 -4 -3 -6 -3 -13 2 -16 4 -2 8 6 8 19 0 13 -4 21 -8 19 -9 -6 -6 26 5 43
4 6 2 15 -4 19 -8 5 -9 3 -4 -6 5 -8 4 -11 -3 -6 -6 4 -9 13 -6 21 4 8 11 12
18 8 8 -5 8 -3 1 8 -9 12 -12 53 -5 69 6 16 5 48 -2 44 -9 -6 -5 32 5 42 13
13 7 27 -6 16 -10 -8 -13 -6 -13 8 0 10 4 16 8 14 13 -8 9 11 -4 25 -10 11
-10 13 0 7 6 -4 12 -2 12 3 0 6 -6 11 -13 11 -7 0 -13 9 -14 21 -1 12 -10 28
-20 36 -10 8 -12 12 -3 8 8 -4 3 4 -12 17 -16 14 -28 32 -28 39 0 11 -2 11
-10 -1 -8 -12 -10 -12 -10 5 0 17 -2 17 -10 5 -8 -12 -10 -10 -10 10 0 20 -2
22 -10 10 -9 -14 -14 -7 -11 13 1 5 -3 6 -9 2 -5 -3 -24 4 -42 16 -17 13 -28
17 -23 9 5 -8 -4 -5 -19 8 -16 12 -33 19 -39 15 -6 -4 -8 0 -4 11 4 9 3 15 -1
12 -11 -6 -72 21 -72 33 0 6 -6 8 -14 5 -7 -3 -21 2 -30 11 -9 9 -23 14 -31
11 -9 -3 -12 0 -8 10 3 7 0 14 -7 14 -6 0 -8 5 -4 13 5 8 2 8 -9 -2 -13 -10
-17 -10 -17 -1 0 7 -7 10 -15 6 -10 -3 -15 1 -15 12 0 15 -2 15 -10 2 -7 -11
-10 -11 -10 -2 0 10 -19 13 -75 11 -61 -2 -73 -4 -64 -15z m113 -194 c-7 12
-3 11 19 -2 14 -10 33 -18 42 -18 9 0 14 -4 11 -8 -3 -5 17 -18 44 -30 28 -12
50 -27 50 -34 0 -6 3 -8 7 -5 3 4 12 -1 20 -11 8 -9 12 -11 8 -4 -4 7 10 4 34
-9 23 -11 39 -24 36 -29 -2 -4 5 -7 18 -6 14 1 21 -4 19 -13 -2 -8 3 -11 13
-8 8 4 15 2 15 -4 0 -6 5 -7 12 -3 8 5 9 0 6 -14 -4 -12 -1 -22 4 -22 6 0 5
-6 -2 -15 -9 -10 -9 -15 -1 -15 6 0 11 -5 11 -11 0 -5 -4 -8 -8 -5 -5 3 -9 -1
-9 -9 0 -8 4 -12 8 -10 9 6 6 -16 -4 -32 -5 -8 -4 -13 2 -13 6 0 11 -5 11 -11
0 -5 -4 -8 -8 -5 -5 3 -9 -1 -9 -9 0 -8 4 -12 8 -10 9 6 6 -16 -4 -32 -5 -8
-4 -13 2 -13 6 0 11 -5 11 -11 0 -5 -4 -8 -9 -5 -9 6 -5 -49 6 -67 4 -7 -1 -6
-10 2 -15 12 -17 12 -11 -3 3 -9 10 -16 14 -16 5 0 8 -9 7 -20 -1 -12 -6 -19
-14 -15 -11 3 -11 0 -3 -16 6 -11 15 -17 20 -14 6 3 7 -1 4 -9 -3 -9 -10 -13
-15 -10 -5 3 -9 1 -9 -5 0 -5 6 -12 13 -14 6 -3 2 -6 -11 -6 -13 -1 -21 -5
-18 -9 2 -4 -4 -14 -16 -21 -16 -10 -19 -10 -12 1 6 11 5 11 -9 0 -9 -8 -22
-10 -29 -6 -8 5 -8 1 2 -11 9 -11 10 -16 3 -11 -8 4 -13 2 -13 -5 0 -8 -5 -7
-17 2 -14 12 -16 12 -8 0 6 -11 4 -13 -9 -8 -10 4 -15 3 -11 -3 3 -6 1 -10 -5
-10 -6 0 -9 -4 -6 -9 3 -5 0 -9 -7 -8 -34 1 -48 -4 -41 -14 5 -8 -1 -10 -20
-7 -23 5 -25 3 -14 -11 7 -9 8 -13 3 -8 -4 4 -19 -3 -32 -15 -13 -12 -23 -18
-23 -14 0 5 -12 1 -26 -9 -15 -9 -23 -12 -20 -6 4 6 2 11 -3 11 -6 0 -11 -6
-11 -14 0 -8 -5 -18 -12 -22 -7 -5 -8 -3 -3 7 5 8 -1 6 -13 -5 -20 -17 -22
-17 -28 -2 -4 10 -13 15 -20 12 -7 -3 -17 0 -21 7 -5 7 -19 21 -33 32 -23 18
-24 19 -10 1 14 -18 14 -18 -7 -6 -12 8 -19 18 -17 22 3 4 -4 8 -15 8 -12 0
-21 5 -21 11 0 8 -6 7 -17 -2 -11 -10 -14 -10 -9 -1 4 7 2 12 -4 12 -6 0 -8 5
-4 13 5 7 0 6 -11 -3 -10 -8 -16 -10 -12 -3 5 8 -4 18 -23 28 -16 8 -30 13
-30 10 0 -3 -6 0 -14 7 -8 7 -12 16 -10 19 2 3 -8 5 -21 3 -15 -1 -25 3 -25
10 0 7 -12 18 -26 24 -14 7 -23 16 -19 21 3 5 1 13 -5 16 -8 5 -6 15 4 31 11
16 12 22 3 19 -13 -6 -14 39 -1 83 4 14 2 22 -5 22 -7 0 -9 5 -6 10 4 6 10 8
14 6 4 -3 8 1 8 9 0 8 -4 12 -8 10 -4 -3 -9 2 -13 10 -3 8 0 17 5 21 8 4 7 10
0 17 -7 7 -7 14 0 24 9 10 8 13 -2 13 -11 0 -11 2 1 10 8 5 11 10 6 10 -5 0
-3 7 4 15 11 13 10 14 -6 9 -18 -7 -18 -6 1 16 11 13 15 20 9 17 -7 -4 -15 0
-18 9 -5 12 -2 15 10 10 13 -5 14 -3 6 7 -8 10 -6 16 9 25 11 7 25 10 31 6 7
-4 8 -3 4 4 -3 6 3 16 15 22 17 10 20 9 13 -2 -6 -11 -5 -11 9 1 9 7 14 17 11
22 -3 5 3 6 12 2 13 -5 15 -3 9 7 -6 9 -4 11 4 6 7 -5 19 0 27 10 9 11 12 12
8 4 -7 -13 -5 -13 9 -1 9 7 23 11 31 8 10 -4 13 -1 10 8 -6 16 25 35 45 27 9
-3 11 0 6 8 -6 10 -4 12 8 7 11 -4 17 -1 17 8 0 9 6 12 17 8 11 -4 14 -3 9 5
-5 8 0 12 13 12 12 0 21 5 21 11 0 6 9 9 20 6 10 -3 19 -2 18 2 -2 22 5 23 23
1 11 -14 17 -18 13 -10z m-474 -4 c0 -2 -8 -10 -17 -17 -16 -13 -17 -12 -4 4
13 16 21 21 21 13z m960 -729 c0 -2 -10 -12 -22 -23 l-23 -19 19 23 c18 21 26
27 26 19z"/>
<path d="M770 3448 c0 -21 -28 -50 -41 -43 -5 4 -9 2 -9 -4 0 -5 5 -13 10 -16
6 -3 10 -12 9 -18 0 -9 -2 -9 -6 1 -2 6 -9 12 -14 12 -6 0 -8 -4 -5 -8 3 -5
-1 -9 -9 -9 -8 0 -12 3 -10 7 3 4 -9 19 -25 34 -17 15 -30 21 -30 14 0 -9 -3
-8 -10 2 -5 8 -10 11 -10 6 0 -5 -7 -3 -15 4 -12 10 -15 9 -15 -5 0 -14 -3
-15 -15 -5 -12 10 -16 9 -21 -4 -3 -9 -10 -13 -15 -10 -5 3 -9 1 -9 -4 0 -5
-14 -12 -31 -16 -17 -3 -28 -10 -25 -15 3 -5 -1 -12 -10 -15 -10 -4 -13 -2 -9
7 4 6 1 5 -7 -4 -7 -9 -19 -14 -27 -11 -10 3 -12 0 -8 -12 3 -8 3 -15 -1 -15
-17 2 -52 -14 -52 -25 0 -6 -4 -4 -9 3 -8 12 -11 9 -16 -11 -4 -15 -4 -32 1
-39 4 -7 3 -9 -4 -5 -6 3 -13 2 -17 -4 -3 -5 2 -10 11 -10 17 0 16 -1 -1 -13
-14 -11 -15 -16 -5 -22 9 -6 11 -4 5 6 -5 8 -4 11 0 6 5 -4 9 -16 10 -27 1
-15 -1 -17 -12 -9 -18 16 -16 4 3 -15 14 -15 14 -16 -3 -16 -14 0 -15 -2 -4
-9 20 -13 21 -61 1 -61 -13 0 -13 -1 0 -10 9 -6 11 -13 5 -17 -5 -5 -11 -14
-13 -22 -3 -12 0 -12 13 -1 13 11 14 10 9 -5 -5 -13 -4 -16 5 -10 11 6 11 3 1
-16 -7 -13 -9 -21 -5 -17 4 4 17 3 28 -3 14 -8 18 -8 12 1 -5 8 0 7 14 -2 12
-7 21 -20 22 -28 0 -11 2 -11 6 -2 4 10 9 9 20 -5 9 -11 12 -12 8 -3 -4 8 1 6
10 -5 9 -11 21 -19 27 -17 6 1 17 -5 25 -15 9 -11 12 -12 8 -3 -4 10 -2 9 8
-2 8 -10 17 -15 20 -11 4 3 7 -1 7 -10 0 -10 5 -17 11 -17 5 0 7 5 4 10 -3 6
-2 10 3 10 6 0 13 -8 17 -17 6 -17 7 -17 19 -1 7 10 16 15 19 11 4 -3 7 -1 7
5 0 7 6 11 13 10 6 -2 11 2 10 9 -2 7 4 10 12 7 8 -3 24 3 36 14 12 12 28 18
37 15 9 -4 13 -2 9 4 -4 6 0 14 9 17 10 4 13 2 8 -6 -4 -7 -3 -8 4 -4 7 4 12
15 12 24 0 15 2 15 10 2 7 -12 10 -12 10 -1 0 8 6 11 15 7 9 -3 18 1 21 9 4 8
10 13 14 10 5 -3 6 5 2 17 -3 12 -1 19 5 15 5 -3 10 0 10 8 0 8 -4 15 -9 15
-5 0 -4 9 2 20 8 14 8 20 0 20 -6 0 -8 5 -3 13 11 17 13 38 3 32 -4 -3 -10 4
-13 14 -3 14 -1 18 10 14 13 -5 13 -2 5 14 -6 11 -8 23 -5 27 10 10 11 56 1
50 -4 -3 -8 -1 -8 5 0 5 5 13 10 16 6 3 10 12 9 18 0 8 -2 8 -6 -1 -3 -9 -14
-3 -34 18 -16 16 -36 30 -44 30 -8 0 -15 7 -15 16 0 8 -4 13 -8 10 -5 -3 -9 1
-9 9 0 8 5 11 10 8 6 -4 8 1 4 11 -4 9 -3 14 2 11 14 -8 24 32 12 52 -9 16
-10 16 -11 1z"/>
<path d="M699 3443 c-1 -5 -1 -12 0 -17 1 -5 -5 -6 -14 -2 -9 3 -13 2 -10 -3
6 -12 45 -10 45 1 0 4 -5 8 -11 8 -5 0 -7 5 -4 10 3 6 4 10 1 10 -3 0 -7 -3
-7 -7z"/>
<path d="M695 3390 c3 -5 8 -10 11 -10 2 0 4 5 4 10 0 6 -5 10 -11 10 -5 0 -7
-4 -4 -10z"/>
<path d="M315 3109 c-4 -6 -5 -12 -2 -15 2 -3 7 2 10 11 7 17 1 20 -8 4z"/>
<path d="M205 3061 c-3 -5 -2 -12 3 -15 5 -3 9 1 9 9 0 17 -3 19 -12 6z"/>
<path d="M209 2973 c-13 -16 -12 -17 4 -4 9 7 17 15 17 17 0 8 -8 3 -21 -13z"/>
<path d="M700 2780 c-8 -5 -12 -12 -9 -15 4 -3 12 1 19 10 14 17 11 19 -10 5z"/>
<path d="M4705 3394 c-10 -7 -14 -18 -9 -25 4 -8 3 -10 -5 -5 -15 10 -5 -54
11 -69 7 -7 9 -7 5 0 -3 6 3 11 14 11 10 0 19 -3 19 -6 0 -3 9 -6 20 -6 11 0
20 4 20 8 0 4 7 8 16 8 9 0 14 6 11 13 -2 6 -1 22 4 34 6 15 3 25 -9 35 -15
11 -16 11 -7 -2 9 -14 9 -14 -5 0 -19 19 -61 21 -85 4z"/>
<path d="M5313 3403 c-7 -3 -13 -14 -13 -24 0 -13 -4 -18 -12 -13 -10 6 -10 4
0 -7 6 -7 12 -17 12 -22 0 -4 -6 -5 -12 -1 -9 6 -9 3 0 -9 8 -9 11 -20 8 -26
-7 -11 13 -9 32 2 6 5 12 4 12 -2 0 -7 8 -7 26 -1 19 8 23 7 18 -3 -6 -9 -5
-9 8 0 8 7 17 11 19 8 8 -8 3 41 -6 55 -6 10 -4 12 10 6 18 -6 18 -6 2 12 -9
10 -14 21 -11 25 3 3 -1 4 -10 3 -8 -1 -19 -5 -22 -9 -12 -12 -26 -8 -18 6 6
9 4 9 -8 -1 -9 -7 -18 -9 -20 -4 -1 5 -9 7 -15 5z"/>
<path d="M2031 3391 c-7 -5 -21 -6 -31 -4 -10 3 -21 0 -24 -6 -4 -6 -13 -11
-19 -11 -7 0 -6 4 3 10 10 7 11 10 2 10 -7 0 -15 -7 -18 -15 -4 -8 -10 -13
-14 -10 -5 3 -11 1 -15 -5 -4 -6 -11 -8 -16 -4 -5 3 -8 0 -7 -8 2 -7 -3 -12
-9 -10 -12 2 -17 -10 -14 -30 0 -4 -5 -5 -13 -2 -8 3 -17 0 -22 -7 -5 -8 -3
-10 7 -5 8 4 7 2 -2 -6 -16 -13 -19 -19 -19 -39 0 -5 -4 -7 -10 -4 -7 4 -7 -2
0 -19 8 -21 7 -24 -8 -19 -9 3 -14 3 -10 -2 4 -4 2 -15 -5 -23 -10 -13 -9 -14
2 -7 11 6 13 4 8 -10 -4 -9 -2 -24 4 -31 10 -12 8 -13 -7 -8 -18 7 -18 6 1
-16 12 -14 14 -20 5 -15 -13 8 -13 6 -2 -7 7 -9 14 -30 14 -47 1 -17 3 -29 6
-26 3 3 12 -4 19 -15 8 -11 19 -17 25 -14 6 4 8 -1 3 -15 -3 -12 -3 -21 2 -20
20 3 34 -2 28 -11 -4 -6 -3 -10 2 -9 18 3 34 -1 29 -9 -2 -4 5 -9 16 -9 12 -1
25 -8 29 -15 6 -8 9 -9 9 -1 0 6 15 11 35 10 29 -1 32 -3 22 -16 -10 -14 -10
-14 8 0 11 8 32 15 48 14 15 0 27 3 27 7 0 4 6 5 13 3 6 -3 25 6 41 20 16 14
36 25 45 25 13 0 13 2 3 9 -11 6 -10 10 4 15 17 7 12 21 -9 21 -7 1 -11 7 -9
14 1 7 -2 10 -7 7 -5 -3 -11 1 -14 8 -3 8 -15 20 -26 26 -17 8 -19 8 -15 -4 3
-8 0 -17 -7 -22 -8 -4 -10 -3 -5 4 5 8 2 10 -8 6 -9 -3 -13 -10 -10 -16 3 -5
-2 -8 -12 -6 -11 2 -18 -2 -17 -8 3 -18 -99 -8 -109 11 -5 8 -13 13 -18 10 -4
-3 -16 15 -26 39 -10 24 -22 42 -26 40 -4 -3 -5 3 -1 12 5 13 3 15 -8 10 -8
-4 -3 2 11 14 14 12 19 19 13 15 -7 -3 -13 -2 -13 2 0 5 6 15 13 22 10 11 9
13 -3 7 -8 -4 -4 2 10 14 14 12 19 19 13 15 -9 -4 -11 -1 -7 9 3 9 10 13 15
10 5 -3 12 2 15 10 3 9 15 16 26 16 13 0 17 4 12 13 -5 8 -2 8 9 -2 16 -13 22
-8 18 13 -1 5 4 4 12 -2 8 -7 18 -8 23 -4 4 4 2 -2 -6 -12 -14 -18 -14 -19 7
-8 18 10 24 9 32 -5 8 -14 11 -15 11 -3 0 9 6 5 15 -10 9 -15 14 -19 15 -10 0
13 1 13 10 0 8 -13 14 -10 37 14 15 16 21 25 13 21 -8 -4 -5 2 8 14 12 12 20
26 17 32 -9 14 -17 11 -10 -3 3 -7 -2 -3 -11 10 -9 12 -23 22 -31 22 -9 0 -11
5 -7 13 5 7 1 7 -12 -3 -10 -8 -16 -11 -12 -6 12 14 -35 45 -52 36 -9 -5 -22
-4 -31 0 -8 5 -21 5 -28 1z m83 -9 c3 -5 -1 -9 -9 -9 -8 0 -12 4 -9 9 3 4 7 8
9 8 2 0 6 -4 9 -8z"/>
<path d="M4119 3369 c-9 -17 -8 -20 2 -14 9 6 10 4 3 -6 -12 -19 -12 -33 1
-41 7 -6 7 -10 0 -15 -12 -9 -14 -103 -3 -103 4 0 8 -5 8 -11 0 -5 -3 -8 -7
-6 -5 3 -9 -6 -9 -19 -1 -13 3 -24 10 -24 7 0 8 -3 1 -8 -6 -4 -11 -16 -11
-27 0 -11 5 -23 11 -27 7 -5 7 -11 0 -15 -15 -11 -17 -33 -5 -47 5 -7 7 -15 4
-19 -3 -3 -7 -20 -8 -37 -3 -36 29 -63 45 -39 5 8 9 9 9 4 0 -6 9 -11 20 -11
11 0 20 4 20 9 0 5 8 3 17 -4 11 -9 14 -10 9 -2 -4 7 -2 22 5 34 8 15 8 19 0
15 -6 -4 -11 0 -11 8 0 9 6 16 13 16 8 0 8 3 2 8 -13 8 -13 22 -1 41 6 9 5 12
-1 8 -6 -4 -10 4 -10 18 0 16 4 22 11 18 6 -4 5 1 -3 10 -11 14 -11 20 0 34
10 11 10 14 2 9 -17 -10 -16 4 2 28 14 18 15 18 15 2 0 -9 4 -15 9 -12 5 4 7
-4 3 -16 -3 -13 -1 -19 5 -15 13 8 26 -20 16 -36 -4 -6 0 -8 10 -4 12 4 15 1
12 -14 -2 -11 0 -17 6 -14 5 4 9 1 9 -5 0 -7 6 -10 14 -7 7 3 19 0 25 -6 8 -8
11 -8 11 2 0 7 5 9 13 5 9 -6 9 -4 -1 8 -10 13 -10 17 2 21 7 3 24 26 37 51
17 35 25 43 35 35 7 -6 18 -8 24 -4 5 3 10 1 10 -4 0 -6 -5 -11 -11 -11 -5 0
-7 -4 -4 -10 3 -5 1 -10 -4 -10 -6 0 -11 -5 -11 -11 0 -5 5 -7 11 -3 8 4 8 1
2 -12 -10 -23 -10 -45 0 -61 5 -8 3 -13 -5 -13 -9 0 -9 -3 2 -10 12 -8 13 -11
1 -19 -11 -7 -11 -9 0 -13 11 -4 12 -8 1 -20 -10 -12 -9 -18 3 -28 8 -7 22
-10 30 -6 8 3 15 2 15 -2 0 -4 11 -7 25 -7 17 0 26 7 30 23 3 14 10 20 18 17
7 -4 3 1 -7 9 -20 16 -20 16 0 17 11 0 14 3 6 6 -10 4 -10 8 0 21 10 12 10 14
0 8 -14 -8 -12 19 2 43 6 10 5 12 -2 7 -16 -10 -15 7 1 23 10 11 9 13 -1 7
-14 -8 -12 19 2 43 6 10 5 12 -2 7 -16 -10 -15 7 1 23 10 11 9 13 -1 7 -14 -8
-12 19 2 43 6 10 5 12 -2 7 -16 -10 -15 7 1 23 10 11 10 13 0 7 -7 -4 -13 -3
-13 1 0 5 6 15 13 22 10 11 9 12 -2 6 -11 -6 -13 -4 -8 8 3 9 1 18 -6 21 -7 2
-3 5 8 5 17 1 17 3 5 11 -8 5 -11 10 -6 10 5 0 2 8 -5 17 -8 10 -9 14 -2 10 6
-4 14 -3 18 3 6 9 -22 15 -54 11 -7 -2 -10 2 -6 8 3 6 1 11 -4 11 -6 0 -11 -5
-11 -12 0 -9 -3 -9 -12 0 -18 18 -32 14 -17 -5 13 -15 12 -15 -10 -4 -13 7
-21 8 -17 3 3 -6 -3 -13 -14 -17 -11 -4 -18 -10 -15 -15 3 -5 1 -11 -5 -15 -6
-4 -7 -12 -4 -18 4 -7 4 -9 -1 -5 -12 11 -35 -11 -29 -27 3 -7 0 -16 -7 -21
-8 -5 -10 -3 -4 6 5 8 4 11 -3 6 -6 -3 -9 -15 -7 -26 2 -12 -4 -24 -16 -30
-13 -8 -19 -7 -19 0 0 6 -4 9 -9 6 -5 -3 -12 1 -15 10 -3 8 -2 12 4 9 6 -3 10
-1 10 4 0 6 -7 11 -16 11 -8 0 -12 5 -9 10 3 6 -2 10 -12 10 -15 0 -16 2 -3
10 11 7 11 10 2 10 -8 0 -10 5 -6 12 5 7 2 9 -8 6 -11 -5 -15 0 -14 20 1 19
-5 28 -19 30 -11 2 -26 11 -32 20 -11 13 -13 13 -13 1 0 -12 -2 -12 -10 1 -6
10 -10 11 -10 3 0 -7 -5 -13 -11 -13 -5 0 -7 5 -3 11 5 8 1 8 -14 0 -26 -14
-35 -14 -27 -1 3 6 4 10 1 10 -3 0 -10 -10 -17 -21z m371 -204 c0 -12 -19 -12
-23 0 -4 9 -1 12 9 8 7 -3 14 -7 14 -8z"/>
<path d="M3449 3363 c-20 -5 -33 -43 -16 -43 8 0 8 -3 2 -8 -5 -4 -10 -14 -10
-22 0 -8 -10 -16 -23 -18 -12 -2 -20 -7 -17 -12 3 -5 1 -11 -5 -15 -7 -4 -6
-13 1 -27 8 -15 8 -19 0 -14 -6 4 -11 2 -11 -3 0 -6 7 -11 15 -11 8 0 15 -4
15 -10 0 -5 6 -9 13 -7 7 1 12 -10 12 -30 0 -18 4 -33 9 -33 4 0 3 -7 -4 -15
-10 -12 -10 -15 1 -15 11 0 11 -2 -1 -10 -13 -9 -13 -11 0 -20 12 -8 12 -10 1
-10 -11 0 -11 -3 -1 -15 7 -8 8 -15 3 -15 -5 0 -9 -8 -8 -17 3 -35 17 -63 31
-63 8 0 14 -7 14 -16 0 -8 5 -12 11 -8 6 3 15 0 20 -7 6 -10 9 -11 9 -1 0 6 5
12 11 12 5 0 7 -6 3 -12 -6 -10 -4 -10 7 -2 8 6 22 10 32 9 9 -2 17 1 17 6 0
4 8 6 18 2 9 -3 14 -3 10 2 -4 4 0 14 10 22 10 9 11 11 2 7 -13 -7 -13 -5 -1
9 7 9 9 17 3 17 -5 0 -13 7 -16 16 -5 14 -4 15 9 4 13 -11 14 -10 9 4 -7 19
-15 20 -33 4 -9 -9 -12 -9 -7 -1 4 7 -2 13 -16 15 -16 2 -22 9 -20 22 2 11 -1
15 -7 11 -6 -3 -11 -2 -11 4 0 5 5 13 10 16 6 3 10 11 10 17 0 7 -4 7 -13 0
-10 -8 -13 -6 -13 8 0 10 4 17 7 14 4 -2 10 0 14 6 3 5 1 10 -6 10 -7 0 -9 3
-6 7 4 3 2 12 -5 20 -8 11 -7 12 6 7 12 -5 15 -2 10 9 -4 11 0 15 13 13 10 -2
24 2 32 8 12 9 13 8 7 -4 -4 -8 1 -4 12 10 12 13 17 27 13 30 -9 7 -8 21 3 40
5 8 5 12 1 7 -5 -4 -17 1 -27 10 -18 16 -18 16 -12 0 5 -14 2 -16 -12 -10 -11
3 -27 15 -36 26 -20 22 -23 31 -9 22 5 -3 12 -1 16 5 3 5 1 10 -6 10 -8 0 -8
5 2 18 7 9 10 14 5 10 -4 -4 -18 -3 -30 2 -13 5 -30 4 -40 -2 -14 -8 -17 -7
-12 1 4 6 6 10 4 10 -2 -1 -10 -3 -19 -6z"/>
<path d="M2470 3281 c-8 -6 -18 -7 -24 -4 -5 3 -6 1 -2 -5 4 -7 2 -12 -4 -12
-6 0 -9 -4 -6 -9 7 -10 -9 -8 -36 4 -10 4 -16 10 -14 14 2 3 -18 6 -44 6 -26
0 -46 -3 -44 -7 2 -3 -3 -14 -12 -22 -10 -10 -11 -16 -4 -16 7 0 10 -8 7 -20
-3 -10 0 -21 5 -22 6 -2 3 -11 -6 -21 -11 -10 -13 -17 -6 -17 7 0 10 -8 7 -20
-3 -11 0 -20 6 -20 7 0 5 -5 -3 -10 -13 -8 -13 -10 -1 -10 11 0 10 -4 -4 -14
-18 -13 -18 -13 1 -24 10 -6 14 -12 8 -12 -13 0 -13 -42 1 -52 6 -5 4 -8 -5
-8 -13 0 -13 -1 0 -10 12 -8 12 -10 -5 -10 -15 0 -17 -2 -6 -9 7 -5 11 -13 7
-19 -6 -10 8 -15 72 -27 12 -2 22 0 22 5 0 5 10 7 22 5 16 -3 19 -2 11 6 -6 6
-9 18 -6 25 3 8 -1 22 -8 31 -10 12 -10 15 -1 9 7 -4 12 -2 12 6 0 8 -6 20
-12 27 -11 11 -10 13 5 8 15 -6 16 -3 7 12 -7 14 -6 21 3 24 7 3 8 6 1 6 -19
2 -3 49 18 54 11 3 17 10 14 15 -9 15 20 22 34 9 10 -9 11 -9 6 0 -4 7 2 14
14 18 17 5 19 9 9 21 -10 12 -9 13 7 7 16 -6 17 -5 6 9 -9 12 -10 18 -2 23 8
5 6 14 -7 28 -12 13 -13 17 -3 12 22 -14 39 -15 47 -3 4 7 -2 9 -15 6 -12 -4
-25 -2 -28 3 -3 5 -15 4 -27 -3 -20 -10 -21 -10 -8 5 15 19 13 21 -9 8z"/>
<path d="M3162 3283 c-6 -2 -9 -9 -6 -15 4 -6 -2 -5 -15 1 -15 8 -21 9 -21 1
0 -6 -4 -9 -9 -5 -5 3 -11 -2 -13 -12 -3 -15 -4 -15 -21 1 -10 10 -24 15 -33
12 -8 -3 -12 -2 -9 4 3 6 1 10 -4 10 -6 0 -11 -6 -11 -12 0 -8 -3 -9 -8 -3
-11 15 -51 14 -45 -2 3 -7 0 -13 -7 -13 -7 0 -6 -6 4 -16 21 -21 20 -30 -1
-13 -15 13 -15 12 -5 -7 8 -16 8 -24 0 -32 -9 -9 -9 -12 0 -12 7 0 12 -7 12
-16 0 -8 -4 -13 -8 -10 -5 3 -9 -1 -9 -9 0 -8 3 -12 7 -10 4 2 7 -2 7 -10 0
-8 -4 -12 -9 -9 -4 3 -8 1 -8 -5 0 -5 6 -12 13 -14 9 -4 8 -8 -3 -16 -10 -7
-11 -11 -2 -11 6 0 12 -5 12 -11 0 -5 -4 -8 -8 -5 -5 3 -9 -1 -9 -9 0 -8 4
-12 9 -9 4 3 8 0 8 -5 0 -6 -6 -11 -12 -11 -9 0 -9 -3 -3 -8 14 -9 17 -55 4
-46 -15 9 -6 -19 10 -32 11 -9 12 -12 1 -19 -9 -6 -11 -4 -5 5 5 9 4 11 -4 6
-9 -6 -9 -11 1 -24 11 -14 10 -15 -7 -9 -19 7 -19 6 -2 -7 17 -13 25 -32 9
-22 -5 3 -9 -1 -9 -9 0 -8 4 -12 9 -9 4 3 8 -2 8 -10 0 -9 -5 -16 -12 -16 -6
0 -8 -3 -5 -6 4 -4 13 -1 22 6 12 10 15 9 15 -6 0 -14 3 -15 12 -6 7 7 17 12
23 12 5 0 4 -4 -3 -9 -11 -7 -11 -9 2 -14 9 -4 15 -3 15 1 -3 19 2 23 16 12
12 -10 14 -8 10 9 -2 12 -1 21 3 21 4 0 6 25 6 55 -2 57 7 69 28 36 6 -10 17
-17 24 -14 7 2 22 -1 34 -7 15 -8 20 -8 16 -1 -4 6 -2 11 3 11 6 0 11 -5 11
-11 0 -8 4 -9 13 0 8 6 17 8 20 4 4 -3 7 -1 7 6 0 8 7 11 15 7 8 -3 15 -2 15
3 0 5 9 11 20 14 11 3 23 13 27 24 3 10 11 21 16 24 5 4 10 18 10 32 1 14 5
23 9 21 4 -3 5 9 1 27 -4 19 -2 30 3 26 5 -3 10 3 10 13 0 10 -4 17 -7 14 -4
-2 -10 0 -13 5 -4 5 -1 13 5 17 8 4 7 9 -2 15 -11 7 -11 9 -1 9 10 0 9 4 -2
16 -9 8 -14 20 -10 25 3 5 0 8 -8 7 -7 -2 -12 5 -12 14 1 9 -5 19 -13 22 -9 4
-12 1 -8 -7 4 -6 -6 2 -20 18 -15 17 -24 23 -19 15 7 -13 5 -13 -9 -1 -12 10
-17 10 -17 2 0 -8 -6 -7 -16 3 -16 17 -21 18 -42 9z m-12 -115 c0 -9 4 -8 10
2 9 13 10 13 10 0 0 -13 1 -13 10 0 8 13 10 12 10 -2 0 -10 7 -18 15 -18 8 0
14 -3 14 -7 -1 -5 0 -10 1 -13 8 -22 7 -47 -3 -59 -9 -11 -9 -13 0 -8 7 5 9 0
6 -13 -3 -11 -10 -17 -16 -13 -6 4 -8 0 -4 -10 3 -9 3 -16 -1 -16 -4 1 -9 0
-12 -1 -3 -1 -21 -3 -42 -4 -29 -2 -35 0 -30 12 3 8 1 13 -4 10 -5 -3 -18 4
-28 15 -16 17 -17 19 -3 14 9 -3 17 -2 17 3 0 6 -6 10 -14 10 -12 0 -14 13 -7
53 0 5 5 5 11 2 6 -4 7 1 3 11 -5 14 -3 16 12 11 16 -7 16 -5 4 10 -8 9 -9 14
-2 10 6 -4 14 -3 18 3 9 14 25 13 25 -2z"/>
<path d="M3802 3273 c-7 -10 -9 -11 -5 -3 6 13 4 13 -10 1 -9 -7 -17 -10 -17
-5 0 5 -10 -2 -21 -16 -11 -14 -18 -20 -15 -14 3 6 -1 11 -9 11 -8 0 -12 -4
-9 -9 3 -4 -6 -19 -20 -33 -13 -13 -28 -35 -31 -47 -4 -13 -13 -30 -19 -38
-10 -13 -9 -13 7 -1 17 13 17 13 6 -12 -10 -21 -9 -30 2 -44 8 -9 9 -14 2 -10
-7 5 -9 0 -6 -13 3 -11 9 -23 14 -25 4 -3 5 -13 2 -23 -3 -9 -3 -14 2 -10 10
9 35 -16 35 -36 0 -9 7 -13 20 -11 13 2 20 -2 20 -11 0 -8 3 -13 8 -13 22 4
42 -2 37 -10 -3 -6 4 -8 17 -5 13 3 36 7 51 9 26 4 28 3 15 -13 -12 -16 -11
-16 6 -2 10 8 25 15 34 16 8 2 19 9 23 16 7 10 9 10 10 -2 0 -9 4 -7 11 8 6
12 15 22 20 22 5 0 6 -5 2 -12 -4 -7 -3 -8 4 -4 7 4 12 14 12 22 0 8 5 14 11
14 5 0 8 4 5 9 -3 5 1 12 10 15 10 4 14 14 11 26 -3 13 -1 18 6 13 6 -4 8 0 5
9 -4 8 -2 21 2 28 5 8 4 22 -1 31 -6 12 -5 19 4 22 7 3 5 6 -5 6 -10 1 -18 6
-18 12 0 6 8 8 18 5 16 -6 16 -5 0 8 -10 7 -18 18 -18 25 0 6 -4 11 -10 11 -5
0 -10 7 -10 15 0 14 -13 20 -34 16 -5 -1 -3 6 5 15 13 16 12 17 -8 12 -16 -4
-23 -2 -23 8 0 13 -32 20 -69 15 -8 -2 -10 2 -5 11 6 10 4 10 -9 -1 -13 -10
-17 -10 -17 -1 0 10 -3 10 -14 1 -9 -8 -15 -8 -18 -1 -1 5 -9 2 -16 -7z m81
-110 c-4 -9 0 -11 11 -7 15 6 22 -11 17 -40 -1 -5 5 -3 14 4 13 11 14 10 9 -5
-5 -13 -4 -16 4 -11 8 5 10 2 6 -8 -3 -9 -11 -13 -18 -9 -6 3 -6 1 2 -8 14
-16 16 -33 2 -24 -5 3 -10 -1 -10 -9 0 -9 -5 -16 -11 -16 -5 0 -7 -6 -3 -12 4
-7 4 -10 -1 -6 -4 4 -14 3 -22 -3 -7 -6 -13 -8 -13 -3 0 5 -5 2 -10 -6 -8 -13
-10 -12 -10 5 0 14 -3 16 -11 8 -13 -13 -42 -6 -34 7 3 5 -4 11 -15 15 -11 4
-18 10 -15 15 3 5 1 20 -5 35 -8 22 -8 26 3 22 8 -3 14 1 14 9 0 7 -4 11 -9 8
-4 -3 -5 2 -2 10 3 9 10 13 15 10 5 -3 9 3 9 13 0 14 2 15 9 5 7 -11 9 -11 14
1 3 9 17 14 35 14 20 -1 28 -6 25 -14z"/>
<path d="M4713 3274 c-3 -8 -12 -13 -19 -10 -8 3 -11 0 -7 -10 3 -8 -1 -14 -8
-14 -12 0 -12 -2 0 -9 8 -5 11 -16 8 -24 -3 -9 -1 -17 5 -19 6 -2 4 -11 -6
-21 -11 -10 -13 -17 -6 -17 7 0 10 -8 7 -20 -3 -10 0 -21 5 -22 6 -2 3 -11 -6
-21 -11 -10 -13 -17 -6 -17 7 0 10 -8 7 -20 -3 -11 0 -20 6 -20 7 0 5 -5 -3
-10 -13 -9 -13 -10 0 -10 9 0 11 -3 5 -8 -5 -4 -10 -24 -10 -44 -1 -35 1 -38
35 -45 44 -9 61 -6 80 14 11 12 12 17 3 20 -7 3 -13 9 -13 14 0 6 6 7 13 3 10
-6 10 -4 0 7 -15 16 -17 33 -3 24 6 -3 10 -1 10 4 0 6 -4 11 -9 11 -5 0 -8 11
-8 25 0 15 4 22 11 18 6 -3 6 0 -1 8 -14 14 -18 33 -5 25 4 -2 8 6 8 20 0 18
-4 23 -15 19 -10 -3 -9 0 3 10 11 8 14 15 7 15 -14 0 -11 31 4 42 6 5 6 8 -1
8 -7 0 -15 7 -18 16 -5 13 -4 14 7 6 10 -9 14 -8 14 3 0 8 -5 15 -11 15 -6 0
-4 5 4 10 12 8 10 10 -8 10 -13 0 -21 4 -17 9 3 6 -7 6 -26 1 -25 -7 -30 -6
-25 5 3 8 3 15 0 15 -2 0 -7 -7 -11 -16z"/>
<path d="M5093 3276 c5 -12 3 -15 -5 -9 -22 13 -47 10 -53 -6 -5 -13 -7 -14
-15 -1 -8 13 -10 12 -10 -3 0 -10 -5 -15 -10 -12 -6 4 -8 10 -5 15 3 4 -6 7
-20 5 -14 -1 -25 1 -25 4 0 4 -16 5 -35 3 -19 -2 -32 -8 -29 -13 3 -5 -1 -9
-8 -9 -10 0 -10 -2 1 -9 11 -7 11 -9 0 -14 -9 -3 -7 -6 6 -6 17 -1 17 -3 5
-11 -8 -5 -11 -10 -7 -10 4 0 3 -10 -4 -21 -8 -15 -8 -19 0 -15 6 4 11 0 11
-9 0 -9 -4 -14 -8 -11 -5 3 -9 -1 -9 -9 0 -8 3 -12 7 -10 4 2 7 -2 7 -10 0 -8
-4 -12 -9 -9 -4 3 -8 0 -8 -5 0 -6 5 -11 10 -11 6 0 10 -7 10 -15 0 -8 -6 -15
-12 -15 -9 0 -8 -4 2 -10 13 -9 13 -10 0 -10 -13 0 -13 -1 0 -10 13 -8 13 -10
1 -10 -11 0 -10 -4 4 -13 20 -15 5 -33 -17 -22 -7 4 -5 0 4 -8 14 -11 15 -16
5 -27 -9 -10 -9 -11 1 -6 6 4 12 2 12 -3 0 -6 -5 -11 -12 -11 -6 0 -3 -6 8
-14 10 -8 20 -11 22 -6 2 5 14 5 28 0 17 -7 24 -6 24 3 0 8 4 7 10 -3 7 -12
11 -10 18 10 6 17 6 27 -2 32 -8 6 -8 8 1 8 12 0 12 17 0 38 -5 6 -4 12 0 12
5 0 9 9 9 20 0 11 -5 20 -11 20 -5 0 -3 5 5 10 13 9 13 10 0 11 -10 0 -8 3 5
9 11 5 14 9 6 9 -11 1 -11 4 0 18 10 11 10 14 2 9 -7 -4 -13 -2 -13 3 0 6 5
11 10 11 6 0 10 10 10 23 0 18 2 19 10 7 7 -11 10 -11 10 -2 0 7 5 10 10 7 6
-3 10 -1 10 6 0 7 7 4 15 -7 15 -19 15 -19 8 1 -5 17 -3 16 14 -5 13 -15 20
-37 19 -57 -1 -18 3 -33 9 -33 7 0 7 -3 0 -8 -5 -4 -10 -20 -10 -37 0 -16 5
-33 10 -37 7 -5 6 -8 0 -8 -9 0 -10 -15 -6 -64 1 -4 10 -6 21 -3 11 3 18 1 15
-3 -3 -5 4 -8 15 -7 11 1 20 5 20 10 0 4 10 7 22 5 16 -2 22 3 23 20 1 12 -2
22 -7 22 -4 0 -8 8 -8 18 0 14 2 15 10 2 12 -19 13 -8 1 23 -6 14 -7 28 -4 31
11 11 9 55 -2 48 -5 -3 -4 1 3 10 10 13 10 17 -5 23 -17 6 -17 7 1 21 12 8 15
14 7 14 -10 0 -11 3 -2 14 9 11 9 16 0 22 -8 5 -9 3 -4 -6 5 -8 4 -11 -3 -6
-6 4 -8 14 -5 23 4 9 -1 21 -12 29 -10 8 -15 14 -11 14 4 0 1 7 -8 15 -8 8
-22 15 -31 15 -9 0 -26 5 -37 11 -18 10 -20 9 -15 -5z"/>
<path d="M5696 3281 c-4 -7 -14 -10 -22 -7 -7 3 -19 -1 -26 -8 -14 -13 -48
-18 -48 -5 0 3 -9 9 -20 12 -11 3 -20 0 -20 -6 0 -7 -5 -5 -10 3 -9 13 -11 13
-20 0 -9 -13 -10 -13 -10 0 0 12 -2 13 -9 1 -5 -7 -13 -11 -19 -7 -6 3 -9 -2
-7 -11 11 -55 12 -102 3 -96 -6 3 -8 1 -4 -5 3 -5 3 -12 -1 -15 -5 -2 -3 -3 3
-1 7 1 10 -13 9 -39 -1 -24 -6 -41 -12 -40 -7 1 -5 -10 4 -29 15 -29 15 -32
-2 -45 -18 -12 -18 -13 4 -13 20 0 21 -2 7 -15 -8 -9 -13 -22 -9 -31 3 -8 8
-13 11 -10 2 3 13 1 23 -5 14 -7 19 -6 19 3 0 8 3 9 8 3 10 -14 32 -17 32 -4
0 5 5 7 10 4 6 -3 10 3 10 15 0 12 3 19 8 17 4 -3 7 24 7 59 0 46 -3 63 -12
60 -7 -3 -10 1 -6 9 3 8 8 13 12 11 3 -2 6 10 6 27 0 22 4 31 14 29 12 -3 12
-1 0 14 -9 12 -9 15 -1 10 6 -4 12 -3 12 2 0 13 43 7 48 -6 2 -7 8 -10 13 -7
5 4 6 -1 3 -9 -3 -9 -2 -16 2 -16 5 0 8 -19 6 -42 -3 -44 -3 -59 -1 -80 1 -7
0 -17 -1 -23 -1 -5 -2 -25 -1 -44 1 -31 3 -33 31 -29 17 3 30 2 30 -2 0 -3 9
-6 20 -6 11 0 20 4 20 9 0 5 6 5 13 -1 9 -8 12 0 12 34 0 24 -4 44 -10 44 -7
0 -7 3 0 8 6 4 10 34 10 67 0 33 -4 63 -10 67 -6 5 -5 8 4 8 11 0 11 3 1 15
-7 8 -10 24 -7 34 3 12 -1 22 -10 25 -8 3 -12 10 -8 15 3 5 -4 12 -15 16 -11
4 -18 11 -15 16 4 5 -6 9 -20 9 -18 0 -24 4 -19 13 6 9 4 9 -8 -1 -13 -10 -17
-10 -20 0 -3 9 -6 9 -12 -1z"/>
<path d="M6025 3280 c-4 -6 -11 -8 -16 -5 -5 4 -9 1 -9 -5 0 -6 -5 -8 -10 -5
-15 9 -41 -14 -33 -29 3 -6 0 -5 -8 2 -12 11 -18 4 -41 -45 -19 -42 -23 -60
-15 -65 9 -6 8 -8 -2 -8 -11 0 -11 -3 -1 -15 7 -8 8 -15 3 -15 -6 0 -8 -11 -5
-25 2 -14 9 -25 14 -25 6 0 4 -8 -3 -17 -7 -10 -10 -15 -5 -11 10 8 36 -15 36
-32 0 -6 5 -8 10 -5 6 3 10 3 10 -2 0 -4 13 -17 28 -28 22 -15 24 -16 13 -2
-12 15 -12 17 3 11 9 -3 16 -11 16 -16 0 -6 6 -5 15 2 9 7 15 8 15 2 0 -11 18
-11 38 1 7 5 12 3 12 -5 1 -8 6 -6 15 6 8 11 15 16 15 11 0 -5 6 -1 13 10 10
13 16 15 21 6 4 -6 2 -19 -6 -28 -11 -14 -11 -16 2 -8 8 4 6 -1 -5 -12 -11
-11 -23 -19 -27 -16 -5 2 -8 -1 -8 -7 0 -7 -7 -10 -15 -6 -8 3 -15 2 -15 -3 0
-13 -63 -3 -72 12 -4 6 -8 8 -8 4 0 -4 -8 -3 -18 2 -13 7 -23 6 -31 -2 -10 -9
-11 -9 -9 3 2 8 0 5 -6 -7 -5 -13 -14 -23 -19 -23 -5 0 -3 -8 4 -17 12 -15 12
-16 -3 -10 -12 4 -15 2 -11 -9 5 -13 17 -18 36 -15 5 1 6 -3 3 -8 -3 -5 3 -11
14 -14 11 -3 18 -1 14 4 -3 5 -1 9 4 9 6 0 13 -7 16 -16 6 -15 8 -15 25 0 14
13 21 14 27 5 4 -8 3 -10 -4 -5 -7 4 -12 2 -12 -3 0 -14 13 -14 28 1 9 9 12 9
12 -3 0 -12 2 -12 10 1 6 10 10 11 10 3 0 -7 5 -13 11 -13 5 0 7 5 4 10 -9 14
8 13 23 -2 9 -9 15 -9 25 1 10 10 8 11 -7 5 -14 -5 -17 -4 -12 5 5 7 17 11 27
8 11 -3 19 0 19 6 0 7 5 5 10 -3 7 -11 10 -11 10 -2 0 7 4 10 10 7 5 -3 7 0 4
9 -3 9 2 17 15 21 12 3 22 15 22 26 1 10 3 24 4 29 1 6 3 17 4 26 0 8 6 12 11
9 6 -3 10 -1 10 4 0 6 -6 11 -12 11 -9 0 -9 3 -3 8 15 10 16 304 1 299 -6 -2
-19 0 -28 5 -13 6 -18 5 -18 -4 0 -9 -3 -9 -10 2 -9 13 -11 13 -20 0 -8 -12
-10 -12 -10 -1 0 10 -5 8 -17 -6 -17 -18 -49 -21 -38 -3 3 4 -2 11 -11 14 -9
4 -13 2 -8 -5 3 -6 -5 -4 -19 6 -17 10 -27 13 -32 6 -3 -6 -11 -11 -16 -11 -6
0 -7 5 -4 10 3 6 4 10 1 10 -3 0 -8 -5 -11 -10z m95 -120 c4 -6 11 -11 16 -11
5 0 9 -8 9 -19 0 -10 3 -22 7 -25 12 -12 -4 -43 -30 -56 -29 -14 -83 -19 -76
-7 3 4 0 8 -6 8 -6 0 -8 5 -4 13 6 9 4 9 -8 -1 -14 -11 -16 -10 -13 5 1 10 -2
26 -7 36 -6 12 -5 17 4 18 9 0 10 2 1 5 -8 4 -7 11 5 23 9 10 20 16 25 14 4
-2 7 0 7 6 0 14 60 7 70 -9z"/>
<path d="M2562 3259 c-7 -11 -18 -17 -25 -13 -7 4 -9 4 -5 -1 4 -4 2 -15 -5
-24 -11 -14 -10 -14 6 -2 15 12 21 9 18 -11 0 -5 4 -8 10 -8 6 0 9 -9 6 -20
-3 -10 0 -18 5 -17 10 2 12 -3 19 -53 5 -30 20 -50 34 -42 6 2 4 -1 -2 -9 -16
-16 -17 -33 -2 -23 7 4 10 1 7 -7 -3 -8 2 -20 11 -27 9 -8 11 -11 4 -8 -8 5
-8 0 0 -19 7 -14 15 -25 20 -25 4 0 7 -10 7 -22 0 -17 -3 -19 -9 -10 -6 11 -9
9 -13 -5 -3 -11 -12 -20 -21 -20 -9 0 -14 4 -11 8 2 4 -1 11 -8 15 -7 4 -9 3
-5 -1 4 -5 -3 -15 -15 -23 -16 -9 -17 -12 -4 -7 16 5 17 3 6 -10 -7 -8 -15
-13 -19 -11 -3 2 -6 -6 -6 -19 0 -13 3 -21 8 -18 4 2 7 -1 7 -6 0 -6 7 -11 16
-11 9 0 13 -5 9 -12 -4 -7 1 -4 9 6 14 17 16 18 16 3 0 -9 5 -17 11 -17 5 0 8
4 5 8 -3 5 1 9 9 9 8 0 12 -4 9 -8 -2 -4 0 -11 6 -14 6 -4 9 -1 8 7 -2 8 6 13
19 12 12 0 20 3 18 7 -7 10 25 20 38 12 8 -4 7 -1 -1 9 -10 13 -10 17 3 22 9
3 13 10 10 16 -3 5 -2 10 4 10 6 0 8 6 5 14 -3 8 0 17 7 22 8 5 10 3 4 -6 -5
-9 -4 -11 4 -6 9 6 9 11 -1 24 -8 9 -8 13 -2 9 7 -4 15 0 18 9 4 10 2 13 -7 8
-8 -6 -8 -3 1 9 8 9 11 20 8 26 -3 5 1 11 9 15 8 3 15 15 15 26 0 11 5 20 11
20 8 0 8 4 0 14 -10 12 -8 17 7 25 14 7 18 18 15 36 -4 17 0 27 11 31 9 3 13
10 10 15 -3 5 -1 9 4 9 5 0 7 12 4 27 -4 20 -2 25 10 21 10 -4 14 0 13 13 -2
26 -5 28 -55 31 -45 4 -77 -12 -65 -32 3 -5 -1 -10 -9 -10 -9 0 -16 -5 -16
-11 0 -5 5 -7 10 -4 6 3 0 -11 -12 -32 -19 -33 -20 -36 -4 -23 18 14 18 14 6
-7 -8 -12 -18 -19 -23 -16 -5 3 -4 -4 2 -15 8 -16 7 -21 -5 -26 -9 -3 -14 -13
-11 -21 4 -9 1 -12 -9 -8 -9 3 -14 13 -11 24 3 11 2 17 -3 14 -4 -3 -11 2 -14
11 -3 9 -2 12 5 8 6 -3 3 8 -5 25 -9 17 -13 31 -9 31 5 0 1 5 -7 10 -11 7 -12
10 -2 10 10 0 9 4 -2 16 -9 8 -14 20 -11 25 4 5 1 9 -5 9 -6 0 -9 4 -6 9 3 5
-3 11 -14 14 -10 3 -21 0 -24 -7 -3 -7 -5 -7 -5 2 -1 6 -6 12 -12 12 -5 0 -7
-6 -3 -12 6 -10 5 -10 -7 -1 -12 10 -17 8 -27 -8z"/>
<path d="M5302 3271 c2 -21 -4 -31 -14 -25 -10 6 -10 4 0 -7 14 -15 16 -33 3
-24 -5 3 -13 0 -17 -6 -4 -7 -3 -9 4 -5 6 3 14 1 19 -6 11 -19 13 -39 2 -32
-5 3 -6 10 -3 16 4 7 2 8 -4 4 -11 -7 -6 -31 11 -54 7 -9 5 -11 -9 -6 -16 6
-17 5 -6 -7 14 -15 16 -33 3 -25 -5 4 -7 -3 -4 -14 3 -11 9 -18 12 -15 4 2 8
-2 8 -9 0 -9 -7 -12 -16 -8 -13 5 -14 3 -4 -9 9 -11 9 -19 2 -26 -8 -8 -7 -13
2 -18 8 -6 10 -4 4 5 -6 9 -4 11 4 5 9 -5 10 -10 2 -18 -14 -14 -14 -54 -1
-62 6 -4 8 -10 5 -15 -3 -5 0 -12 6 -16 8 -4 9 -3 5 5 -6 8 5 11 37 8 33 -2
47 1 55 14 8 12 7 20 -1 29 -8 8 -8 11 -1 7 7 -4 11 4 10 23 -1 17 -3 30 -6
30 -3 0 -6 9 -6 20 0 14 5 19 15 15 11 -4 10 0 -4 15 -10 11 -14 20 -8 20 10
0 9 52 -2 69 -3 6 -2 11 2 11 7 0 8 38 4 104 -1 4 -10 6 -21 3 -11 -3 -20 0
-20 6 0 7 -5 5 -10 -3 -9 -13 -10 -13 -10 0 0 13 -1 13 -10 0 -5 -8 -10 -10
-10 -4 0 6 -6 11 -14 11 -8 0 -15 -3 -14 -6z"/>
<path d="M4590 2919 c0 -5 5 -7 10 -4 6 3 10 8 10 11 0 2 -4 4 -10 4 -5 0 -10
-5 -10 -11z"/>
<path d="M6265 2921 c-3 -5 -2 -12 3 -15 5 -3 9 1 9 9 0 17 -3 19 -12 6z"/>
</g>
</svg>
