<svg width="129" height="129" viewBox="0 0 129 129" fill="none" xmlns="http://www.w3.org/2000/svg"><path fill-rule="evenodd" clip-rule="evenodd" d="M64.5 129C100.122 129 129 100.122 129 64.5C129 28.8776 100.122 0 64.5 0C28.8776 0 0 28.8776 0 64.5C0 100.122 28.8776 129 64.5 129ZM64 115C91.6142 115 114 92.6142 114 65C114 37.3858 91.6142 15 64 15C36.3858 15 14 37.3858 14 65C14 92.6142 36.3858 115 64 115Z" fill="#3C6" fill-opacity=".05"/><circle cx="64.5" cy="64.5" r="41.5" fill="#FF9"/><path d="M81.6805 65.7656C82.2383 65.143 82.5781 64.3211 82.5781 63.4219C82.5781 61.4836 81.0008 59.9062 79.0625 59.9062H72.2391C72.9148 57.8555 73.2031 55.1344 73.2031 53.968V52.7969C73.2031 50.2125 71.1 48.1094 68.5156 48.1094H67.3438C66.8062 48.1094 66.3375 48.475 66.207 48.9969L65.5688 51.5508C64.6742 55.1273 61.8344 59.0734 58.8953 59.7906C58.3805 58.4875 57.1094 57.5625 55.625 57.5625H48.5938C47.9469 57.5625 47.4219 58.0875 47.4219 58.7344V79.8281C47.4219 80.475 47.9469 81 48.5938 81H55.625C57.0227 81 58.232 80.1805 58.7984 78.9961L62.825 80.3383C64.1414 80.7773 65.5133 81 66.9016 81H76.7188C78.657 81 80.2344 79.4227 80.2344 77.4844C80.2344 77.0273 80.1469 76.5898 79.9875 76.1891C81.4781 75.782 82.5781 74.4156 82.5781 72.7969C82.5781 71.8977 82.2383 71.0758 81.6805 70.4531C82.2383 69.8305 82.5781 69.0086 82.5781 68.1094C82.5781 67.2102 82.2383 66.3883 81.6805 65.7656ZM56.7969 77.4844C56.7969 78.1305 56.2711 78.6562 55.625 78.6562H49.7656V59.9062H55.625C56.2711 59.9062 56.7969 60.432 56.7969 61.0781V77.4844ZM76.7188 66.9375H79.0625C79.7086 66.9375 80.2344 67.4633 80.2344 68.1094C80.2344 68.7555 79.7086 69.2812 79.0625 69.2812H76.7188C76.0719 69.2812 75.5469 69.8062 75.5469 70.4531C75.5469 71.1 76.0719 71.625 76.7188 71.625H79.0625C79.7086 71.625 80.2344 72.1508 80.2344 72.7969C80.2344 73.443 79.7086 73.9688 79.0625 73.9688H76.7188C76.0719 73.9688 75.5469 74.4937 75.5469 75.1406C75.5469 75.7875 76.0719 76.3125 76.7188 76.3125C77.3648 76.3125 77.8906 76.8383 77.8906 77.4844C77.8906 78.1305 77.3648 78.6562 76.7188 78.6562H66.9016C65.7656 78.6562 64.643 78.4742 63.5656 78.1148L59.1406 76.6398V62.1391C60.9789 61.7898 62.7781 60.6258 64.4023 58.7203C65.9883 56.8594 67.2742 54.3922 67.8422 52.1195L68.2586 50.4531H68.5156C69.8078 50.4531 70.8594 51.5047 70.8594 52.7969V53.968C70.8594 55.5414 70.3672 58.5594 69.7375 59.9062H67.3438C66.6969 59.9062 66.1719 60.4312 66.1719 61.0781C66.1719 61.725 66.6969 62.25 67.3438 62.25H79.0625C79.7086 62.25 80.2344 62.7758 80.2344 63.4219C80.2344 64.068 79.7086 64.5938 79.0625 64.5938H76.7188C76.0719 64.5938 75.5469 65.1187 75.5469 65.7656C75.5469 66.4125 76.0719 66.9375 76.7188 66.9375Z" fill="#855935"/><path d="M53.2812 76.3125C53.9285 76.3125 54.4531 75.7878 54.4531 75.1406C54.4531 74.4934 53.9285 73.9688 53.2812 73.9688C52.634 73.9688 52.1094 74.4934 52.1094 75.1406C52.1094 75.7878 52.634 76.3125 53.2812 76.3125Z" fill="#855935"/><path d="M69.6875 41C69.0403 41 68.5156 41.5247 68.5156 42.1719V44.5938C68.5156 45.2409 69.0403 45.7656 69.6875 45.7656C70.3347 45.7656 70.8594 45.2409 70.8594 44.5938V42.1719C70.8594 41.5247 70.3347 41 69.6875 41Z" fill="#855935"/><path d="M64.7156 46.168L63.0584 44.5107C62.6008 44.0531 61.8588 44.0531 61.4011 44.5107C60.9434 44.9684 60.9434 45.7103 61.4011 46.168L63.0584 47.8253C63.516 48.2828 64.2581 48.2829 64.7156 47.8253C65.1733 47.3676 65.1733 46.6256 64.7156 46.168Z" fill="#855935"/><path d="M77.9739 44.5107C77.5164 44.0531 76.7743 44.0531 76.3167 44.5107L74.6594 46.1679C74.2017 46.6256 74.2017 47.3675 74.6594 47.8252C75.117 48.2828 75.859 48.2829 76.3167 47.8253L77.9739 46.168C78.4316 45.7103 78.4316 44.9684 77.9739 44.5107Z" fill="#855935"/></svg>