<svg width="129" height="129" viewBox="0 0 129 129" fill="none" xmlns="http://www.w3.org/2000/svg"><path fill-rule="evenodd" clip-rule="evenodd" d="M64.5 129C100.122 129 129 100.122 129 64.5C129 28.8776 100.122 0 64.5 0C28.8776 0 0 28.8776 0 64.5C0 100.122 28.8776 129 64.5 129ZM64 115C91.6142 115 114 92.6142 114 65C114 37.3858 91.6142 15 64 15C36.3858 15 14 37.3858 14 65C14 92.6142 36.3858 115 64 115Z" fill="#FF9" fill-opacity=".5"/><circle cx="64.5" cy="64.5" r="41.5" fill="#FF9"/><g clip-path="url(#clip0)"><path d="M83.9428 60.4283C83.8046 60.0041 83.4382 59.6947 82.9967 59.6307L70.6499 57.8369L65.1289 46.6495C64.9312 46.2495 64.5242 45.9956 64.0781 45.9956C63.632 45.9956 63.2249 46.2495 63.0273 46.6495L57.5063 57.8354L45.0056 59.6307C44.5618 59.694 44.1931 60.0049 44.0563 60.4322C43.9188 60.8588 44.0376 61.326 44.361 61.6362L53.443 70.3439L51.3352 82.6344C51.2594 83.0735 51.4406 83.518 51.8008 83.7805C52.1625 84.0422 52.6406 84.0774 53.0352 83.8696L64.0781 78.0641L75.121 83.8695C75.5142 84.076 75.9938 84.0431 76.3546 83.7804C76.7156 83.5179 76.8968 83.0734 76.821 82.6344L74.7125 70.3376L83.646 61.6298C83.9655 61.3182 84.0803 60.8526 83.9428 60.4283ZM72.6351 69.0892C72.3585 69.3587 72.2328 69.747 72.2984 70.1267L74.1101 80.6899L64.6235 75.7025C64.4531 75.6126 64.2656 75.5681 64.0781 75.5681C63.8906 75.5681 63.7031 75.6126 63.5328 75.7025L54.0462 80.6899L55.8579 70.1267C55.9243 69.7431 55.7954 69.3525 55.5142 69.0829L47.7189 61.6088L58.4509 60.0674C58.8329 60.0127 59.1642 59.7729 59.3353 59.4268L64.0781 49.8159L68.8211 59.4268C68.9922 59.7721 69.3219 60.0119 69.7039 60.0674L80.3101 61.6088L72.6351 69.0892Z" fill="#F26A76"/></g><defs><clipPath id="clip0"><path fill="#fff" d="M44 45H84V85H44z"/></clipPath></defs></svg>