<svg width="129" height="129" viewBox="0 0 129 129" fill="none" xmlns="http://www.w3.org/2000/svg"><path fill-rule="evenodd" clip-rule="evenodd" d="M64.5 129C100.122 129 129 100.122 129 64.5C129 28.8776 100.122 0 64.5 0C28.8776 0 0 28.8776 0 64.5C0 100.122 28.8776 129 64.5 129ZM64 115C91.6142 115 114 92.6142 114 65C114 37.3858 91.6142 15 64 15C36.3858 15 14 37.3858 14 65C14 92.6142 36.3858 115 64 115Z" fill="#3C6" fill-opacity=".05"/><circle cx="64.5" cy="64.5" r="41.5" fill="#FF9"/><path d="M54.252 50.8002V76.0002H50.688V53.9322H45V50.8002H54.252Z" fill="#855935"/><path d="M71.8602 76.2882C69.8682 76.2882 68.0922 75.7842 66.5322 74.7762C64.9962 73.7442 63.7842 72.2562 62.8962 70.3122C62.0082 68.3682 61.5642 66.0642 61.5642 63.4002C61.5642 60.7362 62.0082 58.4322 62.8962 56.4882C63.7842 54.5442 64.9962 53.0682 66.5322 52.0602C68.0922 51.0282 69.8682 50.5122 71.8602 50.5122C73.8282 50.5122 75.5802 51.0282 77.1162 52.0602C78.6762 53.0682 79.9002 54.5442 80.7882 56.4882C81.6762 58.4322 82.1202 60.7362 82.1202 63.4002C82.1202 66.0642 81.6762 68.3682 80.7882 70.3122C79.9002 72.2562 78.6762 73.7442 77.1162 74.7762C75.5802 75.7842 73.8282 76.2882 71.8602 76.2882ZM71.8602 73.0842C73.8762 73.0842 75.4842 72.2562 76.6842 70.6002C77.9082 68.9442 78.5202 66.5442 78.5202 63.4002C78.5202 60.2562 77.9082 57.8562 76.6842 56.2002C75.4842 54.5442 73.8762 53.7162 71.8602 53.7162C69.8202 53.7162 68.1882 54.5442 66.9642 56.2002C65.7642 57.8562 65.1642 60.2562 65.1642 63.4002C65.1642 66.5442 65.7642 68.9442 66.9642 70.6002C68.1882 72.2562 69.8202 73.0842 71.8602 73.0842Z" fill="#855935"/></svg>