<svg width="26" height="26" viewBox="0 0 26 26" fill="none" xmlns="http://www.w3.org/2000/svg"><path d="M13 0.649902C7.83251 0.649902 3.62918 4.85324 3.62918 10.0207C3.62918 15.0637 12.3088 24.7942 12.6783 25.2058C12.7595 25.2979 12.8776 25.3499 13 25.3499C13.1224 25.3499 13.2405 25.2979 13.3228 25.2058C13.6923 24.7942 22.3719 15.0637 22.3719 10.0207C22.3708 4.85324 18.1675 0.649902 13 0.649902ZM13 24.2601C11.4097 22.4271 4.49585 14.2132 4.49585 10.0207C4.49585 5.33099 8.31135 1.51657 13 1.51657C17.6887 1.51657 21.5042 5.33099 21.5042 10.0207C21.5042 14.2132 14.5903 22.4271 13 24.2601Z" fill="#3C6"/><path d="M13 3.62891C9.47592 3.62891 6.60834 6.49541 6.60834 10.0206C6.60834 13.5457 9.47592 16.4122 13 16.4122C16.5241 16.4122 19.3917 13.5457 19.3917 10.0206C19.3917 6.49541 16.5241 3.62891 13 3.62891ZM13 15.5456C9.95259 15.5456 7.475 13.0669 7.475 10.0206C7.475 6.97424 9.95259 4.49557 13 4.49557C16.0474 4.49557 18.525 6.97424 18.525 10.0206C18.525 13.0669 16.0474 15.5456 13 15.5456Z" fill="#3C6"/><path d="M13 6.6084C11.1183 6.6084 9.58752 8.13915 9.58752 10.0209C9.58752 11.9026 11.1183 13.4334 13 13.4334C14.8818 13.4334 16.4125 11.9026 16.4125 10.0209C16.4125 8.13915 14.8818 6.6084 13 6.6084ZM13 12.5667C11.596 12.5667 10.4542 11.4249 10.4542 10.0209C10.4542 8.6169 11.596 7.47507 13 7.47507C14.404 7.47507 15.5459 8.6169 15.5459 10.0209C15.5459 11.4249 14.404 12.5667 13 12.5667Z" fill="#3C6"/></svg>