<svg width="129" height="129" viewBox="0 0 129 129" fill="none" xmlns="http://www.w3.org/2000/svg"><path fill-rule="evenodd" clip-rule="evenodd" d="M64.5 129C100.122 129 129 100.122 129 64.5C129 28.8776 100.122 0 64.5 0C28.8776 0 0 28.8776 0 64.5C0 100.122 28.8776 129 64.5 129ZM64 115C91.6142 115 114 92.6142 114 65C114 37.3858 91.6142 15 64 15C36.3858 15 14 37.3858 14 65C14 92.6142 36.3858 115 64 115Z" fill="#3C6" fill-opacity=".05"/><circle cx="64.5" cy="64.5" r="41.5" fill="#FF9"/><path d="M81.3687 72.0812C82.1656 71.2406 82.6562 70.107 82.6562 68.8594C82.6562 66.6789 81.1602 64.8422 79.1406 64.3203V60.6562C79.1406 58.718 77.5633 57.1406 75.625 57.1406H71.707C71.1297 55.5125 69.9695 54.1586 68.4781 53.3313C69.275 52.4906 69.7656 51.357 69.7656 50.1094C69.7656 47.525 67.6625 45.4219 65.0781 45.4219C62.4831 45.4219 60.3125 47.5199 60.3125 50.1094C60.3125 51.318 60.7836 52.4594 61.6406 53.3383C60.1638 54.1553 58.97 55.492 58.3766 57.1406H54.375C52.4367 57.1406 50.8594 58.718 50.8594 60.6562V64.3203C48.8398 64.8422 47.3438 66.6789 47.3438 68.8594C47.3438 70.107 47.8344 71.2406 48.6312 72.0812C46.468 73.282 45 75.5898 45 78.2344V79.4062C45 80.0531 45.525 80.5781 46.1719 80.5781H57.8906C58.5375 80.5781 59.0625 80.0531 59.0625 79.4062V78.2344H70.9375V79.4062C70.9375 80.0531 71.4625 80.5781 72.1094 80.5781H83.8281C84.475 80.5781 85 80.0531 85 79.4062V78.2344C85 75.5898 83.532 73.282 81.3687 72.0812ZM80.3125 68.8594C80.3125 70.1516 79.2609 71.2031 77.9688 71.2031C76.6766 71.2031 75.625 70.1516 75.625 68.8594C75.625 67.5672 76.6766 66.5156 77.9688 66.5156C79.2609 66.5156 80.3125 67.5672 80.3125 68.8594ZM65.0781 47.7656C66.3703 47.7656 67.4219 48.8172 67.4219 50.1094C67.4219 51.4016 66.3703 52.4531 65.0781 52.4531C63.7656 52.4531 62.6562 51.3797 62.6562 50.1094C62.6562 48.8391 63.7656 47.7656 65.0781 47.7656ZM65.0781 54.7969C67.6625 54.7969 69.7656 56.9 69.7656 59.4844H60.3125C60.3125 56.9 62.45 54.7969 65.0781 54.7969ZM52.0312 66.5156C53.3234 66.5156 54.375 67.5672 54.375 68.8594C54.375 70.1516 53.3234 71.2031 52.0312 71.2031C50.7391 71.2031 49.6875 70.1516 49.6875 68.8594C49.6875 67.5672 50.7391 66.5156 52.0312 66.5156ZM47.3438 78.2344C47.3438 75.65 49.4469 73.5469 52.0312 73.5469C54.6156 73.5469 56.7188 75.65 56.7188 78.2344H47.3438ZM71.3398 75.8906H58.6602C58.0828 74.2625 56.9227 72.9086 55.4313 72.0812C56.2281 71.2406 56.7188 70.107 56.7188 68.8594C56.7188 66.6789 55.2227 64.8422 53.2031 64.3203V60.6562C53.2031 60.0102 53.7289 59.4844 54.375 59.4844H57.9688V60.6562C57.9688 61.3031 58.4937 61.8281 59.1406 61.8281H70.9375C71.5844 61.8281 72.1094 61.3031 72.1094 60.6562V59.4844H75.625C76.2711 59.4844 76.7969 60.0102 76.7969 60.6562V64.3203C74.7773 64.8422 73.2812 66.6789 73.2812 68.8594C73.2812 70.107 73.7719 71.2406 74.5688 72.0812C73.0773 72.9086 71.9172 74.2625 71.3398 75.8906ZM73.2812 78.2344C73.2812 75.65 75.3844 73.5469 77.9688 73.5469C80.5531 73.5469 82.6562 75.65 82.6562 78.2344H73.2812Z" fill="#855935"/></svg>