<svg width="129" height="129" viewBox="0 0 129 129" fill="none" xmlns="http://www.w3.org/2000/svg"><path fill-rule="evenodd" clip-rule="evenodd" d="M64.5 129C100.122 129 129 100.122 129 64.5C129 28.8776 100.122 0 64.5 0C28.8776 0 0 28.8776 0 64.5C0 100.122 28.8776 129 64.5 129ZM64 115C91.6142 115 114 92.6142 114 65C114 37.3858 91.6142 15 64 15C36.3858 15 14 37.3858 14 65C14 92.6142 36.3858 115 64 115Z" fill="#FF9" fill-opacity=".5"/><circle cx="64.5" cy="64.5" r="41.5" fill="#FF9"/><g clip-path="url(#clip0)"><path d="M77.8181 48.2091C77.1528 48.0885 76.4448 48.109 75.7409 48.2652L76.2228 45.6952C76.2895 45.3394 76.0077 45 75.6458 45H54.3542C53.9923 45 53.7105 45.3394 53.7773 45.6952L54.2591 48.2648C53.5563 48.1082 52.851 48.0878 52.182 48.2091C50.2234 48.5643 48.1309 50.2407 48.1309 53.8805C48.1309 56.8013 50.3161 59.8557 53.1056 60.8343C53.6924 61.0402 54.2785 61.1446 54.848 61.1446C54.8481 61.1446 54.8481 61.1446 54.8483 61.1446C55.4698 61.1446 56.0586 61.0227 56.606 60.782L56.7684 61.6479C57.2643 64.2933 59.5777 66.2134 62.2694 66.2134H62.5344V74.0119L57.2578 76.357C57.0437 76.4506 56.8984 76.6627 56.8984 76.8984V80.0686H54.9805C54.6562 80.0686 54.3934 80.3315 54.3934 80.6557V84.413C54.3934 84.7373 54.6562 85.0002 54.9805 85.0002H75.0196C75.3439 85.0002 75.6067 84.7373 75.6067 84.413V80.6557C75.6067 80.3315 75.3439 80.0686 75.0196 80.0686H73.1018V76.8984C73.1018 76.6654 72.957 76.4473 72.7423 76.357L67.4658 74.0119V66.2133H67.7308C70.4223 66.2133 72.7358 64.2932 73.2317 61.6479L73.3941 60.782C73.9416 61.0227 74.5305 61.1446 75.1522 61.1445C75.7215 61.1445 76.3077 61.0401 76.8945 60.8342C79.6841 59.8558 81.8693 56.8013 81.8693 53.8805C81.8692 50.2407 79.7766 48.5643 77.8181 48.2091ZM75.1288 51.8677C75.8137 51.3384 76.6156 51.0938 77.2734 51.2131C78.6159 51.4565 78.8164 52.9888 78.8164 53.8806C78.8164 55.6747 77.2709 57.4671 75.884 57.9537C75.0846 58.2339 74.4926 58.0894 74.02 57.4987C74.0173 57.4954 74.0142 57.4924 74.0115 57.4891L75.0567 51.9147C75.0814 51.9006 75.1057 51.8855 75.1288 51.8677ZM54.943 51.9126L55.9885 57.4891C55.9858 57.4923 55.9827 57.4953 55.98 57.4987C55.5075 58.0893 54.9151 58.2338 54.116 57.9536C52.729 57.467 51.1836 55.6747 51.1836 53.8805C51.1836 52.9888 51.3841 51.4564 52.7267 51.213C53.3818 51.0941 54.1809 51.3367 54.8641 51.8621C54.8893 51.8816 54.9159 51.8978 54.943 51.9126ZM54.8482 59.9705C54.8481 59.9705 54.848 59.9705 54.848 59.9705C54.4113 59.9705 53.956 59.8883 53.4943 59.7263C51.1451 58.9023 49.3049 56.3345 49.3049 53.8805C49.3049 50.9635 50.8993 49.6351 52.3914 49.3645C53.0609 49.243 53.7857 49.3078 54.5 49.5502L54.6539 50.3709C53.9445 50.0471 53.2011 49.9337 52.5172 50.0577C50.947 50.3425 50.0095 51.7716 50.0095 53.8806C50.0095 56.2752 51.9394 58.4344 53.7275 59.0616C54.1206 59.1995 54.4963 59.268 54.8513 59.268C55.3616 59.268 55.8287 59.1258 56.2428 58.8453L56.3812 59.5837C55.9142 59.8398 55.3996 59.9705 54.8482 59.9705ZM74.4325 81.2427V83.8259H55.5675V81.2427H74.4325ZM71.9276 80.0685H58.0724V77.4853H71.9276V80.0685ZM69.7482 76.3112H60.2518L63.2459 74.9805H66.7541L69.7482 76.3112ZM72.0776 61.4316C71.6857 63.5219 69.8576 65.0391 67.7307 65.0391H66.8787C66.5544 65.0391 66.2916 65.302 66.2916 65.6262V73.8062H63.7084V65.6262C63.7084 65.302 63.4455 65.0391 63.1213 65.0391H62.2692C60.1423 65.0391 58.3142 63.5219 57.9223 61.4315L55.0616 46.1741H74.9384L72.0776 61.4316ZM76.5056 59.7263C76.0441 59.8883 75.5887 59.9704 75.152 59.9705C74.6004 59.9705 74.0857 59.8398 73.6187 59.5836L73.7571 58.8452C74.1712 59.1257 74.6383 59.268 75.1487 59.268C75.5036 59.268 75.8795 59.1995 76.2725 59.0616C78.0606 58.4343 79.9905 56.2752 79.9905 53.8805C79.9905 51.7715 79.053 50.3425 77.483 50.0577C76.7989 49.9337 76.0554 50.0469 75.3461 50.3706L75.5002 49.5492C75.5023 49.5485 75.5046 49.5481 75.5068 49.5473C76.2186 49.3074 76.9453 49.2441 77.6087 49.3645C79.1007 49.6351 80.6951 50.9635 80.6951 53.8805C80.695 56.3345 78.8548 58.9023 76.5056 59.7263Z" fill="#F26A76"/></g><defs><clipPath id="clip0"><path fill="#fff" d="M45 45H85V85H45z"/></clipPath></defs></svg>