<svg width="129" height="129" viewBox="0 0 129 129" fill="none" xmlns="http://www.w3.org/2000/svg"><path fill-rule="evenodd" clip-rule="evenodd" d="M64.5 129C100.122 129 129 100.122 129 64.5C129 28.8776 100.122 0 64.5 0C28.8776 0 0 28.8776 0 64.5C0 100.122 28.8776 129 64.5 129ZM64 115C91.6142 115 114 92.6142 114 65C114 37.3858 91.6142 15 64 15C36.3858 15 14 37.3858 14 65C14 92.6142 36.3858 115 64 115Z" fill="#3C6" fill-opacity=".05"/><circle cx="64.5" cy="64.5" r="41.5" fill="#FF9"/><path d="M83.1984 61.5445L78.4562 59.9633C78.2695 59.432 78.0516 58.9078 77.8055 58.3969L80.0414 53.9227C80.2672 53.4719 80.1789 52.9273 79.8227 52.5703L76.5078 49.2562C76.1508 48.8992 75.6063 48.8109 75.1555 49.0367L70.6812 51.2734C70.1711 51.0266 69.6484 50.8094 69.118 50.6234L67.5352 45.8062C67.3773 45.325 66.9281 45 66.4219 45H61.7344C61.2281 45 60.7789 45.325 60.6211 45.8062L59.0383 50.6234C58.5078 50.8094 57.9852 51.0266 57.475 51.2734L53.0008 49.0367C52.55 48.8109 52.0047 48.8992 51.6484 49.2562L48.3344 52.5703C47.9773 52.9273 47.8891 53.4719 48.1148 53.9227L50.3516 58.3969C50.1055 58.9062 49.8883 59.4281 49.7023 59.9578L44.8109 61.5414C44.3273 61.6977 44 62.1484 44 62.6562V67.3438C44 67.8516 44.3273 68.3023 44.8109 68.4586L49.7023 70.0422C49.8883 70.5719 50.1055 71.0938 50.3516 71.6031L48.1148 76.0766C47.8891 76.5281 47.9773 77.0727 48.3336 77.4297L51.6484 80.7437C52.0047 81.1008 52.55 81.1891 53.0016 80.9633L57.475 78.7266C57.9852 78.9727 58.5086 79.1906 59.0383 79.3766L60.6211 84.1937C60.7789 84.675 61.2281 85 61.7344 85H66.4219C66.9281 85 67.3773 84.675 67.5352 84.1937L69.118 79.3766C69.6477 79.1906 70.1711 78.9727 70.6812 78.7266L75.1547 80.9633C75.6063 81.1891 76.1508 81.1008 76.5078 80.7437L79.8227 77.4297C80.1789 77.0727 80.2672 76.5281 80.0414 76.0766L77.8055 71.6031C78.0516 71.0922 78.2695 70.568 78.4562 70.0367L83.1984 68.4555C83.6773 68.2961 84 67.8484 84 67.3438V62.6562C84 62.1516 83.6773 61.7039 83.1984 61.5445ZM81.6562 66.4992L77.1562 67.9992C76.7961 68.1195 76.5164 68.4062 76.4055 68.7687C76.1672 69.55 75.8484 70.3172 75.4586 71.0484C75.2805 71.3836 75.275 71.7844 75.4453 72.1234L77.568 76.3695L75.4477 78.4898L71.2023 76.3664C70.8625 76.1969 70.4625 76.2023 70.1273 76.3805C69.3945 76.7703 68.6273 77.0891 67.8469 77.3273C67.4828 77.4391 67.1945 77.7203 67.0758 78.0828L65.5734 82.6562H62.5828L61.0805 78.0828C60.9617 77.7203 60.6734 77.4391 60.3094 77.3273C59.5289 77.0891 58.7617 76.7703 58.0289 76.3805C57.6945 76.2023 57.2937 76.1969 56.9539 76.3664L52.7086 78.4898L50.5883 76.3695L52.7109 72.1234C52.8813 71.7844 52.8758 71.3836 52.6977 71.0484C52.3078 70.3172 51.9891 69.55 51.7508 68.7687C51.6391 68.4023 51.3555 68.1141 50.9906 67.9961L46.3438 66.4914V63.5086L50.9906 62.0039C51.3555 61.8859 51.6391 61.5977 51.7508 61.2312C51.9891 60.4508 52.3078 59.6836 52.6977 58.9508C52.8758 58.6164 52.8813 58.2156 52.7109 57.8758L50.5883 53.6305L52.7086 51.5102L56.9539 53.6328C57.2937 53.8031 57.6945 53.7977 58.0289 53.6195C58.7617 53.2297 59.5289 52.9109 60.3094 52.6727C60.6734 52.5609 60.9617 52.2797 61.0805 51.9172L62.5828 47.3438H65.5734L67.0758 51.9172C67.1945 52.2797 67.4828 52.5609 67.8469 52.6727C68.6273 52.9109 69.3945 53.2297 70.1273 53.6195C70.4617 53.7977 70.8625 53.8031 71.2023 53.6328L75.4477 51.5102L77.568 53.6305L75.4453 57.8758C75.275 58.2156 75.2805 58.6164 75.4586 58.9508C75.8484 59.6828 76.1672 60.45 76.4055 61.2312C76.5164 61.5938 76.7961 61.8805 77.1562 62.0008L81.6562 63.5008V66.4992Z" fill="#855935"/><path d="M64 54.4531C58.1844 54.4531 53.4531 59.1844 53.4531 65C53.4531 70.8156 58.1844 75.5469 64 75.5469C69.8156 75.5469 74.5469 70.8156 74.5469 65C74.5469 59.1844 69.8156 54.4531 64 54.4531ZM64 73.2031C59.4766 73.2031 55.7969 69.5234 55.7969 65C55.7969 60.4766 59.4766 56.7969 64 56.7969C68.5234 56.7969 72.2031 60.4766 72.2031 65C72.2031 69.5234 68.5234 73.2031 64 73.2031Z" fill="#855935"/><path d="M64 59.1406C60.7695 59.1406 58.1406 61.7695 58.1406 65C58.1406 68.2305 60.7695 70.8594 64 70.8594C67.2312 70.8594 69.8594 68.2305 69.8594 65C69.8594 61.7695 67.2312 59.1406 64 59.1406ZM64 68.5156C62.0617 68.5156 60.4844 66.9383 60.4844 65C60.4844 63.0617 62.0617 61.4844 64 61.4844C65.9383 61.4844 67.5156 63.0617 67.5156 65C67.5156 66.9383 65.9383 68.5156 64 68.5156Z" fill="#855935"/></svg>