<svg width="26" height="20" viewBox="0 0 26 20" fill="none" xmlns="http://www.w3.org/2000/svg"><path d="M23.904 19.2417H2.09596C0.940668 19.2417 0 18.3019 0 17.1457V2.85378C0 1.69764 0.940668 0.757812 2.09596 0.757812H23.904C25.0593 0.757812 26 1.69764 26 2.85378V17.1457C26 18.3019 25.0593 19.2417 23.904 19.2417ZM2.09596 1.5962C1.40262 1.5962 0.838385 2.16043 0.838385 2.85378V17.1457C0.838385 17.8391 1.40262 18.4033 2.09596 18.4033H23.904C24.5974 18.4033 25.1616 17.8391 25.1616 17.1457V2.85378C25.1616 2.16043 24.5974 1.5962 23.904 1.5962H2.09596Z" fill="#3C6"/><path d="M13 12.1062C12.4425 12.1062 11.8849 11.921 11.4607 11.5512L0.746993 2.21413C0.572609 2.06154 0.554164 1.79745 0.70675 1.62307C0.859336 1.447 1.12427 1.43024 1.29865 1.58198L12.0115 10.9191C12.5481 11.3861 13.4536 11.3852 13.9884 10.9191L24.6988 1.58282C24.8724 1.4294 25.1365 1.447 25.2907 1.6239C25.4433 1.79829 25.4249 2.06238 25.2505 2.21497L14.5393 11.5504C14.115 11.9209 13.5575 12.1062 13 12.1062Z" fill="#3C6"/></svg>