<svg width="44" height="44" viewBox="0 0 44 44" fill="none" xmlns="http://www.w3.org/2000/svg"><circle cx="22" cy="22" r="22" fill="#fff" fill-opacity=".2"/><path d="M12 20.3235C12 24.914 15.7346 28.6445 20.321 28.6445C22.4341 28.6445 24.3669 27.8501 25.837 26.5479L31.14 31.8509C31.2383 31.9492 31.3653 31.9983 31.4963 31.9983C31.6274 31.9983 31.7543 31.9492 31.8526 31.8509C32.0491 31.6544 32.0491 31.3391 31.8526 31.1425L26.5455 25.8395C27.8477 24.3694 28.6421 22.4406 28.6421 20.3235C28.6421 15.733 24.9075 12.0024 20.321 12.0024C15.7346 12.0024 12 15.733 12 20.3235ZM27.6388 20.3235C27.6388 24.3571 24.3546 27.6413 20.321 27.6413C16.2875 27.6413 13.0033 24.3571 13.0033 20.3235C13.0033 16.2899 16.2875 13.0057 20.321 13.0057C24.3546 13.0057 27.6388 16.2858 27.6388 20.3235Z" fill="#fff"/></svg>