<svg width="36" height="36" viewBox="0 0 36 36" fill="none" xmlns="http://www.w3.org/2000/svg"><circle cx="18" cy="18" r="18" fill="#3C6"/><g clip-path="url(#clip0)"><path d="M29.3702 24.5149L28.438 23.8938C30.5404 20.1959 30.5169 15.6588 28.3763 11.9829C26.2357 8.30697 22.3013 6.04727 18.0475 6.05079C17.8266 6.05079 17.6476 6.22982 17.6476 6.45071C17.6476 6.6716 17.8266 6.85064 18.0475 6.85064C22.0059 6.84768 25.6686 8.94517 27.6694 12.3607C29.6702 15.7762 29.7085 19.9969 27.7701 23.4482L24.511 21.2753C23.8945 20.8677 23.0683 21.0019 22.6125 21.5837L21.1991 23.403C21.0171 23.6426 20.6867 23.7121 20.4236 23.5662L20.1544 23.4178C19.2621 22.9314 18.1519 22.3259 15.9151 20.0883C13.6782 17.8506 13.0715 16.7396 12.5851 15.8489L12.4375 15.5798C12.2894 15.3167 12.3576 14.9848 12.5975 14.8015L14.4156 13.3869C14.9973 12.9311 15.1317 12.105 14.7244 11.4884L11.4849 6.63068C11.0674 6.00279 10.2298 5.81429 9.58356 6.20278L7.55225 7.42299C6.91401 7.79821 6.44575 8.40591 6.24567 9.11872C5.5142 11.7839 6.06448 16.3836 12.8403 23.1602C15.7918 26.1118 18.3295 27.8795 20.4751 28.8794C17.1726 29.6256 13.7101 28.8269 11.0681 26.7096C8.42606 24.5922 6.89231 21.3868 6.90116 18.0011C6.90116 17.7802 6.72213 17.6011 6.50124 17.6011C6.28035 17.6011 6.10131 17.7802 6.10131 18.0011C6.1075 24.5969 11.4517 29.9429 18.0476 29.9513C19.2832 29.9517 20.5114 29.7582 21.687 29.3778C22.7477 29.7739 23.8688 29.9842 25.0009 29.9993C25.6356 30.002 26.2679 29.9194 26.8806 29.7537C27.5936 29.5539 28.2014 29.0856 28.5764 28.4472L29.7978 26.4171C30.1869 25.7706 29.9984 24.9326 29.3702 24.5149ZM29.1102 26.0054L27.8916 28.0367C27.6222 28.4983 27.1844 28.8376 26.6702 28.9834C25.5068 29.3033 23.931 29.3433 21.9061 28.6134C21.874 28.5954 21.8395 28.582 21.8037 28.5735C19.564 27.742 16.7832 25.9698 13.4049 22.5928C6.90196 16.0901 6.34165 11.7911 7.01716 9.33033C7.1632 8.81628 7.50243 8.37858 7.9638 8.1089L9.99511 6.89029C10.2755 6.72156 10.639 6.80335 10.8202 7.07584L12.5799 9.71784L14.0569 11.9331C14.2338 12.2006 14.1757 12.5591 13.9234 12.757L12.1048 14.1716C11.5514 14.5947 11.3934 15.3604 11.7341 15.9681L11.8785 16.2305C12.3896 17.1679 13.0251 18.3342 15.3452 20.6538C17.6653 22.9735 18.8311 23.609 19.7681 24.1201L20.0309 24.2649C20.6385 24.6056 21.4042 24.4476 21.8274 23.8942L23.242 22.0756C23.44 21.8234 23.7983 21.7654 24.0659 21.9421L28.9231 25.1816C29.1957 25.362 29.2781 25.7249 29.1102 26.0054Z" fill="#fff"/></g><defs><clipPath id="clip0"><path fill="#fff" d="M6 6H30V30H6z"/></clipPath></defs></svg>