<svg width="136" height="136" viewBox="0 0 136 136" fill="none" xmlns="http://www.w3.org/2000/svg"><rect width="136" height="136" rx="40" fill="#3C6"/><rect x="15" y="15" width="107" height="107" rx="40" fill="#FF9"/><rect x="35" y="35" width="67" height="67" rx="33.5" fill="#F26A76"/><path fill-rule="evenodd" clip-rule="evenodd" d="M66.0417 56.1974L66.133 57.0026C62.1244 55.6282 61.6783 61.1984 61.6646 61.3545C61.6567 61.444 61.6607 61.5855 61.6428 61.6984C60.5773 62.2873 60.3109 62.181 59.9338 63.4114L60.2021 63.6368C61.0202 62.7504 60.9367 62.6754 62.2634 62.8132C61.4885 64.5168 61.3408 63.4774 60.4758 65.0465L60.7897 65.077L61.9953 65.3659C61.6907 65.6492 61.5585 65.8303 61.1945 66.3104C61.0118 66.5514 60.8831 66.747 60.7267 66.9531C60.5392 67.2004 60.3866 67.5039 60.3494 67.4259C60.3152 67.354 60.2113 67.5926 60.1624 67.6746L60.0591 66.2756L59.5306 66.6771L59.3195 64.9282L58.6784 67.0042C58.6767 67.0359 58.6931 67.1413 58.6923 67.1738C58.6651 68.2196 59.233 65.9202 58.6972 67.7401C58.4869 68.4546 58.081 68.5149 57.742 68.7449C59.11 69.6991 58.1841 68.2341 59.0864 69.9484C57.9675 70.577 57.1603 71.4179 56.5495 73.0346C56.3601 73.5357 56.3572 73.2824 56.2901 73.9946L56.2675 75.6386C56.164 76.1851 56.0231 76.6454 55.9306 77.3759C56.8949 76.9497 56.3842 77.2181 57.0831 76.6416C56.4732 77.6792 55.9669 79.0541 55.8636 80.8495C56.7778 80.4321 56.2451 80.2212 57.31 79.4526C56.7885 81.4506 56.489 82.739 56.8169 85.0036C57.2989 83.9541 57.8049 82.4033 58.1743 81.5021C57.8556 83.9829 57.588 85.2015 58.0235 87.7898L59.1345 84.2114C59.1617 84.1476 59.2155 84.0299 59.2616 83.9431C58.9991 86.2241 58.8677 87.3779 59.3588 89.6579L60.3807 85.5307L60.7015 89.3712C60.7354 89.2986 60.803 89.1756 60.843 89.0851L61.1868 88.1808C61.2275 88.0766 61.2657 87.9712 61.3025 87.877L61.6156 90.6299L62.6189 88.333L62.6555 91.8881L63.639 89.006L63.5483 93.6755L64.3454 91.5237C64.589 90.5849 64.5822 90.5093 65.0045 89.7621L65.1279 94.8271L65.734 92.9908C65.9937 91.4422 65.399 91.04 66.4529 91.5084L66.0622 92.7725L66.1655 95.1779L67.1408 92.5158C67.215 93.814 67.6584 96.328 68.7925 95.9657C69.5295 95.7302 68.9427 96.2161 69.5378 94.906C70.1771 97.2952 70.0851 95.6804 71.2759 96.025C71.2801 96.0264 71.8975 96.4264 72.0962 96.541L71.2183 94.0164C71.8064 94.8751 72.9825 95.9441 73.873 96.4013C72.6683 95.0492 72.9622 95.3889 72.2896 93.5918C72.6988 94.0659 74.5498 95.6781 75.4618 96.0207C74.7444 94.8857 74.8529 95.3578 74.3968 94.0732L77.0044 95.7352C77.0715 95.0447 76.3648 95.669 77.024 94.634L80.5795 95.3346C80.5782 95.1109 80.4931 94.8634 80.4649 94.9276L79.867 93.9001C79.6655 93.5311 79.5711 93.3242 79.3966 92.9069C79.731 93.2592 81.448 94.5496 82.1792 94.8487C81.3492 93.6604 81.6091 94.3905 81.152 92.9126L83.0872 94.1339C82.1254 93.0395 82.6846 94.0133 82.1079 92.4964C83.4503 93.0704 84.0854 94.0038 85.5574 94.003L84.404 92.6027L86.277 93.4527C85.9616 92.371 85.9184 92.847 85.5616 91.6948L88.4255 93.0203C87.4435 90.9361 88.4345 92.9034 86.673 91.1706L86.27 90.6925C87.5068 91.1234 88.1254 90.9335 88.9191 91.6631C90.0867 92.7364 88.9495 92.8222 91.3519 92.6513L90.3933 91.3615L91.8275 90.7814L90.7052 90.0631C90.6325 90.0054 90.5229 89.9106 90.4389 89.8243C91.7915 89.236 90.9037 89.9406 91.6042 88.9336C89.9289 88.7496 90.1207 88.7407 89.4488 88.201C89.5151 88.1306 89.6114 87.9158 89.6441 87.9859C89.6764 88.0549 89.7923 87.8203 89.8372 87.7745C89.8849 87.7256 90.1315 87.4626 90.2178 87.3814C90.8162 86.8183 90.5782 86.986 91.246 86.5692C90.9949 86.4899 90.0857 86.4795 89.4204 85.788C90.5157 85.3764 90.8635 84.8144 91.594 83.8178C90.4527 84.455 90.3574 84.3372 89.7749 83.8965C90.5691 83.3012 90.7358 83.2364 91.1812 82.0324L91.0301 81.8819L90.0486 82.2795L89.3348 82.4397L89.9664 81.7531C92.6311 78.4691 86.7275 76.1674 84.3298 75.5266C80.6062 74.5316 76.5432 75.13 72.7559 75.5361L73.3017 74.8334C73.3528 74.7768 73.4312 74.6908 73.4876 74.6315C73.8639 74.2355 73.878 74.2864 74.2394 73.9443L70.985 74.1589L72.2365 72.5353L69.416 72.5528C69.4078 72.5262 69.3774 72.4081 69.3693 72.3819L67.6135 73.2763C67.3464 73.5906 67.4282 73.5639 67.0048 73.9043C66.9523 73.9464 66.4657 74.1749 66.3876 74.21C66.599 72.0724 66.575 73.418 66.9057 73.0573C67.4167 71.8404 68.3094 70.1109 69.3435 69.4787C69.2895 69.4389 69.1882 69.3263 69.167 69.3911L68.2995 68.9751C68.7079 67.99 69.1108 67.1514 69.6825 66.4468C70.6473 65.2579 71.0169 65.731 71.5649 64.4923C70.4566 63.8528 70.8717 63.8724 69.814 65.0623C69.2867 65.6556 68.7696 66.161 68.2614 66.681C69.5185 61.0508 72.0962 63.6655 72.1065 63.6695C72.7761 63.9229 73.6782 63.8554 74.5597 63.9639L72.9474 65.068C72.901 65.0981 72.8022 65.152 72.7357 65.2053C73.8177 65.7811 74.4035 65.5615 75.658 65.2469C75.076 67.031 75.2004 65.712 74.3627 67.0399L77.7742 67.4711C77.1883 68.986 77.6954 67.9663 76.2937 69.028C77.443 69.006 77.5729 69.0443 78.5671 68.4967L80.1425 67.4916C80.2096 67.4514 80.3197 67.3833 80.4113 67.3365C79.6835 69.0863 79.8248 68.5448 78.965 69.6213C80.2334 69.3168 81.4462 68.2786 82.1821 67.4755C82.2623 67.3325 82.4538 66.8564 82.5624 66.7516L82.5964 67.4846C82.1826 68.9095 81.6192 69.701 80.8104 70.7952C82.2622 70.1769 83.5306 68.1125 84.6727 66.8988L83.9501 69.5642C85.4889 68.8955 84.4248 68.4768 86.5359 67.3321C85.7668 70.7338 83.6003 71.1655 81.2015 72.382L81.8464 72.5251C82.7595 72.5057 84.3198 71.6936 85.1135 71.2208C86.5127 70.3874 87.3459 69.5834 88.7426 68.7848L87.0658 70.8885C86.3109 71.7147 85.9478 71.8932 85.4991 72.8043C87.6552 71.9137 89.4783 69.3779 91.6066 67.7162C90.9115 69.6281 89.9741 69.6452 89.1648 71.767C90.3683 71.1609 90.7261 70.9018 91.4429 69.9575C92.2732 68.8635 92.2103 68.6016 93.2863 67.8143C92.6537 68.8376 92.5389 69.2243 92.0849 70.0282C93.2653 69.7558 94.6335 67.1352 96.3409 65.3246C96.0721 66.1451 96.1825 65.2965 96.0574 66.2342C96.0506 66.2852 96.0378 66.4061 96.0345 66.4566L96.0632 66.8857C96.0651 66.9202 96.0737 67.0297 96.0998 67.0936C96.5148 65.9609 97.4146 64.6214 98.3126 64.2131L97.6598 66.2593L99.5345 64.9893C99.7753 65.4308 99.2326 65.2223 99.8132 65.3749C100.874 64.0243 101.219 63.468 101.911 63.8258C105.027 65.4376 99.8396 63.8624 102.688 64.372C103.356 63.5189 103.074 63.9024 103.863 63.3093C103.901 63.3697 103.92 63.4245 103.929 63.5212C104.104 65.3134 104.707 63.5344 107.245 63.7547L107.683 63.8028C107.723 63.8069 107.818 63.8358 107.884 63.8196C108.961 60.7689 106.72 59.4105 104.223 59.6596C102.173 59.8642 99.784 60.9032 97.7289 61.4685C95.2798 62.1421 93.2267 62.5669 90.6135 62.7447C87.5415 62.9537 85.607 63.1682 84.5779 60.4206C85.1552 60.7749 85.3745 61.0315 86.0781 61.4421L86.4015 60.2613L89.5157 61.4767C89.0605 60.5489 87.7219 59.2762 86.5644 58.9883C87.9791 58.9214 88.4703 59.0933 89.5021 59.8684C88.9039 58.3793 88.7099 59.0203 88.3615 57.6426L89.3818 58.1021C88.3833 56.2397 86.7577 55.7215 86.3768 53.1391C88.092 54.1098 87.7545 54.7142 88.8947 55.8666C88.4536 54.3479 87.6187 53.1912 87.4686 52.0271C88.0647 52.1767 88.2989 52.1828 88.434 52.8647C88.3089 51.7503 86.5484 49.9391 85.9641 48.2414C85.9464 47.5673 86.2903 47.8943 86.6906 47.2959C87.0052 46.8257 86.9995 46.5532 87.3411 45.988L87.5443 49.0827L88.5743 46.9568C89.1154 47.8354 88.7021 46.6786 88.849 47.8075C89.0271 49.1757 88.5063 49.1523 88.9883 50.498C89.7547 48.9551 89.3817 49.2127 90.5723 47.9699C90.1366 49.6934 89.3946 50.5443 90.0298 52.388L90.4612 51.101C91.1671 53.0321 91.6336 53.9179 92.9892 54.7372C92.3958 52.6972 91.6632 52.2664 91.7883 49.9976C91.927 50.5007 93.9778 53.6418 94.3683 54.4711C93.8028 51.5994 92.0428 48.5877 91.8012 45.4355L94.642 51.067C94.5831 48.6015 93.2552 46.9818 93.2003 44.4157L94.3861 46.8048C94.4698 45.0729 94.3919 43.9402 94.9004 42.6944L95.253 45.1198L96.587 42.4772C96.6036 42.5727 96.622 42.7145 96.6344 42.7912C96.6466 42.8674 96.6473 43.0045 96.6785 43.1034L97.494 41.0446C97.6551 41.6952 97.2954 41.1317 97.7086 42.0755L98.7185 37.8249L99.1743 42.8349C98.9869 42.33 98.8963 42.8899 99.0639 42.0629C99.2975 40.9105 99.107 41.3958 99.6449 40.7037C99.4686 38.9268 99.2726 36.1844 99.9826 34.9496C100.483 35.7956 100.486 35.145 100.389 36.5568C99.9207 34.6315 100.608 35.8451 100.929 35.426L100.46 33.1622C101.703 32.5293 100.841 33.7727 101.456 32.7893L100.306 26.8481C98.7929 26.4801 98.8703 27.3492 98.2454 27.1305C97.7885 25.6259 98.5267 25.6122 99.3807 24.7534L98.3642 24.5078C94.5855 24.1222 86.777 24.9997 83.4853 27.5091C82.0657 28.5912 81.5358 29.7503 80.4303 30.735C80.8099 32.0115 80.9183 30.6577 80.6279 31.9233C80.6223 31.9478 80.5965 32.0482 80.5918 32.0737C80.5246 32.4356 81.3466 32.6804 79.5289 33.4623C79.7621 34.3658 79.7641 34.1145 79.8252 34.2909C80.451 36.1023 80.019 33.3467 79.9342 34.6509L78.5838 35.7431C78.5177 37.4442 79.3969 35.5295 78.9169 36.6511C78.677 37.2119 77.9553 37.6076 77.8118 37.846C77.2915 38.7109 77.5513 37.238 77.7295 38.3049L77.8907 38.5692C78.1736 39.3686 77.8659 39.1779 77.16 40.3247C77.9051 40.8726 78.0335 40.6076 79.0091 40.2868C78.416 42.0197 77.4114 43.5948 77.0444 45.78C76.8234 45.2719 76.5744 45.594 77.1043 43.4329C76.7715 43.5643 75.8241 43.6594 75.7271 44.7826C75.6406 45.7827 76.1124 44.615 75.4161 47.0707L75.2283 48.3158C75.1746 49.3179 74.9196 49.1578 73.992 50.0003C73.3517 50.5821 73.2354 50.8791 72.6421 51.4264L70.2135 50.8277C69.3101 50.9498 70.0749 50.6144 69.8803 51.0723C69.4921 51.9861 69.6662 50.8372 70.0913 52.2934C68.0041 53.209 65.5283 54.0086 66.0417 56.1974Z" fill="#000"/><path fill-rule="evenodd" clip-rule="evenodd" d="M99.1742 42.8349L98.7185 37.8249L97.7085 42.0756C97.2953 41.1318 97.655 41.6952 97.4939 41.0446L96.6784 43.1034C96.6472 43.0045 96.6465 42.8674 96.6343 42.7913C96.6219 42.7145 96.6035 42.5727 96.5869 42.4772L95.2529 45.1198L94.9003 42.6944C94.3918 43.9402 94.4697 45.0729 94.386 46.8048L93.2002 44.4157C93.2551 46.9818 94.583 48.6015 94.6419 51.067L91.8011 45.4355C92.0427 48.5877 93.8027 51.5994 94.3682 54.4711C93.9777 53.6418 91.9269 50.5007 91.7883 49.9976C91.6631 52.2664 92.3957 52.6972 92.9891 54.7372C91.6335 53.9179 91.167 53.0321 90.4611 51.101L90.0297 52.388C89.3945 50.5443 90.1365 49.6934 90.5722 47.9699C89.3816 49.2127 89.7546 48.9551 88.9882 50.4981C88.5062 49.1523 89.027 49.1757 88.8489 47.8075C88.702 46.6786 89.1153 47.8354 88.5742 46.9568L87.5442 49.0827L87.341 45.988C86.9994 46.5532 87.0051 46.8258 86.6905 47.2959C86.2902 47.8943 85.9463 47.5673 85.964 48.2414C86.5483 49.9391 88.3088 51.7503 88.4339 52.8647C88.2988 52.1828 88.0646 52.1767 87.4685 52.0271C87.6186 53.1912 88.4535 54.3479 88.8946 55.8666C87.7544 54.7142 88.0919 54.1098 86.3767 53.1391C86.7576 55.7215 88.3832 56.2397 89.3817 58.1021L88.3614 57.6426C88.7098 59.0204 88.9038 58.3793 89.502 59.8684C88.4702 59.0933 87.979 58.9214 86.5643 58.9883C87.7218 59.2762 89.0604 60.5489 89.5156 61.4767L86.4014 60.2613L86.078 61.4421C85.3744 61.0315 85.1551 60.7749 84.5778 60.4206C85.6069 63.1682 87.5414 62.9537 90.6134 62.7447C93.2266 62.5669 95.2797 62.1421 97.7288 61.4685C99.7839 60.9032 102.173 59.8642 104.223 59.6596C106.72 59.4105 108.961 60.7689 107.884 63.8196C107.818 63.8358 107.722 63.8069 107.683 63.8028L107.245 63.7547C104.707 63.5344 104.104 65.3134 103.929 63.5212C103.92 63.4245 103.901 63.3697 103.863 63.3093C103.074 63.9024 103.356 63.5189 102.688 64.372C99.8395 63.8624 105.027 65.4376 101.911 63.8258C101.219 63.4681 100.874 64.0243 99.8131 65.3749C99.2326 65.2223 99.7752 65.4308 99.5344 64.9893L97.6597 66.2594L98.3125 64.2131C97.4145 64.6214 96.5147 65.9609 96.0997 67.0936C96.0736 67.0297 96.065 66.9202 96.0632 66.8857L96.0344 66.4566C96.0377 66.4061 96.0505 66.2852 96.0573 66.2342C96.1824 65.2965 96.072 66.1451 96.3408 65.3246C94.6334 67.1352 93.2652 69.7558 92.0848 70.0282C92.5388 69.2243 92.6536 68.8377 93.2862 67.8143C92.2102 68.6016 92.2731 68.8635 91.4428 69.9575C90.726 70.9018 90.3682 71.1609 89.1647 71.767C89.974 69.6452 90.9114 69.6281 91.6065 67.7162C89.4782 69.3779 87.6551 71.9137 85.499 72.8043C85.9478 71.8932 86.3108 71.7147 87.0657 70.8885L88.7425 68.7848C87.3458 69.5834 86.5126 70.3874 85.1134 71.2208C84.3197 71.6936 82.7594 72.5057 81.8463 72.5251L81.2014 72.382C83.6002 71.1655 85.7667 70.7338 86.5358 67.3321C84.4247 68.4768 85.4888 68.8955 83.95 69.5642L84.6726 66.8988C83.5305 68.1125 82.2621 70.1769 80.8103 70.7952C81.6191 69.701 82.1825 68.9095 82.5963 67.4846L82.182 67.4755C81.4461 68.2787 80.2333 69.3168 78.9649 69.6213C79.8247 68.5448 79.6834 69.0863 80.4112 67.3365C80.3196 67.3833 80.2095 67.4514 80.1424 67.4916L78.567 68.4967C77.5728 69.0443 77.4429 69.006 76.2936 69.028C77.6953 67.9663 77.1882 68.986 77.7741 67.4711L74.3626 67.0399C75.2003 65.712 75.0759 67.031 75.6579 65.2469C74.4034 65.5615 73.8176 65.7811 72.7356 65.2053C72.8021 65.152 72.9009 65.0981 72.9473 65.068L74.5596 63.964C73.6781 63.8554 72.776 63.9229 72.1064 63.6695C72.0961 63.6655 69.5184 61.0508 68.2613 66.681C68.7695 66.161 69.2866 65.6556 69.8139 65.0623C70.8716 63.8724 70.4565 63.8528 71.5648 64.4923C71.0168 65.731 70.6472 65.2579 69.6824 66.4468C69.1106 67.1514 68.7078 67.99 68.2994 68.9751L69.1669 69.3911C69.1881 69.3263 69.2894 69.4389 69.3434 69.4787C68.3093 70.1109 67.4166 71.8404 66.9056 73.0573L67.6134 73.2763L69.3692 72.3819C69.3773 72.4081 69.4077 72.5262 69.4159 72.5528L72.2364 72.5354L70.9849 74.1589L74.2393 73.9443C73.8779 74.2864 73.8638 74.2355 73.4875 74.6315C73.4311 74.6908 73.3527 74.7768 73.3016 74.8334L72.7558 75.5361C76.5431 75.13 80.6061 74.5316 84.3297 75.5266C86.7274 76.1674 92.631 78.4691 89.9663 81.7531L90.0485 82.2796L91.03 81.8819L91.6116 81.4177L91.1811 82.0324C90.7357 83.2364 90.569 83.3012 89.7748 83.8965C90.3573 84.3372 90.4526 84.455 91.5939 83.8178C90.8634 84.8144 90.5156 85.3764 89.4203 85.788C90.0856 86.4795 90.9948 86.4899 91.2459 86.5692C90.5782 86.986 90.8161 86.8183 90.2177 87.3814C90.1314 87.4626 89.8848 87.7256 89.8371 87.7745C89.7922 87.8203 89.6763 88.0549 89.644 87.9859C89.6113 87.9158 89.515 88.1306 89.4487 88.201C90.1206 88.7407 89.9288 88.7496 91.6041 88.9336C90.9036 89.9406 91.7914 89.236 90.4388 89.8243C90.5228 89.9106 90.6324 90.0054 90.7051 90.0632L91.8274 90.7814L90.3932 91.3615L91.3518 92.6513C88.9494 92.8222 90.0866 92.7364 88.919 91.6631C88.1253 90.9335 87.5067 91.1234 86.2699 90.6925L86.6729 91.1706C88.4344 92.9034 87.4434 90.9361 88.4254 93.0203L85.5615 91.6948C85.9183 92.847 85.9615 92.371 86.2769 93.4527L84.4039 92.6027L85.5573 94.003C84.0853 94.0038 83.4502 93.0704 82.1078 92.4964C82.6845 94.0133 82.1253 93.0395 83.0871 94.134L81.1519 92.9126C81.609 94.3905 81.3491 93.6604 82.1791 94.8487C81.4479 94.5496 79.7309 93.2592 79.3965 92.9069C79.571 93.3242 79.6654 93.5311 79.8669 93.9001L80.4648 94.9276C80.493 94.8634 80.5781 95.1109 80.5794 95.3346L77.0239 94.634C76.3647 95.669 77.0714 95.0447 77.0043 95.7352L74.3967 94.0733C74.8528 95.3578 74.7443 94.8858 75.4617 96.0207C74.5497 95.6781 72.6987 94.0659 72.2895 93.5918C72.9621 95.3889 72.6682 95.0492 73.8729 96.4013C72.9824 95.9441 71.8063 94.8751 71.2182 94.0164L72.0961 96.541C71.8974 96.4264 71.28 96.0264 71.2758 96.025C70.085 95.6804 70.177 97.2952 69.5377 94.906C68.9426 96.2161 69.5294 95.7302 68.7924 95.9657C67.6583 96.328 67.2149 93.814 67.1407 92.5158L66.1654 95.1779L66.0621 92.7725L65.7339 92.9908L65.1278 94.8271L65.0044 89.7621C64.5821 90.5093 64.5889 90.5849 64.3453 91.5237L63.5482 93.6755L63.6389 89.006L62.6554 91.8881L62.6188 88.333L61.6155 90.6299L61.3024 87.877C61.2656 87.9712 61.2274 88.0766 61.1867 88.1808L60.8429 89.0851C60.8029 89.1756 60.7353 89.2986 60.7014 89.3712L60.3806 85.5307L59.3587 89.6579C58.8676 87.3779 58.999 86.2241 59.2615 83.9431C59.2154 84.03 59.1616 84.1476 59.1344 84.2114L58.0234 87.7898C57.5879 85.2015 57.8555 83.9829 58.1742 81.5021C57.8048 82.4033 57.2988 83.9541 56.8168 85.0036C56.4889 82.739 56.7884 81.4506 57.3099 79.4526C56.245 80.2212 56.7777 80.4321 55.8635 80.8495C55.9668 79.0541 56.473 77.6792 57.083 76.6416C56.3841 77.2181 56.8948 76.9497 55.9305 77.3759C56.023 76.6454 56.1639 76.1851 56.2674 75.6387L56.29 73.9946C56.3571 73.2824 56.36 73.5357 56.5494 73.0346C57.1602 71.4179 57.9674 70.577 59.0863 69.9485C58.184 68.2341 59.1099 69.6991 57.7418 68.7449C58.0809 68.5149 58.4868 68.4546 58.6971 67.7401C59.2329 65.9202 58.665 68.2197 58.6922 67.1738C58.693 67.1413 58.6766 67.0359 58.6783 67.0042L59.3193 64.9282C59.5216 63.7148 59.3146 64.1543 59.9337 63.4114C60.3108 62.181 60.5772 62.2873 61.6427 61.6985C61.6606 61.5855 61.6566 61.444 61.6645 61.3545C61.6782 61.1984 62.1243 55.6282 66.1329 57.0026L66.0416 56.1974C65.5282 54.0086 68.004 53.209 70.0912 52.2934C69.6661 50.8372 69.4921 51.9861 69.8802 51.0723C70.0748 50.6144 69.31 50.9498 70.2134 50.8277L72.642 51.4264C73.2353 50.8791 73.3516 50.5821 73.9919 50.0003C74.9195 49.1578 75.1745 49.3179 75.2282 48.3158L75.416 47.0707C76.1123 44.615 75.6405 45.7827 75.727 44.7826C75.824 43.6594 76.7714 43.5643 77.1042 43.4329C76.5743 45.594 76.8233 45.2719 77.0443 45.78C77.4113 43.5948 78.4159 42.0197 79.009 40.2868C78.0334 40.6076 77.905 40.8726 77.1599 40.3248C77.8658 39.1779 78.1735 39.3686 77.8906 38.5692L77.7294 38.3049C77.5512 37.238 77.2914 38.7109 77.8117 37.846C77.9552 37.6076 78.6769 37.2119 78.9168 36.6511C79.3968 35.5295 78.5176 37.4442 78.5837 35.7431L79.9341 34.6509C80.0189 33.3467 80.4509 36.1023 79.8251 34.2909C79.764 34.1145 79.762 34.3658 79.5288 33.4623C81.3465 32.6804 80.5245 32.4356 80.5917 32.0737C80.5964 32.0482 80.6222 31.9478 80.6278 31.9233C80.9182 30.6577 80.8098 32.0115 80.4302 30.735C81.5357 29.7503 82.0656 28.5912 83.4852 27.5091C86.7769 24.9997 94.5854 24.1222 98.3641 24.5078C97.9019 23.9978 97.817 23.7776 96.4335 23.6709C94.3492 23.5103 92.1434 25.08 90.9337 23.3439C87.4103 24.7459 85.4194 23.8123 82.1976 26.7408C78.4861 30.1145 74.0581 37.7352 71.6135 42.7052C70.7779 44.4042 70.0971 45.6587 69.0412 46.8521L66.0802 50.5552C61.7884 55.2963 58.5528 58.5727 55.396 66.4163C51.0901 77.1151 53.7048 83.7964 53.8615 91.3964C47.4744 96.1042 35.986 95.8566 29.6011 101.141C28.2898 102.226 24.6549 105.625 26.5234 108.961C31.05 117.042 44.1319 111.379 50.5855 106.015C52.48 104.44 54.3921 101.863 57.6222 101.545C58.8738 102.372 58.2289 103.132 60.2249 104.044C64.0365 105.788 79.7 102.722 84.3597 103.499C85.9736 103.769 86.46 104.802 88.0888 105.148C90.3771 105.634 90.5066 104.641 91.8985 103.873C93.0234 104.795 91.9332 104.548 93.1919 105.201C94.7714 104.269 97.0343 101.126 95.3179 98.5529C94.1452 96.7954 90.7713 96.6852 88.4399 96.4281C89.4282 93.6648 90.7769 94.5468 93.444 93.337C93.3804 91.9765 93.5423 93.265 92.769 91.6524L94.9727 90.9192C94.5417 89.8156 95.7507 90.3679 93.7457 89.8494C93.7883 89.7467 93.8614 89.4885 93.8866 89.5491L94.542 88.1404L93.1849 87.5209C94.1004 81.2641 94.5962 82.7643 92.3479 77.3571C96.2832 71.7049 91.9326 72.0041 97.631 68.5088C99.5329 67.3423 102.81 66.0751 105.023 65.8043C107.08 65.5527 105.631 65.8457 107.096 66.7186C110.562 62.8168 109.648 59.5665 106.706 58.8588C103.383 58.0594 99.311 59.7329 96.2359 60.5329C96.2427 57.9495 96.8404 48.799 97.4045 46.3212C97.9044 44.1252 97.9492 44.2123 99.1742 42.8349Z" fill="#000"/><path fill-rule="evenodd" clip-rule="evenodd" d="M31.3465 103.097L31.4983 102.008C30.69 102.653 30.4925 102.515 29.6046 103.43L30.9519 103.907C31.0127 103.933 31.1313 103.974 31.2089 104.034C29.5789 107.566 30.1543 103.332 29.2367 105.593C29.0588 106.031 28.9974 106.649 28.9257 107.232L28.6726 106.581C28.6482 106.499 28.5966 106.36 28.5692 106.259L28.289 104.791C25.8793 111.274 36.2732 113.632 38.1991 109.069L36.8102 108.339C37.7729 108.034 39.5684 107.755 40.3013 106.174C41.4699 106.548 41.3848 107.783 41.2669 106.926C42.6239 105.964 42.4316 105.627 43.436 104.03C44.3405 102.591 44.0096 103.084 43.9128 102.732C43.9126 102.731 41.8359 102.233 44.3642 101.595C44.5726 102.038 44.6591 101.497 44.7004 102.918C44.7403 104.288 44.7449 103.452 44.4729 104.125C43.8064 105.774 41.8884 106.255 40.8227 109.827C42.7602 109.019 43.7406 105.92 46.1386 103.016C47.6781 101.151 46.0086 102.69 46.0721 100.759C47.8796 99.6189 47.3206 100.503 48.664 100.764C49.7762 99.7952 48.9641 100.563 49.5209 99.4635C50.3951 97.738 49.7893 99.606 51.3956 98.675C52.0736 98.2821 51.8726 98.3887 52.3222 97.6253C51.5987 97.2526 49.9767 97.8242 48.8151 97.815L49.2191 97.3316C50.6601 95.9099 49.8804 97.4051 50.3644 96.3342C47.1401 95.7516 42.7647 97.4172 39.854 98.4408C38.3078 98.9845 36.7227 99.6017 35.25 100.21L33.1453 101.525C32.2562 102.549 32.8784 102.409 31.3465 103.097Z" fill="#000"/><path fill-rule="evenodd" clip-rule="evenodd" d="M71.059 101.404L67.3191 101.329C66.9971 101.89 67.3495 100.746 67.3666 101.549L67.3228 102.224C65.827 102.146 65.3786 101.672 64.5957 102.116C61.9 103.647 61.8913 100.584 59.3551 100.762C60.0477 105.436 70.9076 102.174 73.2347 102.476C74.6156 102.655 74.5626 102.471 75.8023 102.024L73.9284 101.561C76.0465 101.086 76.9378 101.044 79.0325 100.627C81.4926 100.136 79.8838 100.96 81.799 100.838C82.6489 100.783 83.3745 100.258 84.5773 100.107C84.0907 101.13 83.466 101.545 82.951 101.985C84.1075 102.045 84.9463 101.178 85.6281 100.267C85.6546 100.232 85.7142 100.147 85.7376 100.111L86.0015 99.5728C86.0158 99.5418 86.0472 99.4356 86.0778 99.3713L87.4462 100.478C87.4457 100.485 86.3497 100.44 88.8656 101.865C88.9566 101.917 89.2305 102.055 89.3172 102.106L89.7549 102.38C89.8038 102.411 89.9072 102.466 89.9731 102.526C89.5885 103.259 89.3209 103.502 88.8982 104.033C90.8207 103.535 90.713 102.371 92.2769 101.833C93.1073 102.772 92.6529 103.094 93.7872 103.572C98.0902 95.0144 76.2528 98.8243 72.1483 99.5622C71.8667 99.6127 70.7499 99.8609 70.6234 99.978C69.9514 100.6 70.0987 99.4162 71.059 101.404Z" fill="#000"/><path fill-rule="evenodd" clip-rule="evenodd" d="M98.3639 24.5078L99.3803 24.7535C98.5264 25.6122 97.7881 25.6259 98.245 27.1306C98.8699 27.3492 98.7925 26.4801 100.306 26.8481L101.456 32.7894C100.84 33.7727 101.702 32.5294 100.46 33.1623L100.929 35.426L101.646 39.0608C101.671 39.1382 101.734 39.2675 101.756 39.3293C101.779 39.3908 101.828 39.5097 101.876 39.5913L102.438 33.9119C102.532 30.4907 102.976 31.9131 103.765 29.3925C103.201 28.4958 102.606 27.947 101.974 27.0752C101.388 26.2685 101.574 26.646 101.317 25.6018C100.595 22.666 101.068 22.7217 90.9335 23.3439C92.1431 25.0801 94.3489 23.5103 96.4332 23.671C97.8168 23.7777 97.9016 23.9978 98.3639 24.5078Z" fill="#000"/><path fill-rule="evenodd" clip-rule="evenodd" d="M84.5497 31.7619L84.196 31.7473L83.2689 34.4412C83.2481 34.369 83.1574 34.0937 83.128 34.1589L82.5394 32.7257C81.6312 36.5575 79.8527 32.8406 79.8057 39.1947C79.79 41.3082 78.0676 43.551 77.618 46.6344L78.6279 45.1805C78.99 44.5068 79.0375 44.303 79.2535 43.6967C79.9393 45.1941 79.2348 45.9228 80.4581 47.4166C80.2059 45.2544 80.0862 43.7056 81.094 42.2415C81.1083 44.5012 81.2578 45.1422 82.0987 46.585L81.9119 43.743C82.8953 44.8793 82.3771 44.6348 82.8724 44.4718L82.856 40.9692C79.7632 40.191 80.3372 37.7549 81.4068 36.3925C83.4129 33.837 83.3647 37.1357 84.5497 31.7619Z" fill="#000"/><path fill-rule="evenodd" clip-rule="evenodd" d="M88.1199 33.8308C88.707 32.8032 88.6392 33.0001 89.7767 33.2092C89.1306 31.9071 88.9516 32.9785 89.6352 31.7465C94.2247 33.1904 92.3643 29.0718 92.8545 27.6061C89.9539 27.6461 88.4197 30.4815 88.1199 33.8308Z" fill="#000"/><path fill-rule="evenodd" clip-rule="evenodd" d="M69.4856 92.3395C69.8104 91.9543 69.6786 92.3239 69.924 91.5581C70.0697 91.104 69.9842 91.1137 70.1732 90.6227L70.2377 93.1272C71.3303 92.6701 72.6637 91.7104 73.57 90.9054L70.9457 91.5005C71.2409 90.8123 70.9083 91.4619 71.3168 90.9621C71.3626 90.9061 71.4523 90.8083 71.501 90.7511L71.9372 90.2837C70.8665 90.0373 69.9617 89.6043 69.2187 89.2648L69.4856 92.3395Z" fill="#000"/><path fill-rule="evenodd" clip-rule="evenodd" d="M71.788 56.2284L76.0736 49.659C73.495 50.3921 72.3652 52.8579 71.788 56.2284Z" fill="#000"/><path fill-rule="evenodd" clip-rule="evenodd" d="M68.7202 95.6034C68.6554 92.2811 69.1856 89.5097 67.7229 87.0492C68.016 88.9605 67.9133 89.4379 67.7661 91.4068C67.6016 93.6097 67.6847 91.292 68.0614 93.4714C68.598 96.5758 68.2224 94.8048 68.7202 95.6034Z" fill="#000"/><path fill-rule="evenodd" clip-rule="evenodd" d="M62.9911 70.2562C62.9897 67.2779 65.9348 64.9148 66.2403 63.8236C63.7243 63.1596 62.7576 67.3006 62.9911 70.2562Z" fill="#000"/><path fill-rule="evenodd" clip-rule="evenodd" d="M87.3178 28.4C89.3103 27.6259 89.9847 27.01 92.2302 26.7936L93.9661 26.5031C94.012 26.4853 94.0953 26.4205 94.1585 26.3765C92.9938 25.4453 91.5564 25.9311 90.2795 26.3567C89.582 26.5893 89.2621 26.7107 88.6565 27.0827L87.3178 28.4Z" fill="#000"/><path fill-rule="evenodd" clip-rule="evenodd" d="M99.6446 40.7038C99.6739 43.0895 99.556 41.4307 100.078 42.0485L100.389 36.557C100.486 35.1451 100.483 35.7957 99.9823 34.9497C99.2723 36.1845 99.4683 38.9269 99.6446 40.7038Z" fill="#000"/><path fill-rule="evenodd" clip-rule="evenodd" d="M81.3747 39.3406L82.5136 39.7456C82.5537 39.6226 82.5947 39.3802 82.6024 39.4277C82.6104 39.4768 82.658 39.2016 82.6685 39.1236C82.863 37.6779 82.538 38.2049 83.2035 36.9184C83.2528 36.8231 83.3355 36.7072 83.379 36.6303C83.424 36.5508 83.5089 36.4389 83.5655 36.3364C81.6536 36.4858 80.879 37.2562 81.3747 39.3406Z" fill="#000"/><path fill-rule="evenodd" clip-rule="evenodd" d="M98.511 36.0822C99.8356 35.1097 99.7163 30.2171 99.0125 29.0964L98.6966 30.4882C98.681 31.0521 98.7409 31.7975 98.7322 32.4079C98.715 33.6191 98.6175 34.9682 98.511 36.0822Z" fill="#000"/><path fill-rule="evenodd" clip-rule="evenodd" d="M72.1439 58.8159C72.9133 57.9266 73.165 57.3134 73.9596 56.3615C74.6445 55.5408 75.2984 54.8774 75.7638 53.8376C73.6387 54.2849 72.4486 56.5787 72.1439 58.8159Z" fill="#000"/><path fill-rule="evenodd" clip-rule="evenodd" d="M66.453 91.5081C66.5958 91.4305 66.7356 92.2826 67.1072 90.4912C67.2111 89.9903 67.2083 88.7351 67.1808 88.1941C67.1084 86.7716 66.9516 85.7969 66.3578 84.7018C66.5411 87.142 66.3137 89.7385 66.453 91.5081Z" fill="#000"/><path fill-rule="evenodd" clip-rule="evenodd" d="M68.2146 64.25C69.5242 63.4825 69.0259 63.4198 69.7831 62.8141C70.9204 61.9043 70.6402 62.8638 71.2068 61.4355C69.3898 60.0167 68.7634 62.4171 68.2146 64.25Z" fill="#000"/><path fill-rule="evenodd" clip-rule="evenodd" d="M58.4302 77.7627L59.1748 75.7465L58.5438 75.1443C58.5188 75.1215 58.4414 75.0546 58.3921 75.0071C59.0001 73.745 59.1232 74.1342 58.5923 73.2342C57.613 73.8817 57.9285 73.1311 57.9071 74.9752C57.8792 77.3686 57.9844 77.1338 58.4302 77.7627Z" fill="#000"/><path fill-rule="evenodd" clip-rule="evenodd" d="M62.3865 60.5234C62.4763 60.4639 62.6114 60.2597 62.6549 60.3425C62.6967 60.422 62.8518 60.2082 62.9068 60.1578C65.1764 58.083 65.1459 58.8465 65.2337 57.8397C63.5867 57.1004 62.7 58.5072 62.3865 60.5234Z" fill="#000"/><path fill-rule="evenodd" clip-rule="evenodd" d="M79.6575 65.9591C79.098 65.4112 77.7723 65.267 75.9844 64.6879C76.3225 65.4012 75.9488 65.0197 76.5949 65.7147C76.6402 65.7635 77.3783 66.2849 77.4186 66.3016C79.5208 67.1708 79.6482 65.9675 79.6575 65.9591Z" fill="#000"/><path fill-rule="evenodd" clip-rule="evenodd" d="M64.0441 71.2825C64.6628 70.1405 64.3202 69.6764 64.8896 68.3911C65.2798 67.5106 66.2037 66.8176 65.7499 66.2915C64.4234 64.754 63.9615 70.4088 64.0441 71.2825Z" fill="#000"/><path fill-rule="evenodd" clip-rule="evenodd" d="M75.1584 91.8104C77.1509 91.7492 78.3803 91.2482 78.9003 89.4112C77.4218 89.6249 76.431 91.0479 75.1584 91.8104Z" fill="#000"/><path fill-rule="evenodd" clip-rule="evenodd" d="M67.2004 55.5286C68.5381 54.8252 68.2666 54.6609 68.9236 54.244C69.8115 53.6807 68.3274 54.5813 69.816 53.8688C70.7345 53.4292 70.3993 53.6814 70.9389 52.9524C69.1312 52.28 68.0099 53.9451 67.2004 55.5286Z" fill="#000"/><path fill-rule="evenodd" clip-rule="evenodd" d="M44.7572 107.02C45.7901 106.29 47.3376 104.568 47.5238 102.613C46.7622 103.037 45.1201 106.014 44.7572 107.02Z" fill="#000"/><path fill-rule="evenodd" clip-rule="evenodd" d="M82.6073 90.6925C86.2652 90.5874 84.1133 89.3858 86.1672 90.675C85.7592 88.6523 86.2122 90.5903 86.0513 89.7672L85.7545 88.8344C84.4767 89.4233 83.6953 90.0395 82.6073 90.6925Z" fill="#000"/><path fill-rule="evenodd" clip-rule="evenodd" d="M87.0463 63.6969L83.4532 61.9765C84.2318 63.7242 85.6638 64.555 87.0463 63.6969Z" fill="#000"/><path fill-rule="evenodd" clip-rule="evenodd" d="M60.1696 73.7515C60.3381 73.475 60.4106 73.4766 60.6279 72.8824L61.4183 69.8683C59.7249 70.1527 60.1102 71.5674 60.1696 73.7515Z" fill="#000"/><path fill-rule="evenodd" clip-rule="evenodd" d="M52.7719 101.117C52.958 100.842 53.5174 100.175 53.7053 99.414C54.0104 98.1788 54.0485 98.2954 53.4187 97.4258C52.8813 98.3128 52.4718 100.147 52.7719 101.117Z" fill="#000"/><path fill-rule="evenodd" clip-rule="evenodd" d="M59.3195 64.9286L59.5307 66.6775L60.0591 66.276L60.7897 65.0774L60.4759 65.0469C60.4089 65.1267 60.3031 65.247 60.2705 65.2814L60.2022 63.6371L59.9339 63.4117C59.3148 64.1546 59.5217 63.7152 59.3195 64.9286Z" fill="#000"/><path fill-rule="evenodd" clip-rule="evenodd" d="M67.8251 59.6637C68.6918 59.229 68.0282 59.6281 68.6168 59.1873C69.8529 58.2615 69.9514 58.3114 70.3445 57.2223C68.6897 57.4248 68.2791 57.9364 67.8251 59.6637Z" fill="#000"/><path fill-rule="evenodd" clip-rule="evenodd" d="M60.202 63.6371L60.2703 65.2814C60.303 65.247 60.4087 65.1267 60.4757 65.0469C61.3407 63.4778 61.4884 64.5172 62.2634 62.8136C60.9366 62.6758 61.0201 62.7508 60.202 63.6371Z" fill="#000"/><path fill-rule="evenodd" clip-rule="evenodd" d="M73.9093 60.9352C74.9153 59.4817 75.234 59.9983 75.5316 58.0466C73.9197 58.3813 73.9838 58.6186 73.9093 60.9352Z" fill="#000"/><path fill-rule="evenodd" clip-rule="evenodd" d="M71.2593 86.0124C71.2293 85.1445 71.4254 85.3331 70.6937 85.4167L68.7091 87.3739L71.1382 86.8891C70.9769 86.433 70.9008 86.9999 71.2593 86.0124Z" fill="#000"/><path fill-rule="evenodd" clip-rule="evenodd" d="M50.5082 103.129C51.4162 102.508 51.7874 101.646 51.3923 100.098C50.6312 100.799 50.0017 101.93 50.5082 103.129Z" fill="#000"/><path fill-rule="evenodd" clip-rule="evenodd" d="M95.1017 40.4159L95.6479 40.4958C95.7207 39.1106 95.7967 39.6875 96.1253 38.4089C96.1603 38.2724 96.3122 37.3761 96.2975 37.2857C96.0663 35.863 96.3273 37.0211 95.7789 36.6428L95.1017 40.4159Z" fill="#000"/><path fill-rule="evenodd" clip-rule="evenodd" d="M60.7897 65.0765L60.0591 66.2751L60.1624 67.6741C60.2113 67.5921 60.3153 67.3535 60.3495 67.4254C60.3866 67.5035 60.5392 67.2 60.7267 66.9527C60.8831 66.7466 61.0118 66.5509 61.1946 66.31C61.5586 65.8298 61.6907 65.6487 61.9953 65.3654L60.7897 65.0765Z" fill="#000"/><path fill-rule="evenodd" clip-rule="evenodd" d="M58.9759 80.3299L59.5762 78.3545C59.8879 77.1595 60.3693 77.9127 59.6228 76.6849C58.4024 77.683 58.7887 78.5538 58.9759 80.3299Z" fill="#000"/><path fill-rule="evenodd" clip-rule="evenodd" d="M59.5819 70.9994C59.8501 70.6498 59.6387 70.9949 60.0642 70.3186L61.1354 68.2801C59.4366 68.1076 59.5288 68.8455 59.5819 70.9994Z" fill="#000"/><path fill-rule="evenodd" clip-rule="evenodd" d="M60.8666 83.3104C60.9339 83.8456 60.7607 83.457 61.0023 84.2596C61.3197 85.3137 61.3433 85.0548 61.4954 85.3189L61.6756 82.1671C61.1836 81.5718 61.8814 81.9439 60.9754 81.763L60.8666 83.3104Z" fill="#000"/><path fill-rule="evenodd" clip-rule="evenodd" d="M48.0868 104.965C48.6642 103.616 49.2791 104.063 49.7324 101.425C48.6648 102.331 48.0075 103.043 48.0868 104.965Z" fill="#000"/><path fill-rule="evenodd" clip-rule="evenodd" d="M40.4589 99.1333C41.0874 100.021 40.4405 99.178 41.0946 99.8033L41.8155 100.523C42.5763 99.0609 42.0659 100.383 41.981 99.3023L41.8694 98.574C41.0577 98.4022 41.2245 98.2528 40.4589 99.1333Z" fill="#000"/><path fill-rule="evenodd" clip-rule="evenodd" d="M93.7711 42.7664C94.709 41.3744 94.5051 40.3762 94.5079 38.2755C93.7422 39.3601 93.9102 40.6205 93.7711 42.7664Z" fill="#000"/><path fill-rule="evenodd" clip-rule="evenodd" d="M73.3673 58.5866C74.3197 57.9893 74.9647 57.4316 75.3326 56.2538C73.7218 56.6963 73.8711 56.7141 73.3673 58.5866Z" fill="#000"/><path fill-rule="evenodd" clip-rule="evenodd" d="M63.6718 63.1864L64.0399 63.2335L65.5337 62.353C65.418 62.1514 65.4115 61.0828 64.2342 61.8979C63.8208 62.1841 63.8657 62.5017 63.6718 63.1864Z" fill="#000"/><path fill-rule="evenodd" clip-rule="evenodd" d="M35.5502 101.837C36.1996 101.557 36.0154 101.794 36.7618 101.181C37.5669 100.52 37.3262 100.656 37.4912 100.013C36.0796 100.144 36.007 100.38 35.5502 101.837Z" fill="#000"/><path fill-rule="evenodd" clip-rule="evenodd" d="M77.716 50.2033C78.4505 49.0901 78.8604 49.0364 79.2043 47.2728C77.8133 48.1249 77.9002 48.3122 77.716 50.2033Z" fill="#000"/><path fill-rule="evenodd" clip-rule="evenodd" d="M38.6373 110.638C39.6565 110.066 39.9805 109.528 40.5742 108.229C39.0891 108.675 39.086 109.136 38.6373 110.638Z" fill="#000"/><path fill-rule="evenodd" clip-rule="evenodd" d="M95.0086 35.2746C95.0852 35.1909 95.2026 34.9504 95.2403 35.0257L95.9431 34.0979C96.2486 33.5739 96.2984 33.3842 96.557 32.6667C95.4571 33.0388 95.2728 32.6801 95.0086 35.2746Z" fill="#000"/><path fill-rule="evenodd" clip-rule="evenodd" d="M70.068 88.6581C71.0185 88.911 71.863 89.3264 72.7955 88.5781C72.544 88.3362 73.4477 88.0211 71.5367 88.12L70.068 88.6581Z" fill="#000"/><path fill-rule="evenodd" clip-rule="evenodd" d="M102.246 30.5991C103.151 29.0372 102.506 28.947 101.493 28.2218C101.682 29.9633 101.574 29.4816 102.088 30.3873C102.117 30.4375 102.196 30.5255 102.246 30.5991Z" fill="#000"/><path fill-rule="evenodd" clip-rule="evenodd" d="M85.1672 48.0445L84.5625 45.1531C84.5624 45.1532 83.2033 45.1545 84.5761 47.353C84.8728 47.8281 84.8714 47.7108 85.1672 48.0445Z" fill="#000"/><path fill-rule="evenodd" clip-rule="evenodd" d="M63.2213 62.0985C63.9577 61.0161 63.5192 61.8053 64.006 61.3913C64.7272 60.7781 64.5288 61.1744 64.8824 60.176C63.3999 60.3491 63.2709 60.4253 63.2213 62.0985Z" fill="#000"/><path fill-rule="evenodd" clip-rule="evenodd" d="M44.9837 97.8845C45.4357 98.361 44.8083 98.3432 45.6861 98.4244C47.1203 98.5568 46.4258 98.2093 46.6969 98.0026C46.3712 97.3914 47.1267 97.4445 46.0302 97.3679C45.7115 97.3457 45.0931 97.7416 44.9837 97.8845Z" fill="#000"/><path fill-rule="evenodd" clip-rule="evenodd" d="M84.7444 102.236L86.9814 102.078C85.9837 100.871 85.3371 100.9 84.7444 102.236Z" fill="#000"/><path fill-rule="evenodd" clip-rule="evenodd" d="M48.0625 98.9848L45.6553 98.7114C45.8298 98.9537 46.3314 99.444 46.7073 99.5231C49.0246 100.011 47.5328 99.5554 48.0625 98.9848Z" fill="#000"/><path fill-rule="evenodd" clip-rule="evenodd" d="M76.4605 102.291C77.479 102.41 78.8439 102.247 79.6208 101.737C79.0207 101.691 76.8836 101.471 76.4605 102.291Z" fill="#000"/><path fill-rule="evenodd" clip-rule="evenodd" d="M86.844 103.075C87.7535 103.6 88.0534 103.602 88.8012 102.903L88.0795 102.265L86.844 103.075Z" fill="#000"/><path fill-rule="evenodd" clip-rule="evenodd" d="M59.7793 82.4583C59.8803 83.0273 59.3743 82.9193 60.042 82.9232C60.572 83.438 60.1505 83.1415 60.8663 83.3106L60.9751 81.7632L60.9319 81.5057C60.9211 81.5183 60.4015 82.0507 60.3062 82.133C60.2518 82.1802 60.0931 82.3833 60.0505 82.3036C60.0069 82.2218 59.8699 82.407 59.7793 82.4583Z" fill="#000"/><path fill-rule="evenodd" clip-rule="evenodd" d="M30.8773 105.818C30.9268 105.852 31.5028 106.217 31.5334 106.22C33.0853 106.381 32.1552 106.177 32.5799 105.919C31.8168 104.887 30.9907 105.173 30.8773 105.818Z" fill="#000"/><path fill-rule="evenodd" clip-rule="evenodd" d="M85.441 57.4839L85.4292 55.4074L84.2561 54.6104L85.441 57.4839Z" fill="#000"/><path fill-rule="evenodd" clip-rule="evenodd" d="M76.1875 92.9247C77.5784 93.0009 77.6166 92.9587 78.0658 91.658C76.3694 92.0349 77.5354 91.9252 76.1875 92.9247Z" fill="#000"/><path fill-rule="evenodd" clip-rule="evenodd" d="M59.7794 82.4585C59.87 82.4073 60.007 82.2221 60.0507 82.3038C60.0932 82.3835 60.2519 82.1804 60.3064 82.1333C60.4017 82.051 60.9213 81.5185 60.932 81.506C60.5157 80.4374 61.1555 80.9937 60.2807 80.7979C59.7122 81.7373 60.0436 80.9604 59.7794 82.4585Z" fill="#000"/><path fill-rule="evenodd" clip-rule="evenodd" d="M61.2367 73.7453C62.4352 73.0446 61.9448 73.6905 62.1878 72.246C61.3553 72.4878 61.0983 72.0106 61.2367 73.7453Z" fill="#000"/><path fill-rule="evenodd" clip-rule="evenodd" d="M69.518 55.0277C69.8838 55.2595 69.3161 55.5271 70.2207 55.3093C71.3896 55.0281 70.6655 55.0953 70.9121 54.6507C70.3605 54.3786 69.684 54.2247 69.518 55.0277Z" fill="#000"/><path fill-rule="evenodd" clip-rule="evenodd" d="M37.8923 105.136C38.1727 105.363 37.3089 105.678 38.816 105.518C39.3349 105.463 39.2728 105.348 39.7102 105.051C39.1405 104.668 38.2103 104.789 37.8923 105.136Z" fill="#000"/><path fill-rule="evenodd" clip-rule="evenodd" d="M85.4377 88.3211C86.9318 87.9056 86.5615 88.3822 86.9375 87.158C86.6063 87.2795 86.7342 87.0778 86.3348 87.3685C85.3413 88.0916 85.9918 87.4085 85.4377 88.3211Z" fill="#000"/><path fill-rule="evenodd" clip-rule="evenodd" d="M33.8643 101.265C34.0162 101.404 33.812 102.744 35.1863 101.362C34.8211 101.085 34.4751 100.844 33.8643 101.265Z" fill="#000"/><path fill-rule="evenodd" clip-rule="evenodd" d="M67.6136 73.2762L66.9057 73.0572C66.5751 73.4179 66.5991 72.0724 66.3877 74.21C66.4658 74.1748 66.9524 73.9463 67.0049 73.9042C67.4283 73.5639 67.3465 73.5905 67.6136 73.2762Z" fill="#000"/><path fill-rule="evenodd" clip-rule="evenodd" d="M40.9702 102.149C41.5247 102.533 40.2525 102.685 41.7314 102.514C42.9474 102.372 41.8274 102.639 42.3329 102.126C42.199 102.018 42.3553 101.277 40.9702 102.149Z" fill="#000"/><path fill-rule="evenodd" clip-rule="evenodd" d="M75.5338 90.2105C77.6798 89.9297 76.3004 90.5753 76.8678 89.2333C75.9575 89.6041 75.6158 89.4291 75.5338 90.2105Z" fill="#000"/><path fill-rule="evenodd" clip-rule="evenodd" d="M32.6823 107.799C31.909 106.764 33.5754 107.232 31.0742 106.677C31.8505 107.643 31.3768 107.237 32.6823 107.799Z" fill="#000"/><path fill-rule="evenodd" clip-rule="evenodd" d="M67.5479 57.9225C69.4079 57.1295 68.2757 57.667 68.7948 56.7078C66.6812 57.4194 68.3455 57.0883 67.5479 57.9225Z" fill="#000"/><path fill-rule="evenodd" clip-rule="evenodd" d="M65.734 92.9911L66.0622 92.7727L66.4529 91.5087C65.399 91.0403 65.9938 91.4424 65.734 92.9911Z" fill="#000"/><path fill-rule="evenodd" clip-rule="evenodd" d="M82.3696 50.139C82.9345 49.4483 83.2081 51.3752 82.7592 49.1499C82.7046 48.879 82.3994 48.4846 82.3025 48.321L82.3696 50.139Z" fill="#000"/><path fill-rule="evenodd" clip-rule="evenodd" d="M31.5661 104.732L32.6331 104.17C31.7076 103.362 31.6817 103.439 31.5661 104.732Z" fill="#000"/><path fill-rule="evenodd" clip-rule="evenodd" d="M85.8413 42.809L86.5781 41.1776C85.9962 41.5936 85.6303 40.3566 85.8413 42.809Z" fill="#000"/><path fill-rule="evenodd" clip-rule="evenodd" d="M38.5361 103.859C38.6562 104.082 38.2992 104.466 39.0828 104.231C40.4806 103.812 39.3153 104.237 39.8476 103.6L38.5361 103.859Z" fill="#000"/><path fill-rule="evenodd" clip-rule="evenodd" d="M80.3915 101.549C80.847 101.949 80.3125 101.973 81.1873 102.055C81.5204 102.086 81.99 101.876 82.323 101.75L80.3915 101.549Z" fill="#000"/><path fill-rule="evenodd" clip-rule="evenodd" d="M68.7985 60.0875C69.7351 59.7363 68.9512 60.2111 69.4303 59.8148C69.9323 59.3997 69.7381 59.5612 70.0654 59.1175C69.0818 59.4478 68.892 59.2013 68.7985 60.0875Z" fill="#000"/><path fill-rule="evenodd" clip-rule="evenodd" d="M90.9388 30.2546C92.07 29.9402 91.509 30.4042 91.8222 29.317C90.4335 29.6125 91.4702 29.4927 90.9388 30.2546Z" fill="#000"/><path fill-rule="evenodd" clip-rule="evenodd" d="M87.4686 52.027L86.5231 50.7342C87.2631 53.1646 86.5147 51.5805 87.4686 52.027Z" fill="#000"/><path fill-rule="evenodd" clip-rule="evenodd" d="M32.6959 109.944C32.2128 109.39 32.6952 109.315 31.061 108.923L32.6959 109.944Z" fill="#000"/><path fill-rule="evenodd" clip-rule="evenodd" d="M42.0642 103.656C42.0673 103.679 42.8018 104.15 42.5169 103.574C42.4262 103.39 41.8695 102.236 42.0642 103.656Z" fill="#000"/><path fill-rule="evenodd" clip-rule="evenodd" d="M64.0399 63.2339L63.6718 63.1868C63.6086 63.3726 62.9826 62.4281 63.6859 63.9856L64.0399 63.2339Z" fill="#000"/><path fill-rule="evenodd" clip-rule="evenodd" d="M84.1962 31.7469L84.5498 31.7615L84.8957 30.7813C84.478 31.2064 84.5824 30.9366 84.1962 31.7469Z" fill="#000"/><path fill-rule="evenodd" clip-rule="evenodd" d="M88.3614 57.6429C88.1066 57.2002 89.0207 57.3566 87.2719 56.8379L88.3614 57.6429Z" fill="#000"/><path fill-rule="evenodd" clip-rule="evenodd" d="M95.6479 40.4955L95.1016 40.4156L94.7356 41.1469L95.6479 40.4955Z" fill="#000"/><path fill-rule="evenodd" clip-rule="evenodd" d="M90.0488 82.2797L89.9666 81.7532L89.335 82.4398L90.0488 82.2797Z" fill="#000"/><path fill-rule="evenodd" clip-rule="evenodd" d="M77.8922 52.6692C78.6921 51.8839 78.4297 53.8545 78.27 52.297C78.1996 51.6104 78.2992 52.0991 77.9942 51.7014L77.8922 52.6692Z" fill="#000"/><path fill-rule="evenodd" clip-rule="evenodd" d="M65.7064 87.9649L65.8406 86.9204C65.116 87.9508 65.083 85.4447 65.5364 87.719C65.5462 87.7676 65.6231 87.9244 65.7064 87.9649Z" fill="#000"/><path fill-rule="evenodd" clip-rule="evenodd" d="M82.1819 67.4759L82.5962 67.485L82.5622 66.752C82.4537 66.8568 82.2621 67.3329 82.1819 67.4759Z" fill="#000"/><path fill-rule="evenodd" clip-rule="evenodd" d="M91.1812 82.0326L91.6117 81.4178L91.0301 81.8821L91.1812 82.0326Z" fill="#000"/><path fill-rule="evenodd" clip-rule="evenodd" d="M71.2592 86.0123L71.4628 85.2952L70.6937 85.4166C71.4253 85.333 71.2292 85.1444 71.2592 86.0123Z" fill="#000"/><path fill-rule="evenodd" clip-rule="evenodd" d="M66.0419 56.1975L66.1332 57.0027L66.0419 56.1975Z" fill="#000"/><path fill-rule="evenodd" clip-rule="evenodd" d="M67.7227 87.0495C69.1855 89.5101 68.6553 92.2814 68.72 95.6036C68.2223 94.805 68.5977 96.5763 68.0613 93.4718C67.6847 91.2924 67.6014 93.6101 67.766 91.4073C67.913 89.4385 68.0158 88.9607 67.7227 87.0495ZM88.3613 57.6428L87.2719 56.8378C89.0206 57.3565 88.1066 57.1999 88.3613 57.6428ZM87.4684 52.0272C86.5147 51.5808 87.2631 53.1648 86.5232 50.7344L87.4684 52.0272ZM88.8242 47.3012C88.8472 47.2147 88.8993 47.3637 88.8242 47.3012V47.3012ZM79.938 34.5981C80.0245 33.5037 80.3872 35.7312 79.938 34.5981V34.5981ZM58.8119 67.3573C59.0123 66.7047 58.9134 67.1405 58.8119 67.3573V67.3573ZM66.4528 91.5086L66.0622 92.7725L66.1654 95.1782L67.1408 92.5157C67.215 93.8141 67.6583 96.3283 68.7926 95.9658C69.5296 95.7303 68.9425 96.2161 69.5378 94.9059C70.1769 97.2953 70.0849 95.6806 71.2757 96.0253C71.2799 96.0265 71.8976 96.4265 72.096 96.541L71.2181 94.0167C71.8062 94.8752 72.9824 95.9442 73.873 96.4015C72.6682 95.0492 72.9622 95.389 72.2896 93.5919C72.6987 94.0659 74.5499 95.6784 75.4616 96.0207C74.7444 94.8858 74.8527 95.3579 74.3967 94.0735L77.0044 95.7352C77.0714 95.0447 76.3649 95.6692 77.0239 94.634L80.5795 95.3347C80.5781 95.1111 80.4933 94.8634 80.4646 94.9279L79.8671 93.9002C79.6654 93.5313 79.5711 93.3242 79.3964 92.9071C79.7308 93.2594 81.4479 94.5498 82.1791 94.8486C81.3491 93.6606 81.6089 94.3906 81.1519 92.9128L83.087 94.1342C82.1255 93.0394 82.6846 94.0133 82.1079 92.4964C83.4503 93.0706 84.0852 94.0038 85.5574 94.003L84.404 92.603L86.2769 93.4528C85.9614 92.3709 85.9182 92.8472 85.5617 91.6948L88.4253 93.0205C87.4433 90.936 88.4344 92.9033 86.6728 91.1707L86.2701 90.6926C87.5068 91.1233 88.1254 90.9337 88.9191 91.6633C90.0865 92.7365 88.9493 92.8222 91.3518 92.6516L90.3932 91.3618L91.8274 90.7817L90.7051 90.063C90.6323 90.0054 90.5227 89.9107 90.4388 89.8246C91.7912 89.236 90.9036 89.9405 91.6042 88.9338C89.9287 88.7498 90.1206 88.7408 89.4486 88.2011C89.515 88.1306 89.6113 87.916 89.6441 87.9861C89.6763 88.0552 89.7921 87.8204 89.837 87.7745C89.8848 87.7257 90.1314 87.4628 90.2176 87.3813C90.8161 86.8186 90.578 86.9862 91.2457 86.5694C90.995 86.4898 90.0855 86.4795 89.4203 85.7883C90.5155 85.3765 90.8633 84.8144 91.5938 83.8179C90.4524 84.455 90.3571 84.3374 89.7749 83.8964C90.5689 83.3014 90.7358 83.2366 91.181 82.0326L91.0301 81.8821L90.0485 82.2795L89.3348 82.4398L89.9662 81.7532C92.6311 78.4692 86.7274 76.1674 84.3298 75.5266C80.6061 74.5315 76.5431 75.1299 72.7556 75.5361L73.3015 74.8334C73.3529 74.7769 73.4313 74.6908 73.4875 74.6316C73.8639 74.2354 73.8779 74.2866 74.2392 73.9446L70.9849 74.1588L72.2366 72.5354L69.4158 72.5529C69.4077 72.5263 69.3774 72.408 69.3693 72.3818L67.6134 73.2764C67.3464 73.5907 67.428 73.5642 67.0049 73.9043C66.9521 73.9464 66.4655 74.1751 66.3875 74.21C66.5989 72.0724 66.5748 73.4182 66.9056 73.0572C67.4166 71.8407 68.3092 70.1111 69.3436 69.4786C69.2892 69.4392 69.1881 69.3265 69.1669 69.391L68.2994 68.975C68.7077 67.9903 69.1107 67.1515 69.6825 66.4469C70.6473 65.258 71.0168 65.7309 71.5649 64.4925C70.4566 63.8527 70.8717 63.8725 69.8139 65.0624C69.2867 65.6558 68.7694 66.161 68.2614 66.6813C69.5182 61.0507 72.096 63.6657 72.1064 63.6695C72.7762 63.9229 73.6781 63.8554 74.5596 63.9642L72.9472 65.0681C72.9008 65.098 72.8022 65.1523 72.7355 65.2053C73.8177 65.7814 74.4035 65.5618 75.6581 65.247C75.0758 67.0312 75.2004 65.712 74.3625 67.04L77.7743 67.4711C77.1881 68.986 77.6952 67.9663 76.2937 69.0281C77.4428 69.0061 77.5727 69.0444 78.567 68.4968L80.1423 67.4916C80.2096 67.4514 80.3195 67.3835 80.4112 67.3365C79.6833 69.0865 79.8248 68.545 78.9648 69.6216C80.2333 69.3171 81.4459 68.2788 82.1821 67.4756C82.2624 67.3327 82.4537 66.8564 82.5623 66.7518L82.5961 67.4848C82.1824 68.9094 81.619 69.7012 80.8104 70.7953C82.2621 70.1771 83.5306 68.1128 84.6726 66.8989L83.9499 69.5643C85.4888 68.8954 84.4248 68.4768 86.5358 67.3323C85.7669 70.7338 83.6002 71.1657 81.2013 72.3822L81.8463 72.5252C82.7594 72.5058 84.3197 71.6935 85.1134 71.2211C86.5127 70.3876 87.3457 69.5837 88.7425 68.785L87.0657 70.8885C86.3107 71.7148 85.9478 71.8934 85.4989 72.8043C87.6551 71.9139 89.4782 69.3782 91.6065 67.7161C90.9114 69.628 89.9739 69.6454 89.1647 71.7672C90.3682 71.1612 90.726 70.9018 91.4429 69.9575C92.2733 68.8635 92.2102 68.6015 93.2862 67.8143C92.6535 68.8377 92.5387 69.2246 92.0847 70.0281C93.2651 69.7558 94.6335 67.1355 96.3408 65.3248C96.0722 66.145 96.1824 65.2968 96.0572 66.2341C96.0504 66.2853 96.0377 66.4063 96.0345 66.4567L96.0631 66.886C96.065 66.9201 96.0734 67.0297 96.0998 67.0938C96.5149 65.9611 97.4146 64.6214 98.3127 64.2134L97.6598 66.2595L99.5344 64.9896C99.7751 65.431 99.2325 65.2224 99.8131 65.3753C100.874 64.0245 101.219 63.4682 101.91 63.8258C102.315 64.0355 102.58 64.191 102.741 64.3043C103.341 63.5395 103.095 63.8861 103.863 63.3094C103.901 63.37 103.92 63.4246 103.929 63.5213C104.104 65.3134 104.707 63.5346 107.245 63.7549L107.683 63.803C107.722 63.8068 107.818 63.8361 107.884 63.8197C108.961 60.769 106.72 59.4107 104.223 59.6598C102.173 59.8642 99.7838 60.9032 97.7288 61.4687C95.2798 62.1421 93.2267 62.5669 90.6134 62.7447C87.5413 62.954 85.6069 63.1683 84.5777 60.4205C85.1551 60.7751 85.3743 61.0318 86.0782 61.4421L86.4015 60.2612L89.5156 61.4767C89.0602 60.5491 87.7218 59.2761 86.5641 58.9882C87.9791 58.9215 88.4702 59.0933 89.502 59.8684C88.9038 58.3793 88.7099 59.0205 88.3613 57.6428L89.3816 58.102C88.3834 56.2398 86.7577 55.7214 86.3768 53.1394C88.092 54.1098 87.7543 54.7143 88.8947 55.8667C88.4536 54.3479 87.6186 53.1913 87.4684 52.0272C88.0646 52.177 88.2988 52.1831 88.4338 52.8648C88.3089 51.7504 86.5482 49.9393 85.964 48.2415C85.9464 47.5673 86.2903 47.8942 86.6907 47.2962C87.0052 46.826 86.9993 46.5533 87.3409 45.988L87.5442 49.0827L88.5743 46.9568C88.709 47.1756 88.7844 47.2682 88.8242 47.3012C88.8105 47.3531 88.8075 47.49 88.8489 47.8077C89.0271 49.176 88.5063 49.1524 88.9884 50.4982C89.7547 48.9552 89.3816 49.2128 90.5721 47.9701C90.1366 49.6936 89.3946 50.5445 90.0296 52.3882L90.4612 51.1012C91.167 53.0321 91.6335 53.9179 92.9889 54.7373C92.3956 52.6972 91.6631 52.2664 91.7883 49.9977C91.9269 50.5009 93.9777 53.6419 94.3684 54.4712C93.8027 51.5994 92.0427 48.5878 91.801 45.4355L94.6419 51.0671C94.5831 48.6014 93.255 46.9819 93.2003 44.4158L94.386 46.8048C94.4699 45.073 94.3918 43.9402 94.9002 42.6946L95.2528 45.12L96.5871 42.4772C96.6037 42.5729 96.6219 42.7146 96.6342 42.7913C96.6466 42.8675 96.6473 43.0047 96.6785 43.1034L97.4939 41.0446C97.6549 41.6953 97.2952 41.1318 97.7086 42.0757L98.7186 37.8248L99.0913 41.924C99.2823 40.9502 99.1301 41.3662 99.6446 40.7037C99.4683 38.9267 99.2725 36.1848 99.9826 34.9497C100.149 35.2307 100.26 35.3463 100.331 35.4279C100.479 35.4062 100.757 35.6508 100.929 35.4259L100.46 33.1624C101.703 32.5296 100.841 33.7726 101.456 32.7893L100.306 26.8483C98.7928 26.4801 98.8701 27.3492 98.2453 27.1308C97.7883 25.6261 98.5266 25.6121 99.3805 24.7535L98.364 24.5078C94.5853 24.1222 86.7769 24.9997 83.4851 27.5092C82.0656 28.5912 81.5357 29.7503 80.4302 30.7352C80.8097 32.0116 80.9184 30.6578 80.6279 31.9236C80.6224 31.9479 80.5963 32.0484 80.5918 32.0738C80.5245 32.4355 81.3465 32.6805 79.5288 33.4624C79.7621 34.3661 79.764 34.1147 79.8252 34.291C79.8674 34.4134 79.9048 34.5147 79.938 34.5981C79.9367 34.6148 79.9354 34.6326 79.9341 34.6508L78.5836 35.7434C78.5176 37.4444 79.3967 35.5294 78.9166 36.6512C78.677 37.212 77.9551 37.6079 77.8117 37.846C77.7567 37.9374 77.7102 38.003 77.6718 38.0477C77.6913 38.1096 77.7109 38.1934 77.7294 38.3049L77.8908 38.5692C78.1734 39.3689 77.8657 39.1782 77.1598 40.3249C77.905 40.8729 78.0336 40.6078 79.009 40.287C78.4161 42.02 77.4113 43.5948 77.0444 45.7802C76.8232 45.272 76.5743 45.594 77.1042 43.4329C76.7715 43.5644 75.824 43.6597 75.7271 44.7829C75.6405 45.7828 76.1122 44.6152 75.4161 47.071L75.2284 48.3159C75.1744 49.3181 74.9194 49.1577 73.992 50.0003C73.3516 50.582 73.2355 50.8793 72.6421 51.4265L70.2133 50.8277C70.0608 50.8483 69.956 50.8559 69.8858 50.8565C69.917 50.8911 69.9297 50.956 69.8803 51.0723C69.4922 51.9862 69.6662 50.8373 70.091 52.2934C68.0041 53.2092 65.5281 54.0086 66.0417 56.1973L66.1328 57.0028C62.1244 55.6281 61.6782 61.1983 61.6645 61.3545C61.6567 61.444 61.6606 61.5854 61.6427 61.6985C60.5772 62.2874 60.3107 62.1812 59.9338 63.4113L60.2021 63.6369C61.0202 62.7504 60.9366 62.6753 62.2634 62.8133C61.4885 64.5171 61.3409 63.4777 60.4757 65.0464L60.7895 65.0772L61.9953 65.3661C61.6906 65.6494 61.5585 65.8303 61.1945 66.3104C61.0117 66.5516 60.8829 66.7472 60.7268 66.9531C60.5391 67.2008 60.3866 67.5041 60.3494 67.426C60.3153 67.3539 60.2112 67.5928 60.1624 67.6748L60.059 66.2759L59.5304 66.6775L59.3193 64.9281L58.6785 67.0043C58.6766 67.0362 58.6932 67.1412 58.6922 67.1738C58.6824 67.5447 58.7478 67.495 58.8119 67.3573C58.781 67.4578 58.7432 67.5837 58.6971 67.7403C58.487 68.4547 58.081 68.515 57.7418 68.7448C59.1098 69.6993 58.1841 68.2341 59.0864 69.9485C57.9675 70.5772 57.1602 71.4179 56.5493 73.0348C56.36 73.5358 56.3571 73.2824 56.2901 73.9946L56.2673 75.6388C56.1639 76.1853 56.023 76.6456 55.9303 77.376C56.8947 76.9497 56.3841 77.2182 57.0831 76.6418C56.4732 77.6794 55.9667 79.0543 55.8636 80.8495C56.7776 80.432 56.2452 80.2212 57.3101 79.4525C56.7883 81.4505 56.4888 82.7391 56.8167 85.0037C57.2987 83.954 57.8049 82.4035 58.1744 81.5021C57.8556 83.9829 57.5879 85.2016 58.0234 87.7897L59.1342 84.2115C59.1616 84.1478 59.2156 84.0299 59.2614 83.943C58.9989 86.2243 58.8675 87.3779 59.3587 89.6581L60.3807 85.5308L60.7014 89.3714C60.7352 89.2986 60.8029 89.1757 60.8429 89.0851L61.1867 88.1811C61.2273 88.0768 61.2657 87.9713 61.3025 87.8769L61.6154 90.63L62.6189 88.3331L62.6557 91.8881L63.639 89.0062L63.5482 93.6754L64.3454 91.5238C64.5891 90.5849 64.5822 90.5094 65.0044 89.7624L65.1281 94.8274L65.734 92.9909C65.9936 91.4423 65.399 91.0403 66.4528 91.5086ZM71.4631 85.2949L71.2594 86.012C70.9009 86.9994 70.9767 86.4325 71.1381 86.8887L68.7089 87.3734L70.6937 85.4163L71.0229 85.3643C71.0955 85.3503 71.1462 85.3401 71.182 85.3393L71.4631 85.2949ZM66.3576 84.7023C66.9515 85.7973 67.1083 86.772 67.1805 88.1943C67.2082 88.7354 67.2111 89.9906 67.107 90.4916C66.7355 92.2829 66.5956 91.4309 66.4528 91.5086C66.3137 89.7388 66.541 87.1424 66.3576 84.7023ZM65.41 87.1519C65.1713 86.9926 65.1888 86.2885 65.41 87.1519V87.1519ZM61.6756 82.1676L61.4954 85.3192C61.3432 85.0552 61.3197 85.3139 61.0023 84.2601C60.7606 83.4573 60.934 83.846 60.8663 83.311C60.1507 83.1418 60.5722 83.4379 60.0421 82.9234C59.3746 82.9196 59.8804 83.0276 59.7795 82.4584C60.0437 80.9602 59.7123 81.7372 60.2808 80.7979C61.1555 80.9936 60.5157 80.4373 60.932 81.5059L60.9753 81.7634C61.8812 81.9443 61.1834 81.5722 61.6756 82.1676ZM70.0679 88.6581L71.5368 88.12C73.4478 88.021 72.5439 88.3362 72.7957 88.5781C71.8631 89.3263 71.0187 88.911 70.0679 88.6581ZM69.2187 89.2649C69.9616 89.6042 70.8665 90.0372 71.9373 90.2838L71.5011 90.7509C71.4523 90.8082 71.3625 90.906 71.3167 90.9622C70.9081 91.4619 71.2408 90.8123 70.9455 91.5006L73.5699 90.9052C72.6636 91.7103 71.3303 92.6701 70.2378 93.127L70.173 90.6228C69.9843 91.1138 70.0696 91.104 69.9238 91.5582C69.6786 92.3239 69.8103 91.9542 69.4857 92.3394L69.2187 89.2649ZM93.7712 42.767C93.9104 40.6211 93.7422 39.3605 94.5079 38.2761C94.5053 40.3769 94.7089 41.3749 93.7712 42.767ZM98.6965 30.4883L99.0126 29.0966C99.7162 30.2171 99.8356 35.1096 98.511 36.0823C98.6174 34.9683 98.715 33.619 98.7323 32.4079C98.741 31.7977 98.6809 31.0522 98.6965 30.4883ZM77.4188 66.302C77.3785 66.2853 76.6404 65.7639 76.5952 65.715C75.9489 65.0199 76.3226 65.4014 75.9847 64.6881C77.7724 65.2672 79.0981 65.4113 79.6576 65.9592C79.6482 65.9679 79.521 67.1711 77.4188 66.302ZM82.0988 46.5848C81.2576 45.1419 81.1083 44.5011 81.094 42.2414C80.0864 43.7055 80.206 45.2542 80.4581 47.4164C79.2347 45.9227 79.9393 45.1939 79.2533 43.6968C79.0376 44.3027 78.9898 44.5068 78.6278 45.1807L77.6182 46.6345C78.0677 43.5508 79.79 41.3081 79.8056 39.1945C79.8528 32.8405 81.631 36.5575 82.5392 32.7256L83.128 34.1586C83.1575 34.0938 83.248 34.3691 83.2688 34.4412L84.1961 31.7473C84.5823 30.9369 84.4778 31.2069 84.8955 30.7814L84.5497 31.7617C83.3647 37.1358 83.4129 33.837 81.4066 36.3926C80.3371 37.755 79.7633 40.1911 82.856 40.9692L82.8723 44.4715C82.3772 44.6346 82.8954 44.8792 81.9118 43.743L82.0988 46.5848ZM70.9117 54.6502C70.6654 55.0946 71.3892 55.0275 70.2205 55.3088C69.3159 55.5265 69.8835 55.2588 69.5179 55.0271C69.6838 54.2239 70.3604 54.3779 70.9117 54.6502ZM65.7499 66.2918C66.204 66.8178 65.2799 67.5105 64.8899 68.3911C64.3204 69.6766 64.6632 70.1407 64.0442 71.2825C63.9616 70.4088 64.4235 64.7541 65.7499 66.2918ZM66.2401 63.8243C65.9347 64.9157 62.9897 67.2788 62.991 70.2572C62.7575 67.3012 63.7242 63.1603 66.2401 63.8243ZM64.2341 61.8987C65.4114 61.0834 65.4178 62.152 65.5336 62.3537L64.0397 63.2343L63.6858 63.9858C62.9825 62.4284 63.6083 63.373 63.6718 63.1872C63.8656 62.5024 63.8207 62.185 64.2341 61.8987ZM69.783 62.8145C69.0258 63.4201 69.5241 63.4826 68.2146 64.2501C68.7633 62.4174 69.3897 60.0171 71.2067 61.4357C70.6401 62.8642 70.9205 61.9043 69.783 62.8145ZM69.2805 59.9503C69.3195 59.9617 69.217 60.0197 69.2805 59.9503V59.9503ZM87.0465 63.6976C85.6641 64.5554 84.2319 63.7249 83.4532 61.9772L87.0465 63.6976ZM84.5764 47.3531C83.2034 45.1548 84.5624 45.1537 84.5627 45.1533L85.1674 48.0447C84.8714 47.711 84.873 47.8286 84.5764 47.3531ZM85.8414 42.8095C85.6302 40.3568 85.9962 41.5937 86.5781 41.1778L85.8414 42.8095ZM89.7765 33.2099C88.6391 33.0005 88.707 32.8037 88.1199 33.8314C88.4195 30.4822 89.9538 27.6465 92.8542 27.6067C92.3641 29.0723 94.2246 33.1909 89.635 31.7473C88.9516 32.9789 89.1305 31.9077 89.7765 33.2099ZM82.7594 49.1494C83.2083 51.375 82.9347 49.4478 82.3697 50.1387L82.3027 48.3208C82.3997 48.4843 82.7048 48.8787 82.7594 49.1494ZM92.23 26.7937C89.9847 27.0102 89.3101 27.6261 87.3178 28.4004L88.6563 27.083C89.2619 26.711 89.582 26.5897 90.2794 26.3568C91.5564 25.9314 92.9938 25.4456 94.1583 26.3766C94.0952 26.421 94.0119 26.4854 93.9661 26.5032L92.23 26.7937ZM73.9595 56.3615C73.1652 57.3133 72.9134 57.9265 72.1438 58.8157C72.4486 56.5784 73.6388 54.285 75.7638 53.8375C75.2983 54.8773 74.6445 55.5409 73.9595 56.3615ZM75.3328 56.2539C74.9649 57.4316 74.3196 57.9895 73.3672 58.5867C73.871 56.7141 73.7217 56.6963 75.3328 56.2539ZM76.0738 49.6594L71.788 56.2288C72.3653 52.8584 73.495 50.3928 76.0738 49.6594ZM69.2805 59.9503C69.2502 59.9416 69.1364 59.9609 68.7984 60.0876C68.8918 59.2018 69.0817 59.4482 70.0653 59.1176C69.7378 59.5616 69.932 59.4001 69.4301 59.8153C69.3484 59.8828 69.3032 59.9249 69.2805 59.9503ZM70.3447 57.2223C69.9515 58.3114 69.853 58.2613 68.6169 59.1874C68.0281 59.628 68.6917 59.229 67.8252 59.6636C68.2793 57.9364 68.6897 57.4248 70.3447 57.2223ZM68.7948 56.7081C68.2757 57.6672 69.4079 57.1298 67.5481 57.9227C68.3456 57.0885 66.6812 57.4195 68.7948 56.7081ZM68.9237 54.244C68.2662 54.6608 68.5379 54.8254 67.2003 55.5284C68.0096 53.9452 69.1311 52.2801 70.9387 52.9524C70.3991 53.6813 70.7345 53.4291 69.8158 53.869C68.3271 54.5811 69.8113 53.6805 68.9237 54.244ZM64.0062 61.3913C63.5192 61.8054 63.9577 61.0163 63.2213 62.0985C63.271 60.4255 63.3999 60.3492 64.8825 60.1759C64.5289 61.1744 64.7273 60.7781 64.0062 61.3913ZM62.655 60.3424C62.6114 60.2598 62.4764 60.4642 62.3866 60.5236C62.7002 58.5074 63.5869 57.1006 65.2337 57.8397C65.1459 58.8468 65.1765 58.0831 62.9071 60.1581C62.8518 60.2085 62.6966 60.4221 62.655 60.3424ZM65.8404 86.9206L65.7064 87.9653C65.6231 87.9247 65.546 87.7677 65.5362 87.7192C65.4887 87.4807 65.4464 87.2949 65.41 87.1519C65.5086 87.2175 65.6507 87.1902 65.8404 86.9206ZM78.2924 52.4898C78.5585 52.6032 78.4128 53.3897 78.2924 52.4898V52.4898ZM78.2924 52.4898C78.2066 52.4534 78.0781 52.4868 77.892 52.6696L77.9942 51.7019C78.2989 52.0992 78.1994 51.6108 78.27 52.2972C78.2775 52.3685 78.285 52.4326 78.2924 52.4898ZM95.648 40.4959L94.7356 41.1474L95.1016 40.4159L95.7788 36.6428C96.3272 37.0209 96.0663 35.8631 96.2976 37.2856C96.3122 37.3762 96.1603 38.2723 96.1252 38.4088C95.7966 39.6874 95.7205 39.1107 95.648 40.4959ZM85.4413 57.484L84.2563 54.6104L85.4292 55.4075L85.4413 57.484ZM95.2401 35.0255C95.2024 34.9504 95.085 35.1909 95.0085 35.2746C95.2726 32.6801 95.4567 33.0389 96.5568 32.6665C96.2983 33.3839 96.2484 33.5739 95.9427 34.0979L95.2401 35.0255ZM79.2042 47.2734C78.8604 49.0368 78.4506 49.0907 77.716 50.2039C77.9002 48.3129 77.8133 48.1256 79.2042 47.2734ZM82.5135 39.7459L81.3747 39.3409C80.879 37.2564 81.6535 36.4862 83.5654 36.3368C83.5088 36.4392 83.424 36.551 83.3791 36.6306C83.3354 36.7073 83.2528 36.8233 83.2034 36.9189C82.5379 38.2051 82.8629 37.678 82.6683 39.1239C82.6579 39.2017 82.6104 39.477 82.6023 39.428C82.5945 39.3803 82.5535 39.623 82.5135 39.7459ZM75.5315 58.0467C75.2339 59.9985 74.9152 59.4816 73.9094 60.9351C73.9839 58.6185 73.9198 58.3812 75.5315 58.0467ZM75.5338 90.211C75.6158 89.4294 75.9573 89.6046 76.8678 89.2337C76.3001 90.5757 77.6796 89.9299 75.5338 90.211ZM75.1584 91.8101C76.4312 91.0475 77.422 89.6247 78.9004 89.4108C78.3806 91.2481 77.1511 91.749 75.1584 91.8101ZM76.1876 92.9249C77.5355 91.9257 76.3695 92.0353 78.0658 91.6583C77.6165 92.9591 77.5785 93.0011 76.1876 92.9249ZM85.4377 88.321C85.9917 87.4086 85.3411 88.0916 86.3348 87.3684C86.7339 87.0779 86.6061 87.2797 86.9372 87.158C86.5612 88.3821 86.9317 87.9058 85.4377 88.321ZM62.1879 72.246C61.9449 73.6905 62.4354 73.0447 61.2368 73.745C61.0986 72.0106 61.3555 72.4876 62.1879 72.246ZM60.6279 72.8824C60.4106 73.4766 60.3381 73.4751 60.1696 73.7515C60.1101 71.5676 59.725 70.1529 61.4183 69.8684L60.6279 72.8824ZM60.0642 70.3186C59.6387 70.9951 59.8501 70.65 59.5818 70.9993C59.5288 68.8457 59.4364 68.1078 61.1353 68.2803L60.0642 70.3186ZM59.5763 78.3547L58.9762 80.33C58.7888 78.5542 58.4027 77.6831 59.6228 76.6851C60.3693 77.9129 59.8879 77.1598 59.5763 78.3547ZM58.5439 75.1439L59.1749 75.7462L58.4301 77.7624C57.9844 77.1337 57.8794 77.3684 57.907 74.9748C57.9284 73.1308 57.6129 73.8816 58.5924 73.2339C59.1232 74.1338 59.0002 73.7447 58.3919 75.0071C58.4414 75.0544 58.5188 75.1212 58.5439 75.1439ZM82.6075 90.6922C83.6952 90.0392 84.4769 89.423 85.7545 88.8341L86.0515 89.7669C86.2122 90.5901 85.7594 88.6521 86.1673 90.6748C84.1135 89.3854 86.2652 90.5871 82.6075 90.6922Z" fill="#B58055"/><path fill-rule="evenodd" clip-rule="evenodd" d="M93.7876 103.572C98.0906 95.0144 76.2531 98.8243 72.1485 99.5622C71.8672 99.6126 70.7502 99.861 70.6236 99.9778C70.4242 100.162 70.2971 100.188 70.2417 100.185C70.3303 100.231 70.6031 100.459 71.0595 101.404L67.3462 101.329C67.3572 101.376 67.3648 101.447 67.367 101.549L67.3231 102.224C65.8275 102.145 65.379 101.672 64.596 102.116C61.9005 103.647 61.8917 100.584 59.3556 100.762C60.048 105.436 70.9079 102.173 73.2353 102.476C74.616 102.655 74.563 102.471 75.8026 102.024L73.9287 101.561C76.0469 101.085 76.9382 101.044 79.0329 100.627C81.493 100.136 79.8841 100.96 81.7993 100.838C82.6493 100.783 83.375 100.258 84.5775 100.107C84.0909 101.13 83.4664 101.545 82.9515 101.985C84.1078 102.045 84.9467 101.178 85.6285 100.267C85.6548 100.231 85.7147 100.147 85.7381 100.111L86.0019 99.5728C86.0162 99.5417 86.0474 99.4355 86.0784 99.3714L87.4467 100.478C87.4461 100.484 86.3499 100.439 88.8659 101.865C88.957 101.917 89.2309 102.055 89.3177 102.106L89.7552 102.38C89.804 102.41 89.9074 102.466 89.9734 102.526C89.5886 103.259 89.3213 103.503 88.8988 104.033C90.8211 103.535 90.7135 102.371 92.2774 101.833C93.1074 102.772 92.6534 103.094 93.7876 103.572Z" fill="#855935"/><path fill-rule="evenodd" clip-rule="evenodd" d="M38.8163 105.519C37.3093 105.678 38.1729 105.363 37.8925 105.136C38.2106 104.789 39.141 104.669 39.7105 105.051C39.273 105.348 39.3351 105.464 38.8163 105.519ZM41.2672 106.926C42.6243 105.964 42.432 105.627 43.4365 104.03C44.3407 102.591 44.0099 103.084 43.9133 102.732C43.913 102.731 41.8362 102.233 44.3645 101.595C44.5729 102.038 44.6595 101.497 44.7008 102.918C44.7405 104.288 44.7454 103.452 44.4731 104.125C43.8066 105.774 41.8888 106.255 40.8232 109.827C42.7606 109.019 43.7409 105.921 46.1388 103.016C47.6784 101.151 46.009 102.69 46.0725 100.759C47.88 99.6188 47.3209 100.503 48.6643 100.764C49.7767 99.7952 48.9645 100.563 49.5213 99.4633C50.3954 97.7379 49.7897 99.606 51.3959 98.675C52.0737 98.2822 51.8731 98.3887 52.3226 97.6254C51.5988 97.2526 49.977 97.8244 48.8155 97.815L49.2195 97.3315C50.6604 95.9098 49.8807 97.405 50.3648 96.3342C47.1404 95.7517 42.7651 97.4172 39.8542 98.441C38.3082 98.9844 36.7231 99.6018 35.2503 100.21L33.1455 101.525C32.2565 102.549 32.8788 102.409 31.3467 103.097L31.4986 102.008C30.6903 102.653 30.4929 102.514 29.6049 103.43L30.9522 103.907C31.013 103.933 31.1318 103.974 31.2091 104.034C29.5792 107.567 30.1546 103.332 29.237 105.592C29.0591 106.031 28.9976 106.649 28.9261 107.232L28.673 106.581C28.6486 106.499 28.5969 106.36 28.5696 106.259L28.2895 104.791C25.8796 111.274 36.2737 113.632 38.1996 109.069L36.8107 108.339C37.7731 108.034 39.5686 107.755 40.3015 106.174C40.9293 106.375 41.1954 106.824 41.2887 107.064C41.2819 107.026 41.2747 106.98 41.2672 106.926ZM39.083 104.231C38.2994 104.466 38.6563 104.082 38.5363 103.859L39.8477 103.6C39.3156 104.236 40.4808 103.811 39.083 104.231ZM41.7317 102.514C40.2527 102.685 41.5248 102.533 40.9703 102.149C42.3556 101.277 42.1991 102.018 42.3331 102.126C41.8277 102.639 42.9476 102.373 41.7317 102.514ZM46.7074 99.5236C46.3314 99.4444 45.8298 98.9541 45.6555 98.7118L48.0625 98.9852C47.5329 99.5558 49.0246 100.012 46.7074 99.5236ZM36.7619 101.18C36.0157 101.794 36.1998 101.557 35.5506 101.837C36.0072 100.379 36.0798 100.144 37.4915 100.012C37.3266 100.655 37.5672 100.519 36.7619 101.18ZM41.0949 99.8031C40.4407 99.1778 41.0877 100.021 40.4592 99.133C41.2246 98.2526 41.0581 98.4019 41.8696 98.5737L41.9812 99.3022C42.0661 100.383 42.5765 99.0606 41.8156 100.522L41.0949 99.8031ZM42.5173 103.574C42.8019 104.151 42.0674 103.679 42.0645 103.657C41.8696 102.236 42.4265 103.391 42.5173 103.574ZM35.1866 101.362C33.812 102.743 34.0163 101.404 33.8644 101.265C34.4752 100.844 34.8213 101.085 35.1866 101.362ZM45.6864 98.424C44.8084 98.3428 45.4359 98.3607 44.9841 97.8843C45.0934 97.7414 45.7118 97.3455 46.0305 97.3675C47.127 97.4441 46.3714 97.391 46.697 98.0023C46.4261 98.2089 47.1205 98.5567 45.6864 98.424ZM31.0615 108.923C32.6956 109.315 32.2133 109.39 32.6963 109.944L31.0615 108.923ZM31.0745 106.677C33.5759 107.231 31.9091 106.763 32.6826 107.799C31.377 107.237 31.8509 107.643 31.0745 106.677ZM32.5801 105.919C32.1557 106.177 33.0857 106.381 31.5338 106.22C31.5032 106.217 30.9271 105.851 30.8777 105.817C30.9909 105.172 31.8171 104.886 32.5801 105.919ZM32.6332 104.17L31.5663 104.731C31.6821 103.439 31.7078 103.362 32.6332 104.17Z" fill="#855935"/><path fill-rule="evenodd" clip-rule="evenodd" d="M77.6718 38.0476C77.5251 37.5831 77.3836 38.3832 77.6718 38.0476V38.0476ZM102.741 64.3042C103.814 65.0634 100.21 63.9287 102.688 64.3721C102.706 64.3485 102.724 64.3258 102.741 64.3042ZM73.992 50.0001C74.9193 49.1575 75.1743 49.318 75.2283 48.3157L75.416 47.0708C76.1121 44.6151 75.6405 45.7826 75.727 44.7827C75.8239 43.6595 76.7714 43.5643 77.1042 43.4327C76.5743 45.5938 76.8231 45.2718 77.0444 45.78C77.4112 43.5946 78.416 42.0198 79.009 40.2868C78.0335 40.6076 77.905 40.8727 77.1598 40.3248C77.8656 39.178 78.1734 39.3687 77.8907 38.569L77.7293 38.3047C77.7108 38.1932 77.6913 38.1094 77.6718 38.0476C77.7101 38.0028 77.7567 37.9372 77.8116 37.8459C77.9551 37.6077 78.6769 37.2118 78.9166 36.651C79.3967 35.5293 78.5175 37.4443 78.5835 35.7432L79.934 34.6507C79.9353 34.6325 79.9367 34.6147 79.9379 34.5979C79.9048 34.5145 79.8673 34.4133 79.8251 34.2908C79.7639 34.1145 79.762 34.3659 79.5288 33.4622C81.3464 32.6803 80.5244 32.4353 80.5918 32.0736C80.5963 32.0482 80.6223 31.9477 80.6278 31.9234C80.9183 30.6576 80.8097 32.0114 80.4301 30.735C81.5357 29.7502 82.0656 28.591 83.485 27.5091C86.7768 24.9995 94.5853 24.122 98.364 24.5076C97.9018 23.9976 97.8169 23.7777 96.4335 23.6708C94.3491 23.5099 92.1431 25.0799 90.9338 23.3439C87.4105 24.7458 85.4195 23.8122 82.1976 26.7408C78.486 30.1146 74.058 37.7352 71.6132 42.7054C70.778 44.4042 70.0972 45.6587 69.041 46.852L66.08 50.555C61.7884 55.2962 58.5526 58.5725 55.3961 66.4164C51.0902 77.1149 53.7047 83.7961 53.8615 91.3962C47.4745 96.104 35.9858 95.8568 29.6011 101.141C28.2899 102.226 24.6549 105.625 26.5233 108.961C31.0498 117.042 44.1319 111.379 50.5854 106.015C52.48 104.44 54.392 101.863 57.6223 101.545C58.8736 102.371 58.229 103.131 60.2248 104.045C64.0364 105.787 79.6998 102.722 84.3597 103.499C85.9737 103.769 86.46 104.801 88.0887 105.148C90.377 105.634 90.5064 104.64 91.8985 103.873C93.0234 104.794 91.9333 104.548 93.1918 105.201C94.7713 104.269 97.0343 101.125 95.3178 98.5529C94.1452 96.7953 90.7712 96.6849 88.4399 96.4283C89.4281 93.6649 90.777 94.5466 93.4439 93.3369C93.3802 91.9764 93.5422 93.2649 92.769 91.6521L94.9727 90.9192C94.5417 89.8156 95.7508 90.3677 93.7458 89.8494C93.7884 89.7466 93.8613 89.4883 93.8866 89.549L94.5421 88.1403L93.185 87.5207C94.1003 81.2641 94.5961 82.7643 92.3477 77.3569C96.2832 71.7047 91.9327 72.004 97.6312 68.5088C99.5327 67.342 102.809 66.0751 105.023 65.8043C107.08 65.5525 105.631 65.8457 107.097 66.7185C110.562 62.8169 109.648 59.5663 106.706 58.8588C103.383 58.0594 99.3109 59.7329 96.2357 60.533C96.2426 57.9494 96.8404 48.7988 97.4044 46.3211C97.9044 44.1251 97.9493 44.2124 99.1743 42.8347L99.0913 41.9238L98.7185 37.8246L97.7085 42.0755C97.2951 41.1317 97.6549 41.6952 97.4939 41.0444L96.6784 43.1032C96.6472 43.0046 96.6465 42.8673 96.6342 42.7911C96.6218 42.7145 96.6036 42.5727 96.587 42.4771L95.2528 45.1198L94.9002 42.6944C94.3918 43.9401 94.4698 45.0728 94.3859 46.8046L93.2003 44.4156C93.2549 46.9817 94.5831 48.6012 94.6419 51.0669L91.801 45.4353C92.0426 48.5876 93.8027 51.5992 94.3683 54.471C93.9777 53.6417 91.9268 50.5007 91.7883 49.9975C91.663 52.2663 92.3956 52.697 92.9889 54.7372C91.6335 53.9177 91.167 53.0319 90.4612 51.101L90.0296 52.3881C89.3946 50.5444 90.1365 49.6934 90.5721 47.9699C89.3816 49.2126 89.7547 48.9551 88.9883 50.498C88.5062 49.1523 89.0271 49.1758 88.8488 47.8076C88.8075 47.4898 88.8104 47.3529 88.8241 47.301C88.7844 47.268 88.7089 47.1755 88.5743 46.9567L87.5441 49.0825L87.3409 45.9878C86.9993 46.5531 87.0051 46.8258 86.6906 47.296C86.2902 47.894 85.9464 47.5672 85.9639 48.2414C86.5482 49.9391 88.3088 51.7502 88.4337 52.8647C88.2988 52.1829 88.0645 52.1768 87.4684 52.027C87.6186 53.1912 88.4536 54.3477 88.8946 55.8665C87.7543 54.7141 88.0919 54.1096 86.3768 53.1392C86.7576 55.7212 88.3833 56.2396 89.3816 58.1019L88.3612 57.6427C88.7099 59.0204 88.9038 58.3791 89.502 59.8682C88.4702 59.0931 87.979 58.9213 86.5641 58.9881C87.7217 59.2759 89.0602 60.5489 89.5156 61.4765L86.4014 60.2611L86.0782 61.4419C85.3742 61.0316 85.155 60.7749 84.5776 60.4203C85.6068 63.1681 87.5412 62.9538 90.6134 62.7445C93.2266 62.5667 95.2798 62.1419 97.7287 61.4685C99.7838 60.9031 102.173 59.864 104.223 59.6596C106.72 59.4105 108.961 60.7688 107.884 63.8196C107.818 63.8359 107.722 63.8066 107.683 63.8028L107.245 63.7547C104.707 63.5344 104.104 65.3132 103.929 63.5211C103.92 63.4244 103.901 63.3698 103.863 63.3092C103.095 63.8859 103.341 63.5393 102.741 64.3042C102.58 64.1908 102.315 64.0353 101.91 63.8256C101.219 63.4681 100.873 64.0243 99.8131 65.3751C99.2324 65.2223 99.775 65.4308 99.5343 64.9894L97.6598 66.2593L98.3126 64.2132C97.4145 64.6212 96.5148 65.961 96.0998 67.0936C96.0734 67.0296 96.065 66.9199 96.063 66.8858L96.0344 66.4565C96.0377 66.4061 96.0504 66.2851 96.0571 66.234C96.1824 65.2966 96.0721 66.1448 96.3408 65.3246C94.6334 67.1353 93.265 69.7557 92.0846 70.0279C92.5387 69.2244 92.6535 68.8376 93.2861 67.8141C92.2101 68.6013 92.2733 68.8633 91.4429 69.9574C90.7259 70.9016 90.3681 71.161 89.1647 71.767C89.9739 69.6453 90.9114 69.6278 91.6064 67.7159C89.4782 69.378 87.655 71.9137 85.4988 72.8041C85.9477 71.8932 86.3107 71.7146 87.0656 70.8883L88.7424 68.7848C87.3457 69.5835 86.5127 70.3874 85.1134 71.2209C84.3197 71.6934 82.7594 72.5056 81.8463 72.525L81.2013 72.382C83.6002 71.1656 85.7668 70.7336 86.5358 67.3321C84.4248 68.4766 85.4887 68.8952 83.9498 69.5641L84.6726 66.8987C83.5306 68.1126 82.262 70.1769 80.8103 70.7951C81.619 69.701 82.1823 68.9093 82.5961 67.4846L82.182 67.4754C81.4459 68.2786 80.2333 69.3169 78.9647 69.6214C79.8248 68.5448 79.6832 69.0863 80.4112 67.3363C80.3195 67.3833 80.2096 67.4512 80.1422 67.4914L78.5669 68.4967C77.5726 69.0442 77.4428 69.006 76.2936 69.028C77.6952 67.9662 77.1881 68.9858 77.7742 67.471L74.3624 67.0398C75.2004 65.7118 75.0758 67.031 75.658 65.2469C74.4035 65.5616 73.8176 65.7812 72.7355 65.2051C72.8021 65.1521 72.9007 65.0978 72.9472 65.0679L74.5595 63.964C73.678 63.8552 72.7761 63.9227 72.1063 63.6694C72.096 63.6656 69.5182 61.0506 68.2613 66.6811C68.7694 66.1608 69.2866 65.6557 69.8138 65.0622C70.8716 63.8723 70.4566 63.8525 71.5648 64.4923C71.0167 65.7308 70.6472 65.2579 69.6824 66.4467C69.1106 67.1513 68.7076 67.9901 68.2994 68.9748L69.1669 69.3908C69.188 69.3263 69.2892 69.439 69.3435 69.4784C68.3091 70.111 67.4166 71.8405 66.9056 73.057L67.6133 73.2762L69.3692 72.3816C69.3773 72.4078 69.4076 72.5261 69.4157 72.5527L72.2365 72.5352L70.9848 74.1586L74.2392 73.9444C73.8778 74.2864 73.8638 74.2352 73.4874 74.6314C73.4312 74.6906 73.3528 74.7767 73.3014 74.8332L72.7556 75.5359C76.5431 75.1297 80.606 74.5313 84.3298 75.5264C86.7273 76.1672 92.6311 78.469 89.9661 81.753L90.0484 82.2793L91.0301 81.8819L91.6116 81.4178L91.181 82.0324C90.7357 83.2364 90.5688 83.3012 89.7749 83.8962C90.3571 84.3373 90.4524 84.4548 91.5938 83.8177C90.8632 84.8143 90.5155 85.3763 89.4203 85.7881C90.0855 86.4793 90.9949 86.4896 91.2457 86.5692C90.5779 86.986 90.8161 86.8184 90.2176 87.3811C90.1314 87.4626 89.8848 87.7255 89.837 87.7743C89.7921 87.8203 89.6763 88.055 89.6441 87.9859C89.6112 87.9158 89.5149 88.1304 89.4486 88.201C90.1206 88.7406 89.9287 88.7496 91.6042 88.9336C90.9035 89.9403 91.7912 89.2358 90.4387 89.8244C90.5227 89.9105 90.6322 90.0052 90.7051 90.0628L91.8273 90.7815L90.3932 91.3616L91.3518 92.6514C88.9493 92.822 90.0865 92.7363 88.9191 91.6631C88.1254 90.9336 87.5068 91.1232 86.27 90.6924L86.6727 91.1705C88.4344 92.9031 87.4433 90.9358 88.4253 93.0203L85.5616 91.6946C85.9181 92.847 85.9613 92.3707 86.2769 93.4526L84.404 92.6028L85.5574 94.0028C84.0852 94.0036 83.4502 93.0704 82.1078 92.4962C82.6846 94.0131 82.1254 93.0393 83.0869 94.134L81.1519 92.9126C81.6089 94.3904 81.349 93.6604 82.1791 94.8484C81.4479 94.5496 79.7307 93.2592 79.3964 92.9069C79.5711 93.324 79.6654 93.5311 79.867 93.9001L80.4646 94.9277C80.4932 94.8632 80.5781 95.1109 80.5794 95.3346L77.0238 94.6338C76.3648 95.669 77.0713 95.0445 77.0043 95.735L74.3966 94.0733C74.8526 95.3577 74.7443 94.8856 75.4616 96.0206C74.5498 95.6782 72.6987 94.0657 72.2895 93.5918C72.9621 95.3888 72.6681 95.049 73.8729 96.4013C72.9823 95.944 71.8061 94.875 71.2181 94.0165L72.096 96.5408C71.8975 96.4263 71.2798 96.0263 71.2756 96.0251C70.0848 95.6804 70.1769 97.2951 69.5377 94.9057C68.9424 96.2159 69.5295 95.7301 68.7925 95.9656C67.6582 96.3281 67.2149 93.814 67.1408 92.5156L66.1653 95.178L66.0621 92.7723L65.7339 92.9907L65.128 94.8272L65.0043 89.7622C64.5822 90.5092 64.589 90.5847 64.3453 91.5236L63.5481 93.6752L63.6389 89.006L62.6556 91.888L62.6188 88.3329L61.6153 90.6298L61.3024 87.8768C61.2657 87.9711 61.2273 88.0766 61.1866 88.1809L60.8428 89.0849C60.8028 89.1756 60.7352 89.2984 60.7014 89.3712L60.3806 85.5306L59.3586 89.6579C58.8674 87.3777 58.9989 86.2242 59.2613 83.9429C59.2155 84.0297 59.1615 84.1476 59.1342 84.2114L58.0233 87.7895C57.5878 85.2015 57.8555 83.9827 58.1743 81.5019C57.8048 82.4033 57.2987 83.9538 56.8166 85.0035C56.4888 82.7389 56.7883 81.4503 57.31 79.4523C56.2451 80.221 56.7776 80.4318 55.8635 80.8493C55.9667 79.0541 56.4731 77.6792 57.083 76.6416C56.384 77.218 56.8947 76.9495 55.9302 77.3758C56.0229 76.6454 56.1638 76.1851 56.2672 75.6387L56.29 73.9944C56.357 73.2823 56.3599 73.5356 56.5492 73.0347C57.1601 71.4177 57.9674 70.577 59.0863 69.9483C58.1841 68.2339 59.1098 69.6991 57.7417 68.7447C58.0809 68.5149 58.4869 68.4546 58.697 67.7402C58.7432 67.5835 58.7809 67.4576 58.8119 67.3571C58.7478 67.4948 58.6823 67.5445 58.6921 67.1736C58.6931 67.1411 58.6765 67.036 58.6784 67.0041L59.3192 64.928C59.5215 63.7149 59.3147 64.1544 59.9337 63.4111C60.3106 62.181 60.5771 62.2872 61.6427 61.6983C61.6605 61.5853 61.6566 61.4438 61.6645 61.3543C61.6781 61.1981 62.1244 55.6279 66.1327 57.0026L66.0416 56.1972C65.5281 54.0084 68.004 53.209 70.091 52.2932C69.6661 50.8371 69.4921 51.9861 69.8802 51.0722C69.9297 50.9558 69.917 50.8909 69.8857 50.8564C69.9556 50.8557 70.0607 50.8481 70.2133 50.8276L72.6421 51.4264C73.2354 50.8791 73.3515 50.5818 73.992 50.0001ZM67.346 101.329L67.3193 101.329C67.0383 101.819 67.2709 101.009 67.346 101.329ZM70.2415 100.185C70.199 100.182 70.199 100.162 70.2415 100.185V100.185ZM72.1483 99.562C76.2529 98.8241 98.0904 95.0142 93.7874 103.571C92.6532 103.094 93.1072 102.772 92.2771 101.833C90.7133 102.37 90.8209 103.535 88.8985 104.033C89.3211 103.502 89.5884 103.259 89.9732 102.526C89.9072 102.466 89.8038 102.41 89.755 102.38L89.3175 102.106C89.2307 102.055 88.9568 101.916 88.8657 101.865C86.3497 100.439 87.4459 100.484 87.4465 100.478L86.0782 99.3712C86.0472 99.4353 86.016 99.5415 86.0017 99.5726L85.7379 100.111C85.7145 100.147 85.6546 100.231 85.6283 100.267C84.9465 101.178 84.1076 102.045 82.9513 101.985C83.4662 101.545 84.0907 101.13 84.5773 100.107C83.3748 100.258 82.6491 100.783 81.7991 100.838C79.8839 100.96 81.4928 100.136 79.0327 100.626C76.938 101.044 76.0467 101.085 73.9286 101.56L75.8024 102.023C74.5628 102.471 74.6159 102.655 73.2351 102.475C70.9077 102.173 60.0479 105.436 59.3554 100.762C61.8915 100.584 61.9003 103.647 64.5958 102.116C65.3788 101.672 65.8273 102.145 67.3229 102.224L67.3668 101.549C67.3646 101.446 67.3571 101.376 67.346 101.329L71.0593 101.404C70.603 100.459 70.3301 100.231 70.2415 100.185C70.2543 100.185 70.2705 100.185 70.2907 100.181C70.3359 100.172 70.4 100.148 70.4833 100.091C70.5252 100.063 70.5717 100.025 70.6234 99.9776C70.75 99.8608 71.867 99.6124 72.1483 99.562ZM41.2884 107.064C41.358 107.243 41.3323 107.306 41.2884 107.064V107.064ZM39.8539 98.4411C42.7648 97.4172 47.1401 95.7517 50.3645 96.3342C49.8805 97.4051 50.6601 95.9098 49.2192 97.3315L48.8152 97.815C49.9768 97.8245 51.5985 97.2526 52.3223 97.6254C51.8728 98.3887 52.0735 98.2822 51.3956 98.675C49.7894 99.606 50.3951 97.738 49.521 99.4634C48.9642 100.563 49.7764 99.7952 48.664 100.764C47.3206 100.503 47.8797 99.6188 46.0722 100.759C46.0087 102.69 47.6781 101.151 46.1385 103.016C43.7406 105.921 42.7603 109.019 40.823 109.827C41.8885 106.255 43.8063 105.775 44.4728 104.125C44.7451 103.452 44.7402 104.288 44.7005 102.918C44.6592 101.497 44.5726 102.038 44.3642 101.595C41.8359 102.233 43.9127 102.731 43.913 102.732C44.0096 103.084 44.3404 102.591 43.4362 104.03C42.4317 105.627 42.624 105.964 41.2669 106.927C41.2741 106.978 41.2809 107.021 41.2874 107.058C41.2878 107.06 41.2881 107.062 41.2884 107.064C41.1951 106.824 40.929 106.375 40.3012 106.174C39.5684 107.755 37.7728 108.034 36.8104 108.34L38.1993 109.069C36.2734 113.632 25.8793 111.274 28.2892 104.791L28.5693 106.259C28.5966 106.36 28.6483 106.499 28.6727 106.581L28.9258 107.232C28.9973 106.649 29.0588 106.031 29.2367 105.592C30.1543 103.332 29.5789 107.567 31.2088 104.034C31.1315 103.974 31.0127 103.933 30.9519 103.907L29.6046 103.43C30.4926 102.514 30.69 102.653 31.4983 102.008L31.3464 103.097C32.8785 102.409 32.2562 102.549 33.1452 101.525L35.25 100.21C36.7229 99.6018 38.3079 98.9844 39.8539 98.4411ZM69.8857 50.8564C69.6464 50.8583 69.8145 50.7783 69.8857 50.8564V50.8564ZM52.7718 101.117C52.4716 100.147 52.8811 98.3128 53.4184 97.4259C54.0482 98.2954 54.0102 98.1787 53.705 99.4141C53.5173 100.175 52.9579 100.842 52.7718 101.117ZM50.5083 103.129C50.0018 101.93 50.6312 100.798 51.3923 100.098C51.7875 101.645 51.4161 102.507 50.5083 103.129ZM44.7571 107.02C45.1201 106.014 46.7621 103.037 47.5239 102.612C47.3375 104.567 45.7902 106.289 44.7571 107.02ZM38.6371 110.638C39.086 109.136 39.0893 108.675 40.5741 108.229C39.9805 109.528 39.6565 110.066 38.6371 110.638ZM84.7442 102.236C85.3371 100.9 85.9834 100.871 86.9814 102.078L84.7442 102.236ZM80.3914 101.549L82.3229 101.75C81.9901 101.876 81.5204 102.086 81.1874 102.055C80.3124 101.973 80.8468 101.949 80.3914 101.549ZM76.4601 102.291C76.8833 101.471 79.0204 101.692 79.6205 101.737C78.8437 102.247 77.4789 102.41 76.4601 102.291ZM86.8442 103.075L88.0796 102.265L88.8013 102.903C88.0535 103.602 87.7536 103.601 86.8442 103.075ZM48.0869 104.965C48.0076 103.043 48.6649 102.331 49.7325 101.425C49.2794 104.063 48.6643 103.616 48.0869 104.965Z" fill="#000"/><path fill-rule="evenodd" clip-rule="evenodd" d="M79.8055 39.1944C79.7899 41.3081 78.0676 43.5508 77.618 46.6345L78.6277 45.1806C78.9897 44.5067 79.0375 44.3027 79.2532 43.6968C79.9392 45.1939 79.2346 45.9227 80.458 47.4164C80.2059 45.2542 80.0862 43.7055 81.0939 42.2414C81.1082 44.5011 81.2575 45.1419 82.0987 46.5848L81.9116 43.743C82.8953 44.8791 82.3771 44.6346 82.8721 44.4715L82.8559 40.9692C79.7632 40.191 80.337 37.755 81.4065 36.3925C83.4127 33.837 83.3646 37.1357 84.5496 31.7616L84.196 31.7473L83.2686 34.4411C83.2478 34.3691 83.1574 34.0937 83.1278 34.1586L82.5391 32.7256C81.6309 36.5575 79.8527 32.8405 79.8055 39.1944Z" fill="#000"/><path fill-rule="evenodd" clip-rule="evenodd" d="M92.1136 28.2994C92.1177 28.7126 91.9351 29.3566 91.6361 29.6131C91.3719 29.8399 90.8136 29.6725 90.618 29.272C90.8016 29.1198 91.9487 28.3237 92.1136 28.2994Z" fill="#FCFCFC"/></svg>