<svg width="70" height="97" viewBox="0 0 70 97" fill="none" xmlns="http://www.w3.org/2000/svg"><path fill-rule="evenodd" clip-rule="evenodd" d="M41.8105 84.3378C57.8805 81.1685 70 66.9996 70 50C70 30.67 54.33 15 35 15C15.67 15 0 30.67 0 50C0 66.5947 11.549 80.4919 27.048 84.0927L34.5 97L41.8105 84.3378Z" fill="#3C6"/><g filter="url(#filter0_f)"><ellipse cx="35" cy="62" rx="29" ry="9" fill="#000" fill-opacity=".2"/></g><path fill-rule="evenodd" clip-rule="evenodd" d="M35.7926 24.7002L35.8606 25.2994C32.878 24.2767 32.5461 28.4212 32.5359 28.5374C32.53 28.604 32.533 28.7092 32.5197 28.7933C31.7269 29.2314 31.5287 29.1523 31.2481 30.0677L31.4478 30.2354C32.0564 29.576 31.9943 29.5201 32.9815 29.6227C32.4049 30.8903 32.295 30.1169 31.6514 31.2843L31.8849 31.307L32.782 31.522C32.5553 31.7328 32.457 31.8675 32.1862 32.2248C32.0502 32.404 31.9544 32.5496 31.8381 32.703C31.6985 32.887 31.585 33.1128 31.5574 33.0547C31.5319 33.0012 31.4546 33.1787 31.4182 33.2397L31.3413 32.1988L30.9481 32.4976L30.791 31.1963L30.3141 32.741C30.3128 32.7645 30.325 32.8429 30.3244 32.8671C30.3041 33.6453 30.7267 31.9344 30.3281 33.2885C30.1716 33.8201 29.8695 33.865 29.6173 34.0361C30.6352 34.7461 29.9463 33.6561 30.6176 34.9316C29.7851 35.3992 29.1845 36.0249 28.73 37.2278C28.5891 37.6007 28.587 37.4122 28.5371 37.9421L28.5202 39.1653C28.4432 39.5719 28.3384 39.9144 28.2695 40.4579C28.987 40.1408 28.6071 40.3405 29.1271 39.9116C28.6732 40.6836 28.2966 41.7066 28.2197 43.0425C28.9 42.7318 28.5036 42.575 29.2959 42.0031C28.9079 43.4897 28.6851 44.4483 28.929 46.1332C29.2877 45.3524 29.6641 44.1985 29.939 43.528C29.7018 45.3738 29.5028 46.2805 29.8268 48.2063L30.6534 45.5438C30.6736 45.4963 30.7137 45.4088 30.748 45.3442C30.5526 47.0413 30.4549 47.8999 30.8203 49.5963L31.5806 46.5254L31.8193 49.3829C31.8445 49.3289 31.8948 49.2374 31.9246 49.17L32.1804 48.4972C32.2107 48.4197 32.2391 48.3413 32.2665 48.2712L32.4994 50.3194L33.2459 48.6105L33.2732 51.2556L34.0049 49.1112L33.9374 52.5855L34.5305 50.9845C34.7118 50.286 34.7067 50.2298 35.0209 49.6738L35.1128 53.4424L35.5637 52.0761C35.757 50.9238 35.3144 50.6246 36.0986 50.9731L35.8079 51.9136L35.8848 53.7033L36.6104 51.7226C36.6656 52.6886 36.9955 54.5591 37.8393 54.2895C38.3877 54.1143 37.9511 54.4758 38.3939 53.501C38.8695 55.2787 38.8011 54.0772 39.6871 54.3337C39.6902 54.3346 40.1496 54.6323 40.2974 54.7175L39.6442 52.8392C40.0818 53.478 40.9569 54.2734 41.6195 54.6136C40.7231 53.6076 40.9418 53.8604 40.4414 52.5233C40.7458 52.876 42.1231 54.0755 42.8016 54.3304C42.2678 53.486 42.3485 53.8372 42.0092 52.8814L43.9493 54.118C43.9993 53.6042 43.4735 54.0688 43.9639 53.2986L46.6094 53.8199C46.6084 53.6535 46.5451 53.4693 46.5241 53.5171L46.0793 52.7526C45.9293 52.4781 45.8591 52.3242 45.7292 52.0136C45.9781 52.2758 47.2556 53.2358 47.7996 53.4584C47.1821 52.5743 47.3754 53.1175 47.0354 52.0179L48.4752 52.9266C47.7596 52.1123 48.1757 52.8369 47.7466 51.7082C48.7454 52.1353 49.2179 52.8298 50.3131 52.8292L49.455 51.7873L50.8485 52.4197C50.6139 51.6149 50.5817 51.9691 50.3163 51.1118L52.4471 52.098C51.7165 50.5473 52.4538 52.011 51.1432 50.7218L50.8433 50.366C51.7636 50.6866 52.2238 50.5453 52.8144 51.0882C53.6831 51.8868 52.837 51.9506 54.6245 51.8234L53.9112 50.8638L54.9783 50.4322L54.1433 49.8978C54.0892 49.8548 54.0076 49.7843 53.9452 49.7201C54.9515 49.2823 54.291 49.8066 54.8122 49.0573C53.5657 48.9204 53.7084 48.9138 53.2085 48.5123C53.2578 48.4598 53.3295 48.3 53.3538 48.3522C53.3778 48.4036 53.464 48.229 53.4974 48.1949C53.533 48.1585 53.7165 47.9628 53.7807 47.9025C54.2259 47.4835 54.0488 47.6082 54.5457 47.2982C54.3589 47.2391 53.6824 47.2314 53.1873 46.7169C54.0023 46.4107 54.2611 45.9925 54.8046 45.251C53.9554 45.7251 53.8845 45.6374 53.4511 45.3095C54.042 44.8666 54.1661 44.8184 54.4975 43.9226L54.3851 43.8106L53.6548 44.1064L53.1237 44.2256L53.5936 43.7147C55.5762 41.2713 51.1838 39.5587 49.3997 39.082C46.6292 38.3416 43.6062 38.7869 40.7883 39.089L41.1944 38.5662C41.2324 38.5241 41.2907 38.4601 41.3327 38.416C41.6127 38.1213 41.6232 38.1592 41.892 37.9047L39.4707 38.0643L40.4018 36.8564L38.3032 36.8694C38.2972 36.8496 38.2745 36.7617 38.2685 36.7422L36.9622 37.4076C36.7634 37.6415 36.8242 37.6217 36.5092 37.8749C36.4702 37.9062 36.1081 38.0762 36.05 38.1024C36.2073 36.5119 36.1894 37.5131 36.4355 37.2447C36.8157 36.3393 37.4799 35.0525 38.2493 34.5821C38.2091 34.5525 38.1338 34.4687 38.118 34.5169L37.4726 34.2074C37.7764 33.4744 38.0761 32.8505 38.5015 32.3262C39.2194 31.4416 39.4944 31.7936 39.9022 30.872C39.0775 30.3962 39.3864 30.4108 38.5994 31.2961C38.2071 31.7375 37.8223 32.1136 37.4442 32.5005C38.3795 28.3114 40.2974 30.2568 40.3051 30.2598C40.8033 30.4484 41.4746 30.3981 42.1304 30.4789L40.9308 31.3004C40.8962 31.3227 40.8227 31.3629 40.7732 31.4025C41.5783 31.8309 42.0142 31.6675 42.9476 31.4334C42.5145 32.7609 42.6071 31.7795 41.9838 32.7675L44.5221 33.0884C44.0862 34.2155 44.4635 33.4568 43.4206 34.2467C44.2757 34.2304 44.3723 34.2589 45.112 33.8514L46.2842 33.1036C46.3342 33.0737 46.4161 33.023 46.4842 32.9882C45.9427 34.2901 46.0478 33.8872 45.4081 34.6882C46.3519 34.4616 47.2542 33.6892 47.8018 33.0916C47.8614 32.9852 48.004 32.631 48.0847 32.553L48.11 33.0984C47.8022 34.1586 47.3829 34.7475 46.7812 35.5616C47.8613 35.1016 48.8051 33.5656 49.6549 32.6625L49.1172 34.6457C50.2622 34.1481 49.4704 33.8366 51.0412 32.9849C50.4689 35.516 48.857 35.8371 47.0722 36.7422L47.552 36.8487C48.2314 36.8343 49.3923 36.23 49.9828 35.8783C51.0239 35.2582 51.6438 34.66 52.6831 34.0658L51.4355 35.6311C50.8737 36.2458 50.6036 36.3786 50.2698 37.0565C51.874 36.3938 53.2304 34.5071 54.814 33.2707C54.2968 34.6932 53.5993 34.706 52.9972 36.2847C53.8927 35.8337 54.1588 35.6409 54.6922 34.9383C55.31 34.1244 55.2632 33.9295 56.0637 33.3437C55.5931 34.1051 55.5076 34.3928 55.1698 34.9909C56.0481 34.7883 57.0661 32.8385 58.3365 31.4913C58.1365 32.1017 58.2187 31.4704 58.1256 32.168C58.1205 32.206 58.111 32.296 58.1085 32.3335L58.1299 32.6528C58.1313 32.6784 58.1377 32.7599 58.1571 32.8075C58.4659 31.9647 59.1354 30.968 59.8035 30.6643L59.3178 32.1868L60.7127 31.2418C60.8918 31.5702 60.4881 31.4152 60.9201 31.5287C61.7091 30.5238 61.9661 30.1099 62.4807 30.3761C64.7991 31.5753 60.9397 30.4033 63.0588 30.7825C63.5561 30.1478 63.346 30.4331 63.9333 29.9918C63.9618 30.0368 63.9755 30.0775 63.9825 30.1495C64.1125 31.4829 64.5611 30.1593 66.4499 30.3232L66.7756 30.359C66.8049 30.362 66.8763 30.3835 66.9251 30.3715C67.7264 28.1016 66.0588 27.0909 64.201 27.2763C62.6756 27.4285 60.8983 28.2016 59.3692 28.6222C57.547 29.1233 56.0194 29.4394 54.0751 29.5717C51.7894 29.7272 50.35 29.8868 49.5843 27.8425C50.0138 28.1061 50.177 28.297 50.7006 28.6025L50.9412 27.724L53.2583 28.6283C52.9196 27.938 51.9236 26.991 51.0623 26.7768C52.115 26.727 52.4805 26.8549 53.2482 27.4316C52.8031 26.3237 52.6587 26.8006 52.3995 25.7755L53.1586 26.1174C52.4157 24.7318 51.2062 24.3461 50.9228 22.4248C52.199 23.147 51.9479 23.5967 52.7962 24.4541C52.468 23.3241 51.8468 22.4635 51.7352 21.5974C52.1786 21.7087 52.3529 21.7132 52.4534 22.2206C52.3603 21.3914 51.0504 20.0438 50.6157 18.7806C50.6026 18.2791 50.8584 18.5224 51.1563 18.0772C51.3904 17.7274 51.3861 17.5246 51.6403 17.104L51.7915 19.4066L52.5578 17.8249C52.9604 18.4786 52.6529 17.6179 52.7622 18.4578C52.8947 19.4758 52.5072 19.4584 52.8659 20.4597C53.4361 19.3117 53.1586 19.5034 54.0445 18.5787C53.7203 19.861 53.1682 20.4941 53.6408 21.8659L53.9617 20.9083C54.487 22.3452 54.8341 23.0042 55.8427 23.6138C55.4012 22.096 54.8561 21.7754 54.9492 20.0873C55.0524 20.4617 56.5782 22.7988 56.8688 23.4158C56.448 21.2791 55.1385 19.0383 54.9588 16.693L57.0725 20.883C57.0286 19.0486 56.0406 17.8435 55.9998 15.9342L56.8821 17.7118C56.9443 16.4232 56.8864 15.5804 57.2647 14.6535L57.527 16.458L58.5196 14.4919C58.532 14.5629 58.5457 14.6684 58.5549 14.7255C58.564 14.7822 58.5645 14.8842 58.5877 14.9578L59.1945 13.426C59.3143 13.91 59.0467 13.4908 59.3541 14.193L60.1056 11.0303L60.4447 14.758C60.3052 14.3824 60.2378 14.7989 60.3625 14.1836C60.5363 13.3262 60.3946 13.6872 60.7948 13.1723C60.6636 11.8502 60.5178 9.80976 61.0461 8.89099C61.4187 9.52046 61.4205 9.0364 61.3484 10.0869C61 8.65435 61.5116 9.55733 61.7502 9.24545L61.4012 7.56114C62.326 7.09021 61.6845 8.01532 62.1423 7.28365L61.2867 2.86314C60.1609 2.58934 60.2185 3.23597 59.7535 3.07329C59.4136 1.95376 59.9629 1.94356 60.5982 1.30465L59.8419 1.12186C57.0304 0.834983 51.2206 1.48789 48.7714 3.35499C47.7152 4.1601 47.3209 5.02253 46.4984 5.75517C46.7808 6.70494 46.8615 5.69768 46.6454 6.63932C46.6412 6.65753 46.622 6.73224 46.6185 6.7512C46.5685 7.02051 47.1801 7.20266 45.8277 7.78437C46.0012 8.45664 46.0027 8.26965 46.0481 8.40087C46.5137 9.74864 46.1924 7.69836 46.1293 8.66875L45.1245 9.48141C45.0753 10.7471 45.7295 9.32247 45.3723 10.157C45.1938 10.5743 44.6568 10.8687 44.5501 11.0461C44.163 11.6896 44.3563 10.5937 44.4888 11.3875L44.6088 11.5842C44.8193 12.179 44.5903 12.0371 44.0651 12.8903C44.6195 13.298 44.715 13.1008 45.4409 12.8621C44.9997 14.1515 44.2522 15.3234 43.9791 16.9493C43.8147 16.5712 43.6294 16.8109 44.0236 15.2029C43.7761 15.3007 43.0711 15.3715 42.999 16.2072C42.9346 16.9513 43.2857 16.0824 42.7676 17.9096L42.6279 18.836C42.5879 19.5816 42.3982 19.4625 41.708 20.0893C41.2316 20.5222 41.1451 20.7432 40.7037 21.1505L38.8967 20.705C38.2245 20.7958 38.7935 20.5463 38.6487 20.887C38.3599 21.5668 38.4894 20.712 38.8057 21.7955C37.2528 22.4767 35.4107 23.0717 35.7926 24.7002Z" fill="#000"/><path fill-rule="evenodd" clip-rule="evenodd" d="M60.4447 14.758L60.1055 11.0303L59.3541 14.193C59.0466 13.4908 59.3143 13.91 59.1944 13.426L58.5876 14.9578C58.5644 14.8842 58.5639 14.7822 58.5548 14.7255C58.5456 14.6684 58.532 14.5629 58.5196 14.4919L57.527 16.458L57.2647 14.6535C56.8863 15.5804 56.9443 16.4232 56.882 17.7118L55.9997 15.9342C56.0406 17.8435 57.0286 19.0486 57.0724 20.883L54.9587 16.693C55.1385 19.0383 56.448 21.2791 56.8688 23.4158C56.5782 22.7988 55.0524 20.4616 54.9492 20.0873C54.8561 21.7754 55.4012 22.0959 55.8426 23.6138C54.834 23.0042 54.487 22.3452 53.9617 20.9083L53.6408 21.8659C53.1681 20.4941 53.7202 19.861 54.0444 18.5787C53.1585 19.5034 53.4361 19.3116 52.8659 20.4597C52.5072 19.4584 52.8947 19.4758 52.7622 18.4578C52.6529 17.6179 52.9604 18.4786 52.5578 17.8249L51.7915 19.4066L51.6403 17.104C51.3861 17.5246 51.3903 17.7273 51.1562 18.0772C50.8584 18.5224 50.6025 18.2791 50.6157 18.7806C51.0504 20.0438 52.3603 21.3914 52.4534 22.2206C52.3529 21.7132 52.1786 21.7087 51.7351 21.5974C51.8468 22.4635 52.468 23.3241 52.7962 24.4541C51.9479 23.5967 52.1989 23.147 50.9228 22.4248C51.2062 24.3461 52.4157 24.7317 53.1586 26.1174L52.3994 25.7755C52.6587 26.8006 52.803 26.3237 53.2481 27.4316C52.4804 26.8549 52.115 26.727 51.0623 26.7768C51.9235 26.991 52.9196 27.938 53.2583 28.6283L50.9412 27.724L50.7005 28.6025C50.177 28.297 50.0138 28.1061 49.5843 27.8425C50.35 29.8868 51.7893 29.7272 54.0751 29.5717C56.0194 29.4394 57.547 29.1233 59.3692 28.6222C60.8983 28.2016 62.6756 27.4285 64.201 27.2763C66.0588 27.0909 67.7264 28.1016 66.925 30.3715C66.8762 30.3835 66.8049 30.362 66.7756 30.359L66.4498 30.3232C64.5611 30.1593 64.1124 31.4829 63.9825 30.1495C63.9754 30.0775 63.9618 30.0367 63.9332 29.9918C63.346 30.4331 63.556 30.1478 63.0587 30.7825C60.9397 30.4033 64.799 31.5753 62.4806 30.3761C61.9661 30.1099 61.7091 30.5238 60.92 31.5287C60.488 31.4152 60.8918 31.5702 60.7126 31.2418L59.3178 32.1868L59.8035 30.6643C59.1353 30.968 58.4658 31.9647 58.1571 32.8075C58.1377 32.7599 58.1313 32.6784 58.1299 32.6528L58.1085 32.3335C58.111 32.296 58.1205 32.206 58.1255 32.168C58.2186 31.4704 58.1365 32.1017 58.3365 31.4913C57.0661 32.8385 56.0481 34.7883 55.1698 34.9909C55.5076 34.3928 55.593 34.1051 56.0637 33.3437C55.2632 33.9295 55.3099 34.1243 54.6921 34.9383C54.1588 35.6409 53.8926 35.8337 52.9972 36.2847C53.5993 34.7059 54.2968 34.6932 54.8139 33.2707C53.2304 34.5071 51.874 36.3938 50.2697 37.0565C50.6036 36.3786 50.8737 36.2458 51.4354 35.6311L52.683 34.0658C51.6438 34.66 51.0239 35.2582 49.9828 35.8783C49.3922 36.23 48.2314 36.8343 47.552 36.8487L47.0721 36.7422C48.8569 35.8371 50.4689 35.516 51.0411 32.9849C49.4704 33.8366 50.2621 34.1481 49.1172 34.6457L49.6549 32.6625C48.8051 33.5656 47.8613 35.1016 46.7811 35.5616C47.3829 34.7475 47.8021 34.1586 48.11 33.0984L47.8018 33.0916C47.2542 33.6892 46.3518 34.4616 45.4081 34.6882C46.0478 33.8872 45.9427 34.2901 46.4842 32.9882C46.4161 33.023 46.3341 33.0737 46.2842 33.1036L45.112 33.8514C44.3723 34.2589 44.2757 34.2303 43.4205 34.2467C44.4634 33.4568 44.0862 34.2155 44.5221 33.0884L41.9838 32.7675C42.6071 31.7795 42.5145 32.7609 42.9475 31.4334C42.0141 31.6675 41.5783 31.8309 40.7732 31.4025C40.8227 31.3629 40.8962 31.3227 40.9307 31.3004L42.1303 30.4789C41.4745 30.3981 40.8033 30.4484 40.3051 30.2598C40.2974 30.2568 38.3795 28.3114 37.4442 32.5005C37.8223 32.1136 38.207 31.7375 38.5994 31.2961C39.3863 30.4108 39.0775 30.3962 39.9021 30.872C39.4944 31.7936 39.2194 31.4416 38.5015 32.3262C38.0761 32.8505 37.7764 33.4744 37.4725 34.2074L38.118 34.5169C38.1338 34.4687 38.2091 34.5525 38.2493 34.5821C37.4799 35.0525 36.8157 36.3393 36.4354 37.2447L36.9621 37.4076L38.2685 36.7422C38.2745 36.7616 38.2971 36.8496 38.3032 36.8694L40.4018 36.8564L39.4706 38.0643L41.892 37.9047C41.6231 38.1592 41.6126 38.1213 41.3327 38.416C41.2907 38.4601 41.2324 38.5241 41.1943 38.5662L40.7882 39.089C43.6062 38.7869 46.6292 38.3416 49.3997 39.082C51.1837 39.5587 55.5762 41.2713 53.5936 43.7147L53.6547 44.1064L54.385 43.8106L54.8177 43.4652L54.4974 43.9226C54.166 44.8183 54.042 44.8666 53.4511 45.3095C53.8845 45.6374 53.9554 45.7251 54.8045 45.251C54.261 45.9925 54.0023 46.4107 53.1873 46.7169C53.6824 47.2314 54.3588 47.2391 54.5456 47.2981C54.0488 47.6082 54.2259 47.4835 53.7807 47.9024C53.7164 47.9628 53.5329 48.1585 53.4974 48.1949C53.464 48.229 53.3778 48.4036 53.3538 48.3522C53.3295 48.3 53.2578 48.4598 53.2085 48.5123C53.7084 48.9138 53.5657 48.9204 54.8122 49.0573C54.291 49.8066 54.9515 49.2823 53.9451 49.72C54.0076 49.7843 54.0892 49.8548 54.1432 49.8978L54.9783 50.4322L53.9112 50.8638L54.6244 51.8234C52.837 51.9506 53.6831 51.8868 52.8143 51.0882C52.2238 50.5453 51.7635 50.6866 50.8433 50.366L51.1432 50.7218C52.4538 52.011 51.7164 50.5473 52.4471 52.098L50.3162 51.1118C50.5817 51.9691 50.6138 51.6149 50.8485 52.4197L49.4549 51.7873L50.3131 52.8292C49.2179 52.8298 48.7453 52.1353 47.7465 51.7082C48.1756 52.8369 47.7595 52.1123 48.4752 52.9266L47.0353 52.0179C47.3754 53.1175 47.182 52.5743 47.7996 53.4584C47.2556 53.2358 45.978 52.2758 45.7292 52.0136C45.8591 52.3242 45.9292 52.4781 46.0792 52.7526L46.524 53.5171C46.5451 53.4693 46.6083 53.6535 46.6094 53.8199L43.9639 53.2986C43.4734 54.0688 43.9992 53.6042 43.9493 54.118L42.0092 52.8814C42.3485 53.8372 42.2677 53.486 42.8015 54.3304C42.123 54.0755 40.7458 52.876 40.4413 52.5232C40.9417 53.8604 40.7231 53.6076 41.6194 54.6136C40.9569 54.2734 40.0818 53.478 39.6442 52.8392L40.2974 54.7175C40.1496 54.6323 39.6902 54.3346 39.687 54.3336C38.801 54.0772 38.8695 55.2787 38.3938 53.501C37.951 54.4758 38.3877 54.1143 37.8393 54.2895C36.9955 54.5591 36.6656 52.6886 36.6103 51.7226L35.8847 53.7033L35.8079 51.9136L35.5637 52.076L35.1127 53.4424L35.0209 49.6738C34.7066 50.2297 34.7117 50.286 34.5305 50.9845L33.9374 52.5855L34.0049 49.1112L33.2732 51.2556L33.2459 48.6105L32.4994 50.3194L32.2664 48.2712C32.239 48.3413 32.2107 48.4197 32.1804 48.4972L31.9246 49.17C31.8948 49.2374 31.8445 49.3289 31.8193 49.3829L31.5806 46.5254L30.8202 49.5962C30.4549 47.8998 30.5526 47.0413 30.7479 45.3442C30.7136 45.4088 30.6736 45.4963 30.6533 45.5438L29.8268 48.2063C29.5027 46.2805 29.7018 45.3738 29.9389 43.528C29.6641 44.1985 29.2876 45.3524 28.929 46.1332C28.685 44.4483 28.9078 43.4897 29.2959 42.0031C28.5035 42.575 28.8999 42.7318 28.2197 43.0424C28.2965 41.7066 28.6732 40.6836 29.127 39.9116C28.607 40.3405 28.987 40.1408 28.2695 40.4579C28.3383 39.9144 28.4432 39.5719 28.5202 39.1653L28.537 37.9421C28.5869 37.4122 28.5891 37.6007 28.73 37.2278C29.1844 36.0249 29.7851 35.3992 30.6176 34.9316C29.9462 33.6561 30.6351 34.7461 29.6172 34.0361C29.8695 33.865 30.1715 33.8201 30.328 33.2885C30.7266 31.9344 30.3041 33.6453 30.3244 32.8671C30.3249 32.8429 30.3127 32.7645 30.314 32.741L30.791 31.1963C30.9414 30.2935 30.7875 30.6205 31.2481 30.0677C31.5287 29.1523 31.7269 29.2314 32.5197 28.7933C32.533 28.7092 32.53 28.604 32.5359 28.5374C32.5461 28.4212 32.878 24.2767 35.8605 25.2993L35.7926 24.7002C35.4106 23.0717 37.2527 22.4767 38.8056 21.7955C38.4894 20.712 38.3599 21.5668 38.6487 20.887C38.7935 20.5463 38.2244 20.7958 38.8966 20.705L40.7036 21.1505C41.145 20.7432 41.2315 20.5222 41.708 20.0893C42.3981 19.4625 42.5878 19.5816 42.6278 18.836L42.7676 17.9096C43.2856 16.0824 42.9346 16.9513 42.9989 16.2072C43.0711 15.3715 43.776 15.3007 44.0236 15.2029C43.6294 16.8109 43.8146 16.5712 43.9791 16.9493C44.2521 15.3234 44.9996 14.1515 45.4409 12.8621C44.715 13.1008 44.6195 13.298 44.0651 12.8903C44.5903 12.0371 44.8192 12.179 44.6088 11.5842L44.4888 11.3875C44.3562 10.5937 44.1629 11.6896 44.5501 11.0461C44.6568 10.8687 45.1938 10.5743 45.3722 10.157C45.7294 9.32247 45.0753 10.7471 45.1244 9.4814L46.1292 8.66874C46.1923 7.69836 46.5137 9.74864 46.0481 8.40087C46.0026 8.26964 46.0011 8.45664 45.8276 7.78437C47.1801 7.20265 46.5685 7.0205 46.6185 6.75119C46.622 6.73224 46.6412 6.65752 46.6453 6.63932C46.8614 5.69768 46.7808 6.70493 46.4983 5.75517C47.3208 5.02253 47.7151 4.16009 48.7714 3.35498C51.2205 1.48789 57.0304 0.83498 59.8419 1.12186C59.498 0.742406 59.4348 0.578574 58.4054 0.499192C56.8546 0.379658 55.2134 1.54763 54.3134 0.255859C51.6918 1.299 50.2105 0.604381 47.8133 2.7833C45.0518 5.29345 41.7572 10.9636 39.9383 14.6615C39.3166 15.9256 38.81 16.859 38.0244 17.7469L35.8213 20.5022C32.6281 24.0298 30.2206 26.4676 27.8719 32.3035C24.6681 40.2638 26.6136 45.235 26.7301 50.8897C21.9778 54.3926 13.43 54.2084 8.67937 58.1401C7.7037 58.9475 4.9992 61.4767 6.3894 63.9583C9.75742 69.9711 19.4909 65.7578 24.2926 61.7664C25.7022 60.5946 27.1249 58.6773 29.5283 58.4406C30.4595 59.0557 29.9796 59.6213 31.4648 60.3004C34.3008 61.5974 45.955 59.3163 49.422 59.8949C50.6228 60.0954 50.9847 60.8638 52.1967 61.1214C53.8992 61.4833 53.9956 60.744 55.0312 60.1731C55.8682 60.8585 55.0571 60.6749 55.9936 61.1612C57.1687 60.4677 58.8525 58.1286 57.5754 56.2145C56.7028 54.9068 54.1925 54.8248 52.4578 54.6336C53.1932 52.5776 54.1967 53.2338 56.1812 52.3337C56.1338 51.3213 56.2542 52.28 55.6789 51.0802L57.3185 50.5347C56.9979 49.7135 57.8974 50.1245 56.4056 49.7387C56.4373 49.6623 56.4917 49.4702 56.5104 49.5153L56.9981 48.4672L55.9883 48.0062C56.6695 43.3509 57.0384 44.4671 55.3655 40.4439C58.2936 36.2385 55.0566 36.4611 59.2964 33.8604C60.7115 32.9925 63.1495 32.0496 64.7965 31.8482C66.3272 31.661 65.2487 31.879 66.3391 32.5285C68.9175 29.6254 68.2378 27.207 66.0484 26.6804C63.5761 26.0857 60.5464 27.3308 58.2584 27.926C58.2634 26.0039 58.7082 19.1955 59.1279 17.3519C59.4998 15.718 59.5332 15.7828 60.4447 14.758Z" fill="#000"/><path fill-rule="evenodd" clip-rule="evenodd" d="M9.97807 59.5952L10.091 58.7855C9.48961 59.2652 9.34265 59.1622 8.682 59.8434L9.68445 60.1982C9.72967 60.2179 9.81791 60.2482 9.87568 60.2926C8.66288 62.921 9.091 59.7702 8.40825 61.4523C8.27588 61.7785 8.23022 62.2384 8.17685 62.6721L7.98858 62.188C7.97039 62.1265 7.93201 62.0231 7.91165 61.9484L7.70317 60.8559C5.91025 65.6796 13.6438 67.4342 15.0767 64.0386L14.0433 63.4961C14.7596 63.2688 16.0955 63.0611 16.6408 61.8851C17.5103 62.1631 17.447 63.082 17.3592 62.4448C18.3689 61.7286 18.2258 61.4778 18.9731 60.2895C19.6461 59.2194 19.3999 59.5857 19.3279 59.324C19.3278 59.3236 17.7826 58.9528 19.6638 58.4779C19.8189 58.8073 19.8832 58.4048 19.9139 59.4626C19.9436 60.482 19.947 59.8599 19.7446 60.3607C19.2488 61.5876 17.8217 61.9454 17.0288 64.6027C18.4703 64.0015 19.1998 61.6962 20.984 59.535C22.1294 58.1476 20.8873 59.2929 20.9345 57.8559C22.2794 57.0077 21.8635 57.6652 22.863 57.8597C23.6905 57.1388 23.0863 57.7098 23.5006 56.892C24.151 55.6082 23.7002 56.9981 24.8954 56.3054C25.3999 56.013 25.2503 56.0924 25.5849 55.5243C25.0465 55.2471 23.8397 55.6724 22.9754 55.6655L23.276 55.3058C24.3481 54.2481 23.7681 55.3606 24.1282 54.5638C21.7291 54.1303 18.4737 55.3696 16.308 56.1312C15.1576 56.5357 13.9782 56.9949 12.8824 57.4478L11.3164 58.4262C10.6549 59.1876 11.1179 59.0839 9.97807 59.5952Z" fill="#000"/><path fill-rule="evenodd" clip-rule="evenodd" d="M39.5259 58.3362L36.7433 58.2801C36.5037 58.6978 36.7659 57.8462 36.7786 58.4438L36.746 58.9461C35.6331 58.8876 35.2995 58.5351 34.7169 58.8659C32.7112 60.005 32.7048 57.726 30.8177 57.8582C31.333 61.3361 39.4132 58.9084 41.1447 59.1333C42.1722 59.2667 42.1327 59.1301 43.0551 58.7969L41.6609 58.4525C43.2368 58.0989 43.9 58.0684 45.4585 57.7574C47.289 57.3923 46.0919 58.0059 47.5169 57.9146C48.1493 57.8741 48.6892 57.4834 49.5841 57.371C49.222 58.132 48.7572 58.4409 48.3741 58.7684C49.2345 58.8126 49.8586 58.168 50.3659 57.4899C50.3856 57.4636 50.43 57.4009 50.4474 57.374L50.6438 56.9734C50.6544 56.9503 50.6777 56.8713 50.7005 56.8235L51.7187 57.6471C51.7183 57.6518 50.9028 57.6183 52.7747 58.6789C52.8425 58.7173 53.0463 58.8205 53.1108 58.858L53.4364 59.0622C53.4728 59.0848 53.5497 59.126 53.5988 59.1709C53.3126 59.7163 53.1135 59.8972 52.799 60.2921C54.2294 59.9215 54.1493 59.0551 55.3129 58.655C55.9307 59.3539 55.5926 59.5933 56.4366 59.9486C59.6383 53.5817 43.3903 56.4165 40.3364 56.9655C40.1269 57.0031 39.2959 57.1877 39.2018 57.2749C38.7018 57.7377 38.8114 56.8569 39.5259 58.3362Z" fill="#000"/><path fill-rule="evenodd" clip-rule="evenodd" d="M59.8419 1.1219L60.5982 1.30468C59.9628 1.9436 59.4135 1.9538 59.7534 3.07332C60.2184 3.23601 60.1608 2.58937 61.2866 2.86317L62.1422 7.28369C61.6845 8.01535 62.3259 7.09024 61.4012 7.56118L61.7502 9.24548L62.2836 11.9499C62.3027 12.0075 62.3491 12.1037 62.366 12.1497C62.3828 12.1955 62.4194 12.2839 62.4551 12.3446L62.8732 8.11893C62.943 5.5734 63.2738 6.63169 63.8607 4.7563C63.4412 4.0891 62.9983 3.68079 62.5277 3.03213C62.0922 2.43187 62.23 2.71276 62.039 1.93588C61.5019 -0.248513 61.8536 -0.207093 54.3134 0.255893C55.2134 1.54767 56.8546 0.379691 58.4054 0.499225C59.4348 0.578607 59.498 0.74244 59.8419 1.1219Z" fill="#000"/><path fill-rule="evenodd" clip-rule="evenodd" d="M49.5633 6.51919L49.3002 6.5083L48.6104 8.51273C48.5949 8.45898 48.5274 8.25413 48.5055 8.30264L48.0676 7.23633C47.3918 10.0873 46.0686 7.32177 46.0336 12.0495C46.0219 13.622 44.7404 15.2908 44.4059 17.585L45.1573 16.5032C45.4267 16.0019 45.462 15.8503 45.6227 15.3992C46.133 16.5133 45.6088 17.0555 46.519 18.1669C46.3314 16.5581 46.2423 15.4058 46.9922 14.3164C47.0028 15.9977 47.114 16.4747 47.7397 17.5482L47.6007 15.4337C48.3324 16.2791 47.9468 16.0972 48.3154 15.9759L48.3032 13.3698C46.002 12.7908 46.4291 10.9782 47.2249 9.96454C48.7175 8.06317 48.6817 10.5176 49.5633 6.51919Z" fill="#000"/><path fill-rule="evenodd" clip-rule="evenodd" d="M52.2197 8.05866C52.6565 7.2941 52.6061 7.44059 53.4525 7.59619C52.9718 6.62736 52.8386 7.42452 53.3471 6.50788C56.7619 7.58219 55.3778 4.51774 55.7425 3.42725C53.5843 3.45697 52.4428 5.56664 52.2197 8.05866Z" fill="#000"/><path fill-rule="evenodd" clip-rule="evenodd" d="M38.3551 51.5914C38.5967 51.3048 38.4986 51.5798 38.6813 51.01C38.7896 50.6721 38.7261 50.6794 38.8667 50.314L38.9146 52.1775C39.7276 51.8374 40.7197 51.1233 41.394 50.5243L39.4414 50.9672C39.6611 50.4551 39.4136 50.9384 39.7176 50.5666C39.7516 50.5249 39.8184 50.4521 39.8546 50.4095L40.1791 50.0618C39.3825 49.8785 38.7093 49.5563 38.1565 49.3037L38.3551 51.5914Z" fill="#000"/><path fill-rule="evenodd" clip-rule="evenodd" d="M40.0682 24.7233L43.2569 19.8354C41.3383 20.3809 40.4977 22.2156 40.0682 24.7233Z" fill="#000"/><path fill-rule="evenodd" clip-rule="evenodd" d="M37.7856 54.0199C37.7373 51.548 38.1318 49.486 37.0435 47.6553C37.2616 49.0774 37.1852 49.4326 37.0757 50.8975C36.9533 52.5366 37.0151 50.8121 37.2953 52.4337C37.6946 54.7435 37.4152 53.4257 37.7856 54.0199Z" fill="#000"/><path fill-rule="evenodd" clip-rule="evenodd" d="M33.5228 35.1607C33.5217 32.9447 35.713 31.1865 35.9403 30.3746C34.0683 29.8805 33.349 32.9616 33.5228 35.1607Z" fill="#000"/><path fill-rule="evenodd" clip-rule="evenodd" d="M51.6229 4.01776C53.1054 3.44181 53.6072 2.98355 55.278 2.82254L56.5695 2.60639C56.6037 2.59314 56.6657 2.54493 56.7127 2.51221C55.8461 1.81937 54.7766 2.18079 53.8266 2.49746C53.3076 2.67051 53.0696 2.76084 52.619 3.03764L51.6229 4.01776Z" fill="#000"/><path fill-rule="evenodd" clip-rule="evenodd" d="M60.7948 13.1724C60.8166 14.9474 60.7289 13.7132 61.1174 14.1729L61.3483 10.087C61.4205 9.03652 61.4187 9.52058 61.0461 8.89111C60.5178 9.80988 60.6636 11.8503 60.7948 13.1724Z" fill="#000"/><path fill-rule="evenodd" clip-rule="evenodd" d="M47.201 12.1582L48.0484 12.4594C48.0782 12.368 48.1087 12.1876 48.1144 12.223C48.1204 12.2594 48.1558 12.0547 48.1637 11.9967C48.3084 10.921 48.0665 11.3131 48.5617 10.3559C48.5984 10.285 48.6599 10.1988 48.6923 10.1415C48.7258 10.0824 48.7889 9.99912 48.831 9.92285C47.4085 10.034 46.8321 10.6073 47.201 12.1582Z" fill="#000"/><path fill-rule="evenodd" clip-rule="evenodd" d="M59.9512 9.73382C60.9367 9.01022 60.8479 5.36993 60.3243 4.53613L60.0892 5.57168C60.0776 5.99122 60.1222 6.54586 60.1158 7.00003C60.1029 7.90117 60.0304 8.90497 59.9512 9.73382Z" fill="#000"/><path fill-rule="evenodd" clip-rule="evenodd" d="M40.3329 26.6484C40.9054 25.9867 41.0927 25.5304 41.6839 24.8222C42.1935 24.2116 42.68 23.7179 43.0263 22.9443C41.4451 23.2771 40.5596 24.9838 40.3329 26.6484Z" fill="#000"/><path fill-rule="evenodd" clip-rule="evenodd" d="M36.0986 50.9729C36.2048 50.9152 36.3088 51.5491 36.5853 50.2162C36.6626 49.8436 36.6606 48.9097 36.64 48.5071C36.5862 47.4488 36.4695 46.7235 36.0277 45.9087C36.1641 47.7243 35.9949 49.6562 36.0986 50.9729Z" fill="#000"/><path fill-rule="evenodd" clip-rule="evenodd" d="M37.4094 30.6917C38.3839 30.1207 38.0131 30.0741 38.5765 29.6234C39.4227 28.9464 39.2142 29.6604 39.6358 28.5976C38.2838 27.5421 37.8177 29.328 37.4094 30.6917Z" fill="#000"/><path fill-rule="evenodd" clip-rule="evenodd" d="M30.1293 40.7459L30.6834 39.2457L30.2139 38.7977C30.1952 38.7807 30.1377 38.7309 30.101 38.6956C30.5534 37.7565 30.645 38.0461 30.25 37.3765C29.5213 37.8582 29.7561 37.2997 29.7401 38.6718C29.7194 40.4527 29.7977 40.2779 30.1293 40.7459Z" fill="#000"/><path fill-rule="evenodd" clip-rule="evenodd" d="M33.0731 27.9188C33.1399 27.8745 33.2405 27.7226 33.2728 27.7842C33.3039 27.8434 33.4193 27.6843 33.4603 27.6468C35.1489 26.1031 35.1262 26.6711 35.1915 25.922C33.9661 25.372 33.3064 26.4187 33.0731 27.9188Z" fill="#000"/><path fill-rule="evenodd" clip-rule="evenodd" d="M45.9235 31.9634C45.5072 31.5557 44.5208 31.4485 43.1906 31.0176C43.4421 31.5483 43.1641 31.2645 43.6448 31.7816C43.6785 31.8179 44.2277 32.2058 44.2577 32.2183C45.8218 32.865 45.9166 31.9697 45.9235 31.9634Z" fill="#000"/><path fill-rule="evenodd" clip-rule="evenodd" d="M34.3066 35.9242C34.7669 35.0745 34.512 34.7292 34.9357 33.7729C35.226 33.1177 35.9134 32.6021 35.5757 32.2107C34.5888 31.0668 34.2451 35.2741 34.3066 35.9242Z" fill="#000"/><path fill-rule="evenodd" clip-rule="evenodd" d="M42.576 51.1977C44.0586 51.1522 44.9733 50.7794 45.3602 49.4126C44.2601 49.5716 43.523 50.6303 42.576 51.1977Z" fill="#000"/><path fill-rule="evenodd" clip-rule="evenodd" d="M36.6547 24.2026C37.65 23.6793 37.4479 23.5571 37.9368 23.2469C38.5974 22.8277 37.4932 23.4978 38.6008 22.9677C39.2842 22.6406 39.0347 22.8282 39.4363 22.2859C38.0912 21.7856 37.2569 23.0245 36.6547 24.2026Z" fill="#000"/><path fill-rule="evenodd" clip-rule="evenodd" d="M19.9562 62.5145C20.7247 61.9708 21.8761 60.6896 22.0146 59.2354C21.448 59.5509 20.2262 61.7659 19.9562 62.5145Z" fill="#000"/><path fill-rule="evenodd" clip-rule="evenodd" d="M48.1183 50.3659C50.8399 50.2877 49.2388 49.3937 50.767 50.3529C50.4634 48.8479 50.8004 50.2899 50.6808 49.6775L50.4599 48.9834C49.5092 49.4216 48.9278 49.8801 48.1183 50.3659Z" fill="#000"/><path fill-rule="evenodd" clip-rule="evenodd" d="M51.4211 30.28L48.7477 29C49.327 30.3004 50.3925 30.9185 51.4211 30.28Z" fill="#000"/><path fill-rule="evenodd" clip-rule="evenodd" d="M31.4236 37.7613C31.549 37.5556 31.6029 37.5568 31.7646 37.1147L32.3527 34.8721C31.0928 35.0837 31.3794 36.1363 31.4236 37.7613Z" fill="#000"/><path fill-rule="evenodd" clip-rule="evenodd" d="M25.9193 58.1225C26.0578 57.9176 26.474 57.4212 26.6138 56.8553C26.8409 55.9362 26.8692 56.023 26.4006 55.376C26.0007 56.0359 25.696 57.4007 25.9193 58.1225Z" fill="#000"/><path fill-rule="evenodd" clip-rule="evenodd" d="M30.791 31.1964L30.9481 32.4977L31.3413 32.199L31.8849 31.3072L31.6514 31.2845C31.6015 31.3439 31.5229 31.4334 31.4986 31.459L31.4478 30.2356L31.2481 30.0679C30.7875 30.6206 30.9415 30.2936 30.791 31.1964Z" fill="#000"/><path fill-rule="evenodd" clip-rule="evenodd" d="M37.1196 27.2794C37.7645 26.9559 37.2708 27.2529 37.7087 26.9249C38.6284 26.2361 38.7017 26.2732 38.9942 25.4629C37.763 25.6135 37.4575 25.9943 37.1196 27.2794Z" fill="#000"/><path fill-rule="evenodd" clip-rule="evenodd" d="M31.4478 30.2356L31.4985 31.459C31.5229 31.4334 31.6015 31.3439 31.6514 31.2845C32.295 30.117 32.4049 30.8904 32.9815 29.6228C31.9943 29.5203 32.0564 29.5761 31.4478 30.2356Z" fill="#000"/><path fill-rule="evenodd" clip-rule="evenodd" d="M41.6465 28.2254C42.3949 27.1439 42.6321 27.5283 42.8535 26.0762C41.6542 26.3251 41.7019 26.5017 41.6465 28.2254Z" fill="#000"/><path fill-rule="evenodd" clip-rule="evenodd" d="M39.6748 46.8839C39.6525 46.2382 39.7984 46.3785 39.254 46.4406L37.7773 47.8969L39.5847 47.5362C39.4647 47.1968 39.4081 47.6186 39.6748 46.8839Z" fill="#000"/><path fill-rule="evenodd" clip-rule="evenodd" d="M24.2352 59.6195C24.9108 59.1568 25.187 58.5156 24.893 57.3643C24.3267 57.8852 23.8584 58.7271 24.2352 59.6195Z" fill="#000"/><path fill-rule="evenodd" clip-rule="evenodd" d="M57.4144 12.9583L57.8209 13.0177C57.875 11.9871 57.9315 12.4163 58.176 11.4649C58.2021 11.3634 58.3151 10.6965 58.3042 10.6293C58.1322 9.57069 58.3264 10.4324 57.9183 10.1509L57.4144 12.9583Z" fill="#000"/><path fill-rule="evenodd" clip-rule="evenodd" d="M31.8849 31.3066L31.3413 32.1984L31.4182 33.2393C31.4546 33.1783 31.5319 33.0008 31.5573 33.0543C31.585 33.1124 31.6985 32.8866 31.8381 32.7026C31.9544 32.5492 32.0501 32.4036 32.1861 32.2244C32.457 31.8671 32.5553 31.7324 32.7819 31.5216L31.8849 31.3066Z" fill="#000"/><path fill-rule="evenodd" clip-rule="evenodd" d="M30.5355 42.6559L30.9822 41.1861C31.2141 40.2969 31.5722 40.8574 31.0168 39.9438C30.1088 40.6865 30.3962 41.3344 30.5355 42.6559Z" fill="#000"/><path fill-rule="evenodd" clip-rule="evenodd" d="M30.9863 35.7136C31.1859 35.4535 31.0286 35.7102 31.3452 35.2071L32.1422 33.6903C30.8782 33.562 30.9468 34.111 30.9863 35.7136Z" fill="#000"/><path fill-rule="evenodd" clip-rule="evenodd" d="M31.942 44.8735C31.9921 45.2717 31.8632 44.9826 32.043 45.5798C32.2792 46.364 32.2968 46.1714 32.4099 46.3679L32.5439 44.0228C32.1779 43.5799 32.6971 43.8567 32.023 43.7222L31.942 44.8735Z" fill="#000"/><path fill-rule="evenodd" clip-rule="evenodd" d="M22.4336 60.9855C22.8632 59.9818 23.3208 60.3142 23.658 58.3516C22.8636 59.0256 22.3746 59.5555 22.4336 60.9855Z" fill="#000"/><path fill-rule="evenodd" clip-rule="evenodd" d="M16.7581 56.6465C17.2257 57.3069 16.7444 56.6797 17.2311 57.145L17.7675 57.6802C18.3335 56.5925 17.9537 57.576 17.8906 56.7722L17.8076 56.2303C17.2036 56.1025 17.3277 55.9913 16.7581 56.6465Z" fill="#000"/><path fill-rule="evenodd" clip-rule="evenodd" d="M56.4247 14.7071C57.1225 13.6715 56.9708 12.9288 56.9728 11.3657C56.4031 12.1727 56.5282 13.1105 56.4247 14.7071Z" fill="#000"/><path fill-rule="evenodd" clip-rule="evenodd" d="M41.2433 26.4779C41.9519 26.0335 42.4319 25.6186 42.7056 24.7422C41.507 25.0715 41.6182 25.0847 41.2433 26.4779Z" fill="#000"/><path fill-rule="evenodd" clip-rule="evenodd" d="M34.0293 29.9005L34.3031 29.9355L35.4146 29.2804C35.3286 29.1304 35.3237 28.3353 34.4477 28.9418C34.1401 29.1547 34.1736 29.391 34.0293 29.9005Z" fill="#000"/><path fill-rule="evenodd" clip-rule="evenodd" d="M13.1057 58.658C13.5889 58.4496 13.4519 58.626 14.0072 58.1698C14.6062 57.6777 14.4271 57.7789 14.5499 57.3008C13.4996 57.3983 13.4456 57.5737 13.1057 58.658Z" fill="#000"/><path fill-rule="evenodd" clip-rule="evenodd" d="M44.4788 20.2405C45.0253 19.4122 45.3303 19.3723 45.5861 18.0601C44.5512 18.6941 44.6159 18.8334 44.4788 20.2405Z" fill="#000"/><path fill-rule="evenodd" clip-rule="evenodd" d="M15.4027 65.2061C16.1611 64.7803 16.4021 64.3802 16.8439 63.4136C15.7389 63.746 15.7366 64.0886 15.4027 65.2061Z" fill="#000"/><path fill-rule="evenodd" clip-rule="evenodd" d="M57.3451 9.1328C57.4021 9.07047 57.4894 8.89155 57.5174 8.9476L58.0403 8.25725C58.2676 7.86742 58.3048 7.72622 58.4972 7.19238C57.6787 7.46924 57.5417 7.20235 57.3451 9.1328Z" fill="#000"/><path fill-rule="evenodd" clip-rule="evenodd" d="M38.7885 48.8522C39.4957 49.0404 40.124 49.3495 40.8178 48.7927C40.6307 48.6128 41.3031 48.3783 39.8812 48.4519L38.7885 48.8522Z" fill="#000"/><path fill-rule="evenodd" clip-rule="evenodd" d="M62.7303 5.65407C63.4035 4.49197 62.9236 4.42486 62.1703 3.88525C62.3108 5.181 62.2305 4.82263 62.6128 5.49645C62.634 5.53384 62.6934 5.59928 62.7303 5.65407Z" fill="#000"/><path fill-rule="evenodd" clip-rule="evenodd" d="M50.0229 18.6342L49.573 16.4829C49.5729 16.483 48.5617 16.4839 49.5831 18.1197C49.8039 18.4732 49.8028 18.3859 50.0229 18.6342Z" fill="#000"/><path fill-rule="evenodd" clip-rule="evenodd" d="M33.6942 29.091C34.2422 28.2857 33.9159 28.8729 34.2781 28.5648C34.8147 28.1086 34.6671 28.4035 34.9301 27.6606C33.8271 27.7894 33.7312 27.8461 33.6942 29.091Z" fill="#000"/><path fill-rule="evenodd" clip-rule="evenodd" d="M20.1248 55.7171C20.461 56.0716 19.9943 56.0584 20.6473 56.1188C21.7145 56.2173 21.1977 55.9587 21.3994 55.8049C21.1571 55.3502 21.7192 55.3897 20.9034 55.3327C20.6662 55.3162 20.2061 55.6107 20.1248 55.7171Z" fill="#000"/><path fill-rule="evenodd" clip-rule="evenodd" d="M49.7083 58.9548L51.3727 58.8371C50.6303 57.9392 50.1493 57.9608 49.7083 58.9548Z" fill="#000"/><path fill-rule="evenodd" clip-rule="evenodd" d="M22.4154 56.536L20.6243 56.3325C20.7541 56.5128 21.1273 56.8776 21.407 56.9365C23.1312 57.2996 22.0212 56.9605 22.4154 56.536Z" fill="#000"/><path fill-rule="evenodd" clip-rule="evenodd" d="M43.5446 58.9958C44.3024 59.0844 45.3179 58.9629 45.896 58.5835C45.4495 58.5497 43.8593 58.3854 43.5446 58.9958Z" fill="#000"/><path fill-rule="evenodd" clip-rule="evenodd" d="M51.2705 59.5788C51.9472 59.97 52.1703 59.9712 52.7268 59.451L52.1897 58.9761L51.2705 59.5788Z" fill="#000"/><path fill-rule="evenodd" clip-rule="evenodd" d="M31.1333 44.2395C31.2084 44.6629 30.832 44.5825 31.3288 44.5854C31.7231 44.9685 31.4095 44.7479 31.9421 44.8737L32.0231 43.7224L31.9909 43.5308C31.9829 43.5401 31.5963 43.9363 31.5254 43.9975C31.4849 44.0326 31.3668 44.1837 31.3351 44.1244C31.3027 44.0636 31.2007 44.2014 31.1333 44.2395Z" fill="#000"/><path fill-rule="evenodd" clip-rule="evenodd" d="M9.62903 61.6197C9.66584 61.645 10.0945 61.9168 10.1172 61.9192C11.2719 62.039 10.5798 61.887 10.8958 61.6952C10.3281 60.9269 9.71338 61.1399 9.62903 61.6197Z" fill="#000"/><path fill-rule="evenodd" clip-rule="evenodd" d="M50.2267 25.6576L50.2179 24.1126L49.3451 23.5195L50.2267 25.6576Z" fill="#000"/><path fill-rule="evenodd" clip-rule="evenodd" d="M43.3416 52.027C44.3765 52.0837 44.4049 52.0523 44.7391 51.0845C43.4769 51.3649 44.3444 51.2833 43.3416 52.027Z" fill="#000"/><path fill-rule="evenodd" clip-rule="evenodd" d="M31.1333 44.2395C31.2007 44.2013 31.3026 44.0635 31.3351 44.1244C31.3668 44.1836 31.4848 44.0325 31.5253 43.9975C31.5963 43.9362 31.9829 43.5401 31.9909 43.5307C31.6811 42.7356 32.1572 43.1496 31.5062 43.0039C31.0832 43.7029 31.3298 43.1248 31.1333 44.2395Z" fill="#000"/><path fill-rule="evenodd" clip-rule="evenodd" d="M32.2176 37.7566C33.1094 37.2353 32.7445 37.7158 32.9253 36.6411C32.3059 36.821 32.1147 36.4659 32.2176 37.7566Z" fill="#000"/><path fill-rule="evenodd" clip-rule="evenodd" d="M38.379 23.8297C38.6512 24.0022 38.2288 24.2013 38.9019 24.0393C39.7715 23.83 39.2328 23.8801 39.4162 23.5493C39.0059 23.3468 38.5025 23.2323 38.379 23.8297Z" fill="#000"/><path fill-rule="evenodd" clip-rule="evenodd" d="M14.8484 61.1124C15.057 61.2812 14.4143 61.5158 15.5356 61.3971C15.9218 61.3562 15.8755 61.2703 16.2009 61.0496C15.7771 60.7648 15.085 60.8545 14.8484 61.1124Z" fill="#000"/><path fill-rule="evenodd" clip-rule="evenodd" d="M50.224 48.6017C51.3356 48.2925 51.0601 48.6472 51.3399 47.7363C51.0934 47.8267 51.1886 47.6767 50.8915 47.893C50.1523 48.431 50.6363 47.9227 50.224 48.6017Z" fill="#000"/><path fill-rule="evenodd" clip-rule="evenodd" d="M11.8513 58.2322C11.9643 58.3359 11.8124 59.3325 12.835 58.3046C12.5633 58.0986 12.3058 57.9191 11.8513 58.2322Z" fill="#000"/><path fill-rule="evenodd" clip-rule="evenodd" d="M36.9621 37.4076L36.4354 37.2446C36.1894 37.513 36.2073 36.5118 36.0499 38.1023C36.1081 38.0761 36.4701 37.9061 36.5092 37.8748C36.8242 37.6216 36.7633 37.6414 36.9621 37.4076Z" fill="#000"/><path fill-rule="evenodd" clip-rule="evenodd" d="M17.1384 58.8902C17.551 59.1756 16.6044 59.2892 17.7048 59.1615C18.6096 59.0565 17.7762 59.2549 18.1523 58.8731C18.0527 58.793 18.169 58.2412 17.1384 58.8902Z" fill="#000"/><path fill-rule="evenodd" clip-rule="evenodd" d="M42.8551 50.0073C44.4518 49.7985 43.4255 50.2788 43.8476 49.2803C43.1703 49.5562 42.9161 49.426 42.8551 50.0073Z" fill="#000"/><path fill-rule="evenodd" clip-rule="evenodd" d="M10.9719 63.0942C10.3965 62.3235 11.6364 62.6717 9.77539 62.2588C10.353 62.9778 10.0005 62.6758 10.9719 63.0942Z" fill="#000"/><path fill-rule="evenodd" clip-rule="evenodd" d="M36.9135 25.9839C38.2974 25.3939 37.4549 25.7938 37.8412 25.0801C36.2685 25.6095 37.5069 25.3632 36.9135 25.9839Z" fill="#000"/><path fill-rule="evenodd" clip-rule="evenodd" d="M35.5637 52.0763L35.8079 51.9138L36.0986 50.9733C35.3144 50.6248 35.757 50.924 35.5637 52.0763Z" fill="#000"/><path fill-rule="evenodd" clip-rule="evenodd" d="M47.9414 20.1925C48.3617 19.6786 48.5653 21.1123 48.2313 19.4565C48.1907 19.255 47.9636 18.9615 47.8915 18.8398L47.9414 20.1925Z" fill="#000"/><path fill-rule="evenodd" clip-rule="evenodd" d="M10.1414 60.8115L10.9352 60.3938C10.2467 59.7925 10.2274 59.85 10.1414 60.8115Z" fill="#000"/><path fill-rule="evenodd" clip-rule="evenodd" d="M50.5245 14.7388L51.0727 13.5249C50.6397 13.8344 50.3675 12.9141 50.5245 14.7388Z" fill="#000"/><path fill-rule="evenodd" clip-rule="evenodd" d="M15.3273 60.1628C15.4166 60.3286 15.151 60.6143 15.734 60.4394C16.7741 60.1273 15.907 60.4436 16.303 59.9697L15.3273 60.1628Z" fill="#000"/><path fill-rule="evenodd" clip-rule="evenodd" d="M46.4695 58.4434C46.8084 58.7416 46.4107 58.7592 47.0616 58.8198C47.3094 58.843 47.6589 58.6872 47.9066 58.5935L46.4695 58.4434Z" fill="#000"/><path fill-rule="evenodd" clip-rule="evenodd" d="M37.8438 27.5947C38.5407 27.3335 37.9574 27.6867 38.3139 27.3919C38.6873 27.083 38.5428 27.2032 38.7864 26.873C38.0545 27.1188 37.9134 26.9354 37.8438 27.5947Z" fill="#000"/><path fill-rule="evenodd" clip-rule="evenodd" d="M54.3171 5.39782C55.1588 5.16388 54.7414 5.50912 54.9744 4.7002C53.9412 4.92002 54.7125 4.83091 54.3171 5.39782Z" fill="#000"/><path fill-rule="evenodd" clip-rule="evenodd" d="M51.7351 21.5972L51.0316 20.6353C51.5822 22.4435 51.0253 21.265 51.7351 21.5972Z" fill="#000"/><path fill-rule="evenodd" clip-rule="evenodd" d="M10.9821 64.6898C10.6227 64.2777 10.9816 64.2218 9.76562 63.9302L10.9821 64.6898Z" fill="#000"/><path fill-rule="evenodd" clip-rule="evenodd" d="M17.9524 60.0118C17.9547 60.0287 18.5012 60.3793 18.2892 59.9505C18.2217 59.8138 17.8075 58.9546 17.9524 60.0118Z" fill="#000"/><path fill-rule="evenodd" clip-rule="evenodd" d="M34.3031 29.9356L34.0292 29.9005C33.9822 30.0388 33.5164 29.3361 34.0397 30.4949L34.3031 29.9356Z" fill="#000"/><path fill-rule="evenodd" clip-rule="evenodd" d="M49.3003 6.50797L49.5634 6.51886L49.8208 5.78955C49.51 6.10587 49.5876 5.90511 49.3003 6.50797Z" fill="#000"/><path fill-rule="evenodd" clip-rule="evenodd" d="M52.3995 25.7757C52.2099 25.4464 52.89 25.5627 51.5889 25.1768L52.3995 25.7757Z" fill="#000"/><path fill-rule="evenodd" clip-rule="evenodd" d="M57.8209 13.0175L57.4145 12.958L57.1421 13.5022L57.8209 13.0175Z" fill="#000"/><path fill-rule="evenodd" clip-rule="evenodd" d="M53.6548 44.1066L53.5936 43.7148L53.1237 44.2258L53.6548 44.1066Z" fill="#000"/><path fill-rule="evenodd" clip-rule="evenodd" d="M44.6097 22.0751C45.2049 21.4908 45.0097 22.957 44.8909 21.7982C44.8385 21.2873 44.9126 21.6509 44.6856 21.355L44.6097 22.0751Z" fill="#000"/><path fill-rule="evenodd" clip-rule="evenodd" d="M35.5431 48.3367L35.643 47.5596C35.1038 48.3262 35.0793 46.4616 35.4167 48.1537C35.4239 48.1899 35.4812 48.3066 35.5431 48.3367Z" fill="#000"/><path fill-rule="evenodd" clip-rule="evenodd" d="M47.8018 33.0918L48.11 33.0986L48.0847 32.5532C48.0039 32.6312 47.8614 32.9854 47.8018 33.0918Z" fill="#000"/><path fill-rule="evenodd" clip-rule="evenodd" d="M54.4974 43.9227L54.8177 43.4653L54.385 43.8107L54.4974 43.9227Z" fill="#000"/><path fill-rule="evenodd" clip-rule="evenodd" d="M39.6748 46.8836L39.8263 46.3501L39.254 46.4404C39.7984 46.3782 39.6525 46.2379 39.6748 46.8836Z" fill="#000"/><path fill-rule="evenodd" clip-rule="evenodd" d="M35.7926 24.7002L35.8606 25.2993L35.7926 24.7002Z" fill="#000"/><path fill-rule="evenodd" clip-rule="evenodd" d="M37.0435 47.6555C38.1319 49.4863 37.7374 51.5482 37.7856 54.0201C37.4153 53.4259 37.6945 54.7438 37.2955 52.4339C37.0152 50.8124 36.9532 52.5369 37.0757 50.8979C37.1851 49.433 37.2616 49.0775 37.0435 47.6555ZM52.3994 25.7757L51.5889 25.1767C52.89 25.5627 52.2099 25.4462 52.3994 25.7757ZM51.7351 21.5974C51.0255 21.2653 51.5824 22.4439 51.0318 20.6356L51.7351 21.5974ZM52.7439 18.0811C52.761 18.0167 52.7997 18.1276 52.7439 18.0811V18.0811ZM46.1322 8.62948C46.1966 7.81521 46.4664 9.47256 46.1322 8.62948V8.62948ZM30.4135 33.0037C30.5626 32.5181 30.489 32.8423 30.4135 33.0037V33.0037ZM36.0987 50.9732L35.808 51.9136L35.8848 53.7036L36.6106 51.7226C36.6657 52.6887 36.9956 54.5593 37.8395 54.2896C38.3879 54.1144 37.9511 54.4758 38.394 53.501C38.8695 55.2788 38.801 54.0774 39.6871 54.3339C39.6902 54.3347 40.1498 54.6324 40.2974 54.7176L39.6442 52.8394C40.0818 53.4781 40.9569 54.2735 41.6195 54.6138C40.7231 53.6076 40.9419 53.8604 40.4414 52.5233C40.7459 52.876 42.1232 54.0757 42.8016 54.3305C42.2679 53.486 42.3485 53.8373 42.0092 52.8816L43.9494 54.118C43.9993 53.6043 43.4736 54.0689 43.964 53.2987L46.6095 53.8201C46.6085 53.6536 46.5453 53.4694 46.524 53.5173L46.0794 52.7527C45.9294 52.4782 45.8592 52.3241 45.7292 52.0138C45.978 52.2759 47.2556 53.236 47.7997 53.4583C47.1821 52.5744 47.3754 53.1175 47.0354 52.018L48.4752 52.9268C47.7598 52.1123 48.1758 52.8368 47.7467 51.7082C48.7455 52.1354 49.2179 52.8297 50.3133 52.8292L49.4551 51.7875L50.8486 52.4198C50.6138 51.6148 50.5817 51.9692 50.3164 51.1118L52.4471 52.0981C51.7164 50.5472 52.4539 52.011 51.1431 50.7218L50.8435 50.3661C51.7637 50.6866 52.224 50.5455 52.8145 51.0883C53.6831 51.8868 52.837 51.9506 54.6245 51.8236L53.9113 50.864L54.9784 50.4324L54.1434 49.8977C54.0892 49.8548 54.0076 49.7843 53.9452 49.7202C54.9515 49.2823 54.291 49.8065 54.8123 49.0575C53.5657 48.9206 53.7085 48.9139 53.2085 48.5123C53.2578 48.4599 53.3295 48.3002 53.354 48.3524C53.3779 48.4038 53.4641 48.2291 53.4975 48.1949C53.533 48.1586 53.7165 47.963 53.7806 47.9023C54.226 47.4837 54.0488 47.6084 54.5456 47.2983C54.359 47.2391 53.6824 47.2314 53.1874 46.7171C54.0023 46.4107 54.261 45.9925 54.8046 45.2511C53.9554 45.725 53.8845 45.6376 53.4513 45.3095C54.042 44.8668 54.1662 44.8185 54.4975 43.9227L54.3852 43.8107L53.6548 44.1064L53.1238 44.2257L53.5936 43.7148C55.5764 41.2714 51.1838 39.5588 49.3999 39.082C46.6293 38.3416 43.6063 38.7868 40.7882 39.089L41.1943 38.5662C41.2326 38.5241 41.2909 38.4601 41.3328 38.4161C41.6128 38.1212 41.6232 38.1593 41.8921 37.9049L39.4707 38.0643L40.402 36.8564L38.3032 36.8694C38.2972 36.8496 38.2747 36.7616 38.2686 36.7421L36.9622 37.4077C36.7635 37.6416 36.8243 37.6219 36.5094 37.8749C36.4702 37.9063 36.1081 38.0764 36.0501 38.1024C36.2073 36.5119 36.1895 37.5132 36.4356 37.2446C36.8158 36.3395 37.4799 35.0526 38.2495 34.582C38.2091 34.5527 38.1338 34.4689 38.1181 34.5168L37.4726 34.2073C37.7764 33.4746 38.0762 32.8505 38.5017 32.3263C39.2195 31.4417 39.4944 31.7936 39.9022 30.8721C39.0777 30.3961 39.3865 30.4108 38.5994 31.2962C38.2072 31.7377 37.8223 32.1136 37.4443 32.5007C38.3795 28.3113 40.2974 30.257 40.3051 30.2598C40.8035 30.4483 41.4746 30.3981 42.1304 30.4791L40.9308 31.3004C40.8962 31.3227 40.8229 31.3631 40.7732 31.4025C41.5784 31.8311 42.0143 31.6677 42.9477 31.4336C42.5145 32.7611 42.6072 31.7795 41.9838 32.7676L44.5223 33.0884C44.0862 34.2155 44.4635 33.4568 43.4207 34.2468C44.2757 34.2305 44.3723 34.2589 45.1121 33.8515L46.2842 33.1036C46.3343 33.0737 46.4161 33.0232 46.4843 32.9882C45.9427 34.2903 46.048 33.8874 45.4081 34.6884C46.3519 34.4618 47.2542 33.6893 47.8019 33.0917C47.8617 32.9854 48.004 32.631 48.0848 32.5532L48.11 33.0985C47.8021 34.1585 47.3829 34.7476 46.7813 35.5617C47.8614 35.1017 48.8052 33.5658 49.655 32.6626L49.1172 34.6458C50.2622 34.1481 49.4706 33.8366 51.0413 32.9851C50.4691 35.5159 48.857 35.8373 47.0722 36.7424L47.5521 36.8488C48.2315 36.8344 49.3924 36.23 49.9829 35.8785C51.0241 35.2583 51.6439 34.6602 52.6831 34.066L51.4355 35.631C50.8737 36.2459 50.6037 36.3787 50.2697 37.0564C51.874 36.394 53.2305 34.5073 54.814 33.2706C54.2969 34.6932 53.5993 34.7061 52.9972 36.2848C53.8927 35.8339 54.1589 35.6409 54.6923 34.9384C55.3102 34.1244 55.2632 33.9294 56.0638 33.3437C55.5931 34.1052 55.5076 34.393 55.1698 34.9908C56.0481 34.7883 57.0662 32.8386 58.3366 31.4914C58.1367 32.1017 58.2187 31.4705 58.1255 32.168C58.1205 32.2061 58.111 32.2961 58.1086 32.3336L58.1299 32.653C58.1314 32.6784 58.1376 32.76 58.1572 32.8076C58.4661 31.9649 59.1355 30.968 59.8037 30.6645L59.318 32.1869L60.7127 31.242C60.8918 31.5704 60.4881 31.4152 60.9201 31.529C61.7091 30.524 61.9661 30.1101 62.4806 30.3761C62.7819 30.5321 62.9789 30.6478 63.0982 30.7321C63.5452 30.163 63.3623 30.421 63.9334 29.9918C63.9617 30.0369 63.9755 30.0776 63.9825 30.1495C64.1126 31.4829 64.5612 30.1594 66.4499 30.3233L66.7757 30.3591C66.8049 30.362 66.8763 30.3837 66.925 30.3716C67.7266 28.1017 66.0588 27.0911 64.2011 27.2764C62.6757 27.4285 60.8983 28.2016 59.3693 28.6223C57.5471 29.1234 56.0195 29.4394 54.0751 29.5717C51.7893 29.7274 50.3501 29.8869 49.5843 27.8424C50.0139 28.1063 50.177 28.2972 50.7008 28.6025L50.9413 27.7239L53.2583 28.6282C52.9195 27.9381 51.9236 26.9909 51.0623 26.7768C52.1151 26.7271 52.4805 26.8549 53.2482 27.4316C52.8031 26.3237 52.6589 26.8008 52.3994 25.7757L53.1586 26.1174C52.4159 24.7318 51.2063 24.3461 50.9229 22.425C52.1991 23.147 51.9478 23.5967 52.7963 24.4542C52.4682 23.3242 51.8469 22.4636 51.7351 21.5974C52.1787 21.7089 52.353 21.7134 52.4534 22.2207C52.3604 21.3915 51.0505 20.044 50.6158 18.7808C50.6027 18.2791 50.8585 18.5223 51.1564 18.0774C51.3905 17.7275 51.3861 17.5247 51.6403 17.104L51.7915 19.4066L52.558 17.8249C52.6582 17.9877 52.7143 18.0565 52.7439 18.0811C52.7337 18.1197 52.7315 18.2216 52.7622 18.458C52.8949 19.476 52.5074 19.4585 52.866 20.4598C53.4362 19.3118 53.1586 19.5034 54.0444 18.5788C53.7204 19.8611 53.1683 20.4943 53.6408 21.8661L53.9619 20.9085C54.4871 22.3451 54.8341 23.0042 55.8426 23.6139C55.4012 22.096 54.8561 21.7754 54.9493 20.0874C55.0524 20.4618 56.5783 22.7988 56.869 23.4159C56.4481 21.2792 55.1386 19.0384 54.9588 16.6929L57.0725 20.8831C57.0287 19.0485 56.0406 17.8435 55.9999 15.9342L56.8821 17.7118C56.9445 16.4232 56.8864 15.5804 57.2647 14.6536L57.527 16.4582L58.5198 14.4919C58.5321 14.563 58.5457 14.6685 58.5549 14.7255C58.5641 14.7822 58.5646 14.8844 58.5878 14.9578L59.1945 13.4259C59.3143 13.9101 59.0466 13.4909 59.3542 14.1931L60.1057 11.0302L60.3831 14.0802C60.5251 13.3557 60.4119 13.6652 60.7947 13.1723C60.6635 11.8502 60.5179 9.81001 61.0462 8.89107C61.1699 9.10013 61.2527 9.18619 61.3056 9.24685C61.4158 9.23072 61.6222 9.41276 61.7502 9.24541L61.4012 7.56128C62.326 7.0904 61.6846 8.01528 62.1423 7.28367L61.2867 2.86328C60.1609 2.58936 60.2185 3.23599 59.7536 3.07348C59.4135 1.95395 59.9629 1.94353 60.5982 1.30473L59.8419 1.12189C57.0304 0.834947 51.2206 1.48786 48.7713 3.35506C47.7152 4.16006 47.321 5.02255 46.4984 5.75531C46.7808 6.70501 46.8616 5.6977 46.6455 6.63951C46.6414 6.6576 46.622 6.73238 46.6187 6.75127C46.5686 7.02041 47.1801 7.20268 45.8277 7.78445C46.0013 8.45683 46.0027 8.26978 46.0482 8.40095C46.0797 8.49209 46.1075 8.56744 46.1322 8.62948C46.1312 8.64193 46.1303 8.65517 46.1293 8.66871L45.1244 9.4816C45.0753 10.7473 45.7295 9.32243 45.3723 10.157C45.1939 10.5743 44.6568 10.8689 44.5501 11.0461C44.5092 11.1141 44.4746 11.1629 44.4461 11.1962C44.4606 11.2422 44.4751 11.3045 44.4889 11.3875L44.609 11.5841C44.8193 12.1791 44.5903 12.0373 44.0651 12.8905C44.6196 13.2982 44.7152 13.1009 45.441 12.8623C44.9998 14.1517 44.2522 15.3234 43.9792 16.9494C43.8146 16.5713 43.6295 16.8108 44.0238 15.2029C43.7761 15.3008 43.0712 15.3717 42.9991 16.2074C42.9347 16.9513 43.2856 16.0826 42.7677 17.9098L42.628 18.8361C42.5878 19.5818 42.3981 19.4624 41.7081 20.0894C41.2316 20.5222 41.1452 20.7434 40.7038 21.1505L38.8966 20.705C38.7831 20.7203 38.7052 20.7259 38.6529 20.7264C38.6762 20.7521 38.6856 20.8004 38.6488 20.887C38.3601 21.567 38.4896 20.7121 38.8056 21.7955C37.2529 22.4769 35.4106 23.0717 35.7928 24.7002L35.8606 25.2995C32.8782 24.2767 32.5461 28.4211 32.536 28.5373C32.5301 28.6039 32.5331 28.7092 32.5198 28.7933C31.7269 29.2314 31.5287 29.1525 31.2482 30.0677L31.4479 30.2356C32.0566 29.5759 31.9943 29.52 32.9815 29.6228C32.405 30.8904 32.2952 30.1171 31.6514 31.2843L31.8849 31.3072L32.7821 31.5222C32.5553 31.733 32.4571 31.8675 32.1863 32.2247C32.0502 32.4042 31.9544 32.5498 31.8383 32.7029C31.6986 32.8872 31.5851 33.1129 31.5575 33.0548C31.5321 33.0012 31.4547 33.1789 31.4183 33.2399L31.3414 32.199L30.9481 32.4978L30.791 31.1963L30.3142 32.741C30.3128 32.7647 30.3252 32.8429 30.3244 32.8672C30.3172 33.1431 30.3658 33.1061 30.4135 33.0037C30.3905 33.0785 30.3624 33.1721 30.3281 33.2887C30.1717 33.8202 29.8697 33.8651 29.6173 34.0361C30.6352 34.7462 29.9464 33.656 30.6177 34.9316C29.7852 35.3994 29.1845 36.0249 28.73 37.228C28.5892 37.6007 28.587 37.4122 28.5371 37.9421L28.5202 39.1655C28.4433 39.5721 28.3384 39.9145 28.2695 40.458C28.987 40.1408 28.6071 40.3406 29.1272 39.9117C28.6734 40.6837 28.2966 41.7068 28.2198 43.0424C28.8999 42.7318 28.5037 42.5749 29.2961 42.003C28.9079 43.4896 28.685 44.4484 28.929 46.1333C29.2876 45.3523 29.6642 44.1986 29.9391 43.528C29.702 45.3738 29.5028 46.2806 29.8268 48.2062L30.6533 45.5439C30.6737 45.4965 30.7139 45.4088 30.7479 45.3441C30.5527 47.0415 30.4549 47.8998 30.8203 49.5964L31.5808 46.5255L31.8194 49.3831C31.8445 49.3289 31.8949 49.2375 31.9246 49.17L32.1804 48.4974C32.2107 48.4198 32.2392 48.3414 32.2666 48.2711L32.4994 50.3195L33.246 48.6106L33.2734 51.2556L34.005 49.1113L33.9375 52.5854L34.5306 50.9845C34.7119 50.2859 34.7069 50.2298 35.021 49.674L35.113 53.4426L35.5638 52.0761C35.757 50.9239 35.3145 50.6248 36.0987 50.9732ZM39.8265 46.35L39.675 46.8836C39.4082 47.6182 39.4646 47.1964 39.5847 47.5359L37.7773 47.8965L39.2541 46.4403L39.499 46.4016C39.553 46.3912 39.5907 46.3836 39.6174 46.383L39.8265 46.35ZM36.0278 45.909C36.4697 46.7238 36.5863 47.449 36.6401 48.5073C36.6607 48.9099 36.6628 49.8438 36.5854 50.2165C36.309 51.5494 36.2049 50.9154 36.0987 50.9732C35.9951 49.6565 36.1643 47.7246 36.0278 45.909ZM35.3228 47.7317C35.1452 47.6132 35.1582 47.0892 35.3228 47.7317V47.7317ZM32.5442 44.0232L32.4101 46.368C32.2969 46.1717 32.2794 46.3641 32.0432 45.5801C31.8634 44.9827 31.9924 45.2719 31.9421 44.8739C31.4096 44.748 31.7233 44.9683 31.3288 44.5855C30.8322 44.5826 31.2085 44.6631 31.1335 44.2395C31.33 43.1248 31.0834 43.7029 31.5064 43.0041C32.1572 43.1496 31.6812 42.7357 31.9909 43.5308L32.0232 43.7224C32.6972 43.857 32.178 43.5802 32.5442 44.0232ZM38.7885 48.8523L39.8814 48.452C41.3032 48.3784 40.6307 48.6128 40.818 48.7928C40.1241 49.3495 39.4959 49.0405 38.7885 48.8523ZM38.1566 49.3038C38.7093 49.5563 39.3826 49.8785 40.1793 50.0619L39.8548 50.4095C39.8185 50.4521 39.7517 50.5249 39.7176 50.5667C39.4136 50.9385 39.6611 50.4552 39.4414 50.9673L41.394 50.5243C40.7197 51.1233 39.7277 51.8375 38.9148 52.1774L38.8666 50.3142C38.7262 50.6795 38.7897 50.6722 38.6812 51.0102C38.4987 51.5798 38.5968 51.3048 38.3552 51.5914L38.1566 49.3038ZM56.4247 14.7074C56.5282 13.1108 56.4031 12.1729 56.9728 11.366C56.9709 12.9291 57.1224 13.6717 56.4247 14.7074ZM60.0893 5.5716L60.3245 4.53612C60.8479 5.36986 60.9368 9.01009 59.9513 9.7338C60.0305 8.9049 60.1031 7.90099 60.1159 6.99984C60.1224 6.54584 60.0776 5.99115 60.0893 5.5716ZM44.2578 32.2185C44.2278 32.2061 43.6787 31.8181 43.645 31.7817C43.1641 31.2645 43.4422 31.5484 43.1907 31.0177C44.5209 31.4485 45.5073 31.5557 45.9236 31.9634C45.9165 31.9699 45.8219 32.8652 44.2578 32.2185ZM47.7399 17.5481C47.114 16.4745 47.0029 15.9977 46.9923 14.3164C46.2426 15.4058 46.3316 16.5581 46.5192 18.1669C45.6089 17.0554 46.1332 16.5132 45.6227 15.3993C45.4623 15.8501 45.4267 16.0019 45.1574 16.5033L44.4061 17.5851C44.7406 15.2907 46.0221 13.622 46.0337 12.0494C46.0688 7.32175 47.3919 10.0873 48.0676 7.23626L48.5057 8.3025C48.5276 8.25423 48.595 8.45908 48.6104 8.51271L49.3004 6.50835C49.5877 5.90538 49.51 6.10625 49.8207 5.7897L49.5635 6.51906C48.6818 10.5176 48.7176 8.06321 47.2249 9.96463C46.4292 10.9783 46.0022 12.7909 48.3033 13.3698L48.3154 15.9757C47.9471 16.097 48.3326 16.279 47.6008 15.4337L47.7399 17.5481ZM39.4163 23.549C39.233 23.8797 39.7715 23.8298 38.902 24.0391C38.2289 24.2011 38.6512 24.0019 38.3792 23.8295C38.5026 23.2319 39.006 23.3464 39.4163 23.549ZM35.5757 32.2109C35.9135 32.6022 35.226 33.1177 34.9358 33.7729C34.512 34.7293 34.7671 35.0747 34.3066 35.9242C34.2451 35.2741 34.5888 31.0668 35.5757 32.2109ZM35.9404 30.375C35.7132 31.187 33.522 32.9453 33.5229 35.1613C33.3492 32.9619 34.0684 29.8809 35.9404 30.375ZM34.4479 28.9422C35.3238 28.3356 35.3286 29.1307 35.4147 29.2808L34.3032 29.936L34.0399 30.4952C33.5166 29.3364 33.9823 30.0392 34.0294 29.9009C34.1737 29.3914 34.1403 29.1553 34.4479 28.9422ZM38.5765 29.6236C38.0131 30.0742 38.3838 30.1208 37.4095 30.6918C37.8177 29.3282 38.2838 27.5422 39.6357 28.5978C39.2142 29.6606 39.4228 28.9465 38.5765 29.6236ZM38.2026 27.4926C38.2316 27.501 38.1553 27.5442 38.2026 27.4926V27.4926ZM51.4212 30.2807C50.3927 30.919 49.3271 30.301 48.7476 29.0007L51.4212 30.2807ZM49.5833 18.1197C48.5618 16.4841 49.5729 16.4833 49.5732 16.483L50.0231 18.6343C49.8029 18.386 49.804 18.4736 49.5833 18.1197ZM50.5245 14.7391C50.3675 12.9142 50.6397 13.8345 51.0727 13.525L50.5245 14.7391ZM53.4524 7.59659C52.6061 7.44082 52.6567 7.29439 52.2199 8.059C52.4428 5.56711 53.5844 3.45721 55.7424 3.4276C55.3777 4.51809 56.762 7.58248 53.3472 6.50835C52.8387 7.42475 52.9718 6.6277 53.4524 7.59659ZM48.2315 19.4563C48.5654 21.1122 48.3619 19.6783 47.9415 20.1924L47.8916 18.8398C47.9638 18.9614 48.1908 19.2548 48.2315 19.4563ZM55.278 2.82266C53.6074 2.98379 53.1054 3.442 51.6231 4.01812L52.6189 3.03794C53.0696 2.76114 53.3077 2.67087 53.8266 2.49765C54.7768 2.1811 55.8462 1.81967 56.7126 2.51234C56.6657 2.54534 56.6037 2.59328 56.5696 2.60653L55.278 2.82266ZM41.6839 24.8223C41.0929 25.5305 40.9056 25.9868 40.333 26.6484C40.5598 24.9837 41.4453 23.2773 43.0264 22.9444C42.6801 23.7181 42.1936 24.2118 41.6839 24.8223ZM42.7057 24.7423C42.432 25.6186 41.9518 26.0336 41.2432 26.478C41.6181 25.0847 41.507 25.0715 42.7057 24.7423ZM43.2571 19.8357L40.0683 24.7236C40.4978 22.2159 41.3383 20.3814 43.2571 19.8357ZM38.2026 27.4926C38.18 27.4861 38.0953 27.5005 37.8439 27.5947C37.9133 26.9356 38.0547 27.119 38.7865 26.873C38.5428 27.2034 38.6873 27.0832 38.3139 27.3921C38.2531 27.4423 38.2195 27.4737 38.2026 27.4926ZM38.9944 25.4628C38.7018 26.2732 38.6285 26.2359 37.7088 26.9249C37.2708 27.2528 37.7645 26.9559 37.1198 27.2793C37.4576 25.9941 37.763 25.6135 38.9944 25.4628ZM37.8412 25.0802C37.4549 25.7938 38.2974 25.394 36.9136 25.984C37.507 25.3633 36.2686 25.6095 37.8412 25.0802ZM37.9371 23.2468C37.4479 23.5569 37.65 23.6794 36.6548 24.2025C37.257 23.0245 38.0914 21.7856 39.4363 22.2858C39.0348 22.8282 39.2844 22.6405 38.6009 22.9678C37.4932 23.4977 38.5975 22.8276 37.9371 23.2468ZM34.2782 28.5647C33.9159 28.8728 34.2422 28.2857 33.6943 29.0909C33.7313 27.8461 33.8271 27.7894 34.9303 27.6604C34.6672 28.4033 34.8148 28.1085 34.2782 28.5647ZM33.2729 27.7843C33.2405 27.7228 33.1401 27.8749 33.0732 27.9192C33.3066 26.419 33.9663 25.3722 35.1916 25.9222C35.1263 26.6715 35.149 26.1033 33.4605 27.6472C33.4193 27.6847 33.3039 27.8436 33.2729 27.7843ZM35.643 47.5596L35.5433 48.3369C35.4813 48.3067 35.4239 48.1899 35.4167 48.1537C35.3813 47.9763 35.3499 47.8381 35.3228 47.7317C35.3961 47.7805 35.5019 47.7602 35.643 47.5596ZM44.9078 21.9416C45.1058 22.026 44.9974 22.6112 44.9078 21.9416V21.9416ZM44.9078 21.9416C44.8439 21.9146 44.7484 21.9394 44.6099 22.0754L44.6859 21.3554C44.9127 21.651 44.8386 21.2876 44.8911 21.7983C44.8967 21.8514 44.9023 21.8991 44.9078 21.9416ZM57.8211 13.0177L57.1422 13.5024L57.4145 12.9582L57.9184 10.1508C58.3264 10.4321 58.1323 9.57072 58.3044 10.6291C58.3153 10.6965 58.2023 11.3632 58.1761 11.4648C57.9317 12.4161 57.875 11.987 57.8211 13.0177ZM50.2269 25.6575L49.3452 23.5194L50.2179 24.1125L50.2269 25.6575ZM57.5176 8.94747C57.4895 8.89159 57.4022 9.07052 57.3453 9.13285C57.5418 7.20239 57.6788 7.46934 58.4973 7.19225C58.3049 7.72609 58.2678 7.8674 58.0403 8.25734L57.5176 8.94747ZM45.5862 18.0605C45.3304 19.3724 45.0255 19.4125 44.479 20.2409C44.616 18.8338 44.5513 18.6945 45.5862 18.0605ZM48.0485 12.4596L47.2012 12.1583C46.8323 10.6073 47.4086 10.0343 48.8311 9.92315C48.789 9.99931 48.7259 10.0826 48.6925 10.1418C48.66 10.1988 48.5986 10.2851 48.5618 10.3562C48.0666 11.3133 48.3084 10.9211 48.1637 11.9969C48.1559 12.0547 48.1206 12.2596 48.1145 12.2232C48.1087 12.1876 48.0782 12.3682 48.0485 12.4596ZM42.8536 26.0762C42.6322 27.5284 42.395 27.1438 41.6467 28.2253C41.7021 26.5017 41.6544 26.3251 42.8536 26.0762ZM42.8553 50.0078C42.9163 49.4262 43.1704 49.5566 43.8478 49.2806C43.4255 50.2791 44.4519 49.7986 42.8553 50.0078ZM42.576 51.1976C43.523 50.6301 44.2602 49.5716 45.3601 49.4124C44.9734 50.7794 44.0586 51.1521 42.576 51.1976ZM43.3418 52.027C44.3447 51.2836 43.477 51.3651 44.7392 51.0847C44.4049 52.0525 44.3766 52.0837 43.3418 52.027ZM50.2242 48.6015C50.6364 47.9227 50.1523 48.4308 50.8917 47.8928C51.1886 47.6766 51.0935 47.8268 51.3399 47.7362C51.0601 48.647 51.3358 48.2926 50.2242 48.6015ZM32.9254 36.6411C32.7446 37.7158 33.1096 37.2353 32.2177 37.7564C32.1149 36.4659 32.3061 36.8208 32.9254 36.6411ZM31.7647 37.1146C31.603 37.5567 31.549 37.5555 31.4237 37.7613C31.3794 36.1363 31.0928 35.0837 32.3527 34.8721L31.7647 37.1146ZM31.3452 35.207C31.0287 35.7103 31.186 35.4536 30.9864 35.7135C30.9469 34.1111 30.8782 33.5621 32.1422 33.6904L31.3452 35.207ZM30.9822 41.1862L30.5357 42.6559C30.3963 41.3346 30.109 40.6865 31.0169 39.9439C31.5723 40.8575 31.2141 40.2972 30.9822 41.1862ZM30.2141 38.7973L30.6836 39.2453L30.1294 40.7455C29.7978 40.2777 29.7197 40.4524 29.7402 38.6714C29.7562 37.2994 29.5214 37.858 30.2502 37.3761C30.6451 38.0457 30.5536 37.7561 30.101 38.6954C30.1378 38.7307 30.1954 38.7803 30.2141 38.7973ZM48.1184 50.3658C48.9277 49.8799 49.5093 49.4214 50.4599 48.9833L50.6809 49.6773C50.8004 50.2899 50.4636 48.8479 50.7671 50.3528C49.239 49.3935 50.8399 50.2876 48.1184 50.3658Z" fill="#B58055"/><path fill-rule="evenodd" clip-rule="evenodd" d="M56.4368 59.9486C59.6384 53.5817 43.3903 56.4164 40.3363 56.9655C40.127 57.003 39.2959 57.1878 39.2018 57.2747C39.0534 57.4121 38.9588 57.431 38.9176 57.4288C38.9835 57.4632 39.1865 57.633 39.5261 58.3361L36.7632 58.2803C36.7715 58.315 36.777 58.3678 36.7787 58.4436L36.7461 58.9461C35.6333 58.8874 35.2995 58.5351 34.717 58.8657C32.7114 60.005 32.7049 57.7259 30.8179 57.8582C31.3331 61.3359 39.4133 58.9083 41.145 59.1332C42.1723 59.2667 42.1328 59.1301 43.0552 58.7969L41.6609 58.4524C43.2369 58.0989 43.9001 58.0684 45.4587 57.7575C47.289 57.3924 46.092 58.0058 47.517 57.9146C48.1494 57.874 48.6893 57.4835 49.584 57.3709C49.222 58.1319 48.7573 58.4408 48.3742 58.7684C49.2346 58.8127 49.8587 58.168 50.366 57.49C50.3856 57.4635 50.4301 57.4008 50.4475 57.374L50.6439 56.9734C50.6545 56.9502 50.6777 56.8713 50.7007 56.8236L51.7188 57.6472C51.7184 57.6516 50.9028 57.6181 52.7748 58.679C52.8426 58.7173 53.0463 58.8206 53.1109 58.8581L53.4365 59.0621C53.4728 59.0847 53.5497 59.1259 53.5988 59.1707C53.3125 59.7164 53.1136 59.8973 52.7992 60.292C54.2296 59.9215 54.1495 59.0551 55.313 58.655C55.9307 59.3538 55.5928 59.5934 56.4368 59.9486Z" fill="#855935"/><path fill-rule="evenodd" clip-rule="evenodd" d="M15.5357 61.3973C14.4144 61.516 15.057 61.2813 14.8484 61.1126C15.0851 60.8547 15.7773 60.765 16.201 61.0496C15.8755 61.2703 15.9217 61.3564 15.5357 61.3973ZM17.3593 62.4448C18.369 61.7285 18.2259 61.478 18.9733 60.2895C19.6461 59.2194 19.4 59.5856 19.3281 59.324C19.3279 59.3235 17.7826 58.9528 19.6638 58.4779C19.8189 58.8074 19.8833 58.4048 19.914 59.4626C19.9436 60.482 19.9472 59.8598 19.7446 60.3607C19.2487 61.5877 17.8218 61.9454 17.0289 64.6027C18.4704 64.0014 19.1998 61.6963 20.9839 59.5351C22.1295 58.1475 20.8874 59.293 20.9346 57.8561C22.2795 57.0076 21.8635 57.6653 22.863 57.8597C23.6907 57.1389 23.0863 57.7099 23.5007 56.892C24.151 55.6082 23.7004 56.9981 24.8954 56.3054C25.3998 56.0131 25.2505 56.0924 25.5849 55.5244C25.0464 55.247 23.8398 55.6725 22.9755 55.6655L23.2761 55.3057C24.3482 54.248 23.7681 55.3605 24.1282 54.5637C21.7292 54.1303 18.4738 55.3695 16.308 56.1313C15.1577 56.5356 13.9783 56.9949 12.8825 57.4478L11.3164 58.4262C10.655 59.1875 11.118 59.0839 9.97804 59.5952L10.091 58.7854C9.48963 59.2653 9.34272 59.1621 8.68202 59.8435L9.68447 60.1981C9.72974 60.2179 9.81809 60.2481 9.87565 60.2926C8.66295 62.9211 9.09107 59.7701 8.40832 61.4523C8.27594 61.7784 8.23019 62.2383 8.17697 62.672L7.98865 62.1878C7.97051 62.1266 7.93203 62.023 7.91172 61.9483L7.70334 60.8558C5.91022 65.6796 13.6439 67.4343 15.0768 64.0387L14.0434 63.4962C14.7595 63.269 16.0955 63.061 16.6408 61.8851C17.1079 62.0343 17.3058 62.3687 17.3753 62.5473C17.3702 62.5191 17.3649 62.4849 17.3593 62.4448ZM15.7342 60.4394C15.1511 60.6143 15.4166 60.3285 15.3273 60.1626L16.3031 59.9696C15.9072 60.4433 16.7741 60.127 15.7342 60.4394ZM17.7049 59.1615C16.6044 59.2894 17.5509 59.1757 17.1383 58.8901C18.1691 58.2412 18.0526 58.7931 18.1524 58.8732C17.7763 59.2549 18.6095 59.0566 17.7049 59.1615ZM21.407 56.9368C21.1273 56.8778 20.754 56.5131 20.6243 56.3328L22.4153 56.5362C22.0212 56.9608 23.1311 57.3 21.407 56.9368ZM14.0071 58.1695C13.452 58.6257 13.5889 58.4494 13.1059 58.6579C13.4456 57.5733 13.4996 57.3981 14.55 57.3005C14.4273 57.7787 14.6063 57.6775 14.0071 58.1695ZM17.231 57.1448C16.7443 56.6795 17.2257 57.3067 16.7581 56.6462C17.3276 55.9911 17.2037 56.1022 17.8075 56.23L17.8905 56.7721C17.9537 57.5759 18.3334 56.5923 17.7673 57.68L17.231 57.1448ZM18.2894 59.9507C18.5011 60.3796 17.9547 60.0289 17.9525 60.0122C17.8075 58.955 18.2218 59.8142 18.2894 59.9507ZM12.835 58.3046C11.8123 59.3325 11.9643 58.336 11.8513 58.2322C12.3058 57.9192 12.5633 58.0987 12.835 58.3046ZM20.6473 56.1186C19.9941 56.0582 20.461 56.0715 20.1248 55.7171C20.2061 55.6108 20.6662 55.3162 20.9034 55.3325C21.7192 55.3896 21.157 55.35 21.3993 55.8049C21.1977 55.9586 21.7144 56.2174 20.6473 56.1186ZM9.7658 63.9303C10.9817 64.2221 10.6228 64.2779 10.9822 64.6902L9.7658 63.9303ZM9.77549 62.2589C11.6366 62.6717 10.3965 62.3235 10.972 63.0943C10.0006 62.6759 10.3532 62.9778 9.77549 62.2589ZM10.8957 61.6952C10.5799 61.8871 11.2719 62.0389 10.1172 61.9192C10.0945 61.9167 9.66584 61.645 9.62903 61.6196C9.71328 61.1396 10.328 60.9269 10.8957 61.6952ZM10.9352 60.394L10.1414 60.8115C10.2276 59.85 10.2467 59.7927 10.9352 60.394Z" fill="#855935"/><path fill-rule="evenodd" clip-rule="evenodd" d="M44.4459 11.196C44.3368 10.8504 44.2315 11.4457 44.4459 11.196V11.196ZM63.0981 30.732C63.8965 31.2969 61.215 30.4527 63.0587 30.7825C63.0725 30.765 63.0855 30.7481 63.0981 30.732ZM41.708 20.0892C42.398 19.4623 42.5877 19.5816 42.6279 18.8359L42.7675 17.9097C43.2855 16.0825 42.9346 16.9512 42.9989 16.2072C43.071 15.3715 43.776 15.3007 44.0236 15.2028C43.6294 16.8107 43.8145 16.5712 43.9791 16.9493C44.2521 15.3232 44.9997 14.1515 45.4409 12.8621C44.7151 13.1008 44.6195 13.298 44.065 12.8903C44.5901 12.0371 44.8191 12.179 44.6088 11.584L44.4888 11.3873C44.475 11.3044 44.4604 11.242 44.4459 11.196C44.4745 11.1627 44.5091 11.1139 44.55 11.0459C44.6567 10.8687 45.1938 10.5742 45.3721 10.1569C45.7293 9.3223 45.0752 10.7471 45.1243 9.48146L46.1291 8.66857C46.1301 8.65504 46.1311 8.64179 46.132 8.62935C46.1074 8.5673 46.0795 8.49195 46.0481 8.40082C46.0026 8.26964 46.0012 8.4567 45.8276 7.78431C47.18 7.20254 46.5684 7.02027 46.6185 6.75114C46.6219 6.73224 46.6413 6.65746 46.6454 6.63938C46.8615 5.69756 46.7807 6.70487 46.4983 5.75517C47.3208 5.02241 47.7151 4.15992 48.7712 3.35493C51.2205 1.48772 57.0303 0.83481 59.8418 1.12175C59.4979 0.742294 59.4347 0.578628 58.4054 0.499073C56.8546 0.379424 55.2132 1.54752 54.3134 0.255859C51.6919 1.29894 50.2105 0.604324 47.8133 2.7833C45.0517 5.29357 41.7571 10.9636 39.9381 14.6616C39.3166 15.9256 38.8101 16.859 38.0243 17.7469L35.8212 20.502C32.628 24.0297 30.2205 26.4674 27.8719 32.3036C24.6681 40.2637 26.6135 45.2348 26.7301 50.8896C21.9779 54.3924 13.4299 54.2085 8.67934 58.1398C7.70377 58.9474 4.99922 61.4765 6.38937 63.9582C9.75725 69.9711 19.4909 65.7578 24.2925 61.7662C25.7022 60.5945 27.1249 58.6773 29.5283 58.4406C30.4593 59.0557 29.9797 59.6211 31.4646 60.3005C34.3006 61.5973 45.9549 59.3164 49.4221 59.8948C50.6229 60.0954 50.9848 60.8637 52.1965 61.1213C53.8991 61.4833 53.9954 60.7438 55.0312 60.173C55.8681 60.8583 55.0571 60.6749 55.9935 61.1611C57.1687 60.4676 58.8524 58.1286 57.5753 56.2145C56.7028 54.9068 54.1924 54.8246 52.4579 54.6337C53.1931 52.5776 54.1968 53.2337 56.1811 52.3336C56.1336 51.3213 56.2542 52.28 55.6789 51.08L57.3185 50.5347C56.9979 49.7136 57.8975 50.1244 56.4057 49.7387C56.4373 49.6623 56.4916 49.4701 56.5105 49.5153L56.9981 48.4671L55.9884 48.0061C56.6694 43.3509 57.0383 44.4671 55.3655 40.4438C58.2936 36.2383 55.0567 36.461 59.2966 33.8605C60.7114 32.9923 63.1494 32.0496 64.7966 31.8482C66.3271 31.6609 65.2487 31.879 66.3392 32.5284C68.9174 29.6254 68.2378 27.2069 66.0486 26.6804C63.5761 26.0857 60.5463 27.3308 58.2583 27.9261C58.2634 26.0038 58.7082 19.1954 59.1278 17.3519C59.4998 15.718 59.5332 15.7829 60.4447 14.7578L60.383 14.0801L60.1056 11.0301L59.3541 14.193C59.0465 13.4907 59.3142 13.91 59.1944 13.4258L58.5877 14.9576C58.5644 14.8842 58.5639 14.7821 58.5548 14.7254C58.5456 14.6684 58.532 14.5629 58.5197 14.4917L57.5269 16.458L57.2646 14.6535C56.8863 15.5803 56.9444 16.4231 56.882 17.7116L55.9998 15.9341C56.0405 17.8434 57.0286 19.0484 57.0724 20.8829L54.9586 16.6928C55.1385 19.0382 56.448 21.279 56.8689 23.4157C56.5782 22.7987 55.0523 20.4616 54.9492 20.0873C54.856 21.7753 55.401 22.0958 55.8425 23.6138C54.834 23.0041 54.4869 22.345 53.9618 20.9083L53.6406 21.8659C53.1682 20.4941 53.7202 19.861 54.0443 18.5787C53.1585 19.5032 53.4361 19.3116 52.8659 20.4597C52.5072 19.4584 52.8947 19.4759 52.7621 18.4579C52.7314 18.2214 52.7336 18.1196 52.7437 18.0809C52.7142 18.0564 52.658 17.9876 52.5578 17.8248L51.7914 19.4065L51.6401 17.1039C51.386 17.5245 51.3903 17.7274 51.1563 18.0772C50.8584 18.5222 50.6026 18.279 50.6156 18.7806C51.0503 20.0438 52.3603 21.3914 52.4533 22.2206C52.3529 21.7133 52.1786 21.7088 51.735 21.5973C51.8468 22.4635 52.468 23.324 52.7962 24.454C51.9477 23.5966 52.1989 23.1468 50.9228 22.4248C51.2062 24.346 52.4158 24.7316 53.1585 26.1172L52.3993 25.7756C52.6587 26.8006 52.803 26.3235 53.2481 27.4315C52.4804 26.8548 52.1149 26.727 51.0622 26.7766C51.9235 26.9908 52.9194 27.938 53.2582 28.6281L50.9412 27.7238L50.7006 28.6024C50.1769 28.2971 50.0138 28.1061 49.5842 27.8423C50.3499 29.8867 51.7892 29.7273 54.075 29.5716C56.0194 29.4393 57.547 29.1232 59.3691 28.6222C60.8982 28.2015 62.6755 27.4284 64.201 27.2763C66.0587 27.0909 67.7264 28.1016 66.9249 30.3714C66.8762 30.3836 66.8048 30.3618 66.7756 30.359L66.4498 30.3232C64.5611 30.1593 64.1124 31.4828 63.9824 30.1494C63.9754 30.0774 63.9616 30.0368 63.9333 29.9917C63.3621 30.4208 63.5451 30.1629 63.0981 30.732C62.9788 30.6477 62.7818 30.532 62.4805 30.3759C61.966 30.1099 61.709 30.5238 60.92 31.5288C60.488 31.4151 60.8917 31.5703 60.7126 31.2419L59.3178 32.1868L59.8036 30.6643C59.1354 30.9679 58.466 31.9647 58.1571 32.8075C58.1375 32.7598 58.1312 32.6782 58.1298 32.6528L58.1085 32.3335C58.1109 32.296 58.1204 32.2059 58.1254 32.1679C58.2186 31.4704 58.1366 32.1015 58.3364 31.4913C57.0661 32.8385 56.048 34.7882 55.1697 34.9907C55.5075 34.3929 55.593 34.105 56.0637 33.3435C55.2631 33.9293 55.3101 34.1242 54.6922 34.9382C54.1588 35.6408 53.8925 35.8338 52.9971 36.2847C53.5992 34.706 54.2967 34.693 54.8139 33.2705C53.2304 34.5071 51.8739 36.3938 50.2696 37.0563C50.6036 36.3786 50.8736 36.2457 51.4354 35.6309L52.6829 34.0658C51.6437 34.66 51.0239 35.2582 49.9828 35.8784C49.3923 36.2299 48.2313 36.8342 47.5519 36.8486L47.072 36.7423C48.8569 35.8372 50.469 35.5158 51.0411 32.9849C49.4704 33.8365 50.2621 34.148 49.1171 34.6456L49.6548 32.6625C48.8051 33.5656 47.8613 35.1016 46.7812 35.5615C47.3828 34.7475 47.802 34.1584 48.1098 33.0984L47.8017 33.0916C47.254 33.6892 46.3518 34.4617 45.408 34.6883C46.0479 33.8872 45.9426 34.2901 46.4842 32.9881C46.4159 33.023 46.3342 33.0735 46.284 33.1034L45.112 33.8514C44.3721 34.2588 44.2755 34.2303 43.4205 34.2467C44.4634 33.4567 44.086 34.2154 44.5222 33.0882L41.9836 32.7674C42.6071 31.7794 42.5144 32.7609 42.9476 31.4334C42.0142 31.6676 41.5783 31.831 40.7731 31.4024C40.8227 31.3629 40.8961 31.3225 40.9306 31.3002L42.1303 30.4789C41.4744 30.3979 40.8033 30.4482 40.305 30.2597C40.2973 30.2569 38.3793 28.3112 37.4442 32.5005C37.8222 32.1134 38.207 31.7376 38.5993 31.296C39.3863 30.4107 39.0775 30.396 39.9021 30.872C39.4943 31.7935 39.2194 31.4416 38.5015 32.3262C38.0761 32.8504 37.7762 33.4745 37.4725 34.2072L38.1179 34.5167C38.1337 34.4687 38.2089 34.5525 38.2494 34.5819C37.4797 35.0525 36.8156 36.3394 36.4354 37.2445L36.962 37.4076L38.2685 36.742C38.2745 36.7615 38.2971 36.8495 38.3031 36.8693L40.4019 36.8562L39.4706 38.0641L41.8919 37.9047C41.6231 38.1592 41.6126 38.1211 41.3326 38.4159C41.2908 38.4599 41.2325 38.524 41.1942 38.5661L40.7881 39.0889C43.6061 38.7867 46.6292 38.3415 49.3998 39.0818C51.1836 39.5586 55.5763 41.2713 53.5934 43.7147L53.6547 44.1063L54.3851 43.8106L54.8178 43.4652L54.4974 43.9226C54.166 44.8184 54.0419 44.8666 53.4511 45.3093C53.8843 45.6375 53.9552 45.7249 54.8045 45.2509C54.2609 45.9924 54.0022 46.4105 53.1873 46.7169C53.6822 47.2313 54.3589 47.2389 54.5455 47.2981C54.0486 47.6082 54.2258 47.4835 53.7805 47.9022C53.7164 47.9629 53.5329 48.1584 53.4973 48.1948C53.4639 48.229 53.3778 48.4036 53.3538 48.3522C53.3294 48.3 53.2577 48.4597 53.2084 48.5122C53.7084 48.9137 53.5656 48.9205 54.8122 49.0573C54.2909 49.8064 54.9514 49.2822 53.9451 49.7201C54.0075 49.7842 54.0891 49.8547 54.1433 49.8975L54.9783 50.4322L53.9112 50.8639L54.6244 51.8235C52.8369 51.9505 53.683 51.8867 52.8144 51.0882C52.2238 50.5454 51.7636 50.6865 50.8434 50.3659L51.143 50.7217C52.4538 52.0108 51.7163 50.547 52.447 52.098L50.3163 51.1117C50.5815 51.9691 50.6137 51.6147 50.8485 52.4197L49.455 51.7874L50.3131 52.829C49.2178 52.8296 48.7453 52.1353 47.7465 51.7081C48.1756 52.8367 47.7596 52.1121 48.475 52.9267L47.0353 52.0179C47.3753 53.1174 47.1819 52.5743 47.7996 53.4582C47.2555 53.2359 45.9779 52.2758 45.7291 52.0137C45.8591 52.324 45.9293 52.4781 46.0793 52.7526L46.5239 53.5172C46.5452 53.4692 46.6083 53.6535 46.6093 53.8199L43.9638 53.2985C43.4735 54.0688 43.9992 53.6041 43.9493 54.1179L42.0091 52.8815C42.3484 53.8371 42.2678 53.4859 42.8014 54.3303C42.1231 54.0756 40.7457 52.8759 40.4413 52.5232C40.9418 53.8603 40.723 53.6075 41.6194 54.6136C40.9568 54.2733 40.0817 53.478 39.6441 52.8392L40.2973 54.7174C40.1497 54.6322 39.6901 54.3346 39.6869 54.3337C38.8009 54.0773 38.8694 55.2786 38.3938 53.5008C37.951 54.4757 38.3878 54.1142 37.8394 54.2894C36.9955 54.5592 36.6656 52.6885 36.6104 51.7225L35.8846 53.7034L35.8079 51.9135L35.5637 52.076L35.1128 53.4424L35.0208 49.6739C34.7067 50.2296 34.7118 50.2858 34.5305 50.9844L33.9373 52.5853L34.0049 49.1112L33.2733 51.2555L33.2459 48.6104L32.4993 50.3194L32.2665 48.271C32.2391 48.3412 32.2105 48.4197 32.1803 48.4973L31.9245 49.1699C31.8947 49.2374 31.8444 49.3288 31.8192 49.3829L31.5806 46.5253L30.8202 49.5962C30.4547 47.8997 30.5525 47.0414 30.7478 45.344C30.7137 45.4086 30.6735 45.4964 30.6532 45.5438L29.8267 48.2061C29.5026 46.2805 29.7018 45.3737 29.939 43.5278C29.6641 44.1985 29.2875 45.3522 28.9288 46.1332C28.6849 44.4482 28.9077 43.4895 29.2959 42.0029C28.5036 42.5748 28.8998 42.7317 28.2197 43.0423C28.2964 41.7066 28.6733 40.6836 29.127 39.9116C28.607 40.3405 28.9869 40.1407 28.2693 40.4579C28.3383 39.9144 28.4431 39.5719 28.52 39.1653L28.537 37.9419C28.5869 37.4121 28.589 37.6006 28.7299 37.2279C29.1844 36.0248 29.7851 35.3992 30.6176 34.9315C29.9463 33.6559 30.635 34.7461 29.6171 34.0359C29.8695 33.8649 30.1716 33.8201 30.3279 33.2885C30.3623 33.172 30.3903 33.0783 30.4134 33.0036C30.3657 33.106 30.317 33.143 30.3243 32.867C30.325 32.8428 30.3127 32.7646 30.3141 32.7409L30.7909 31.1961C30.9414 30.2936 30.7875 30.6206 31.2481 30.0676C31.5285 29.1523 31.7268 29.2313 32.5196 28.7931C32.5329 28.709 32.53 28.6038 32.5358 28.5372C32.546 28.421 32.878 24.2765 35.8604 25.2993L35.7926 24.7001C35.4105 23.0715 37.2527 22.4767 38.8055 21.7954C38.4894 20.712 38.36 21.5668 38.6487 20.8868C38.6855 20.8003 38.6761 20.752 38.6528 20.7263C38.7048 20.7258 38.783 20.7201 38.8965 20.7049L40.7036 21.1504C41.1451 20.7432 41.2315 20.522 41.708 20.0892ZM36.7631 58.2801L36.7433 58.2798C36.5342 58.6443 36.7072 58.0423 36.7631 58.2801ZM38.9175 57.4286C38.8859 57.4266 38.8859 57.4119 38.9175 57.4286V57.4286ZM40.3362 56.9653C43.3902 56.4162 59.6382 53.5815 56.4366 59.9484C55.5927 59.5932 55.9306 59.3536 55.3129 58.6548C54.1493 59.0549 54.2294 59.9213 52.7991 60.2918C53.1135 59.8971 53.3124 59.7162 53.5987 59.1705C53.5496 59.1257 53.4727 59.0845 53.4364 59.0619L53.1108 58.8579C53.0462 58.8204 52.8425 58.7171 52.7747 58.6788C50.9027 57.6179 51.7183 57.6515 51.7187 57.647L50.7006 56.8234C50.6776 56.8711 50.6544 56.95 50.6438 56.9732L50.4474 57.3738C50.43 57.4006 50.3855 57.4633 50.3659 57.4898C49.8586 58.1678 49.2345 58.8125 48.3741 58.7682C48.7572 58.4406 49.2219 58.1317 49.5839 57.3707C48.6892 57.4833 48.1493 57.8738 47.5169 57.9144C46.0919 58.0056 47.2889 57.3922 45.4585 57.7573C43.9 58.0682 43.2368 58.0987 41.6608 58.4522L43.0551 58.7967C42.1327 59.1299 42.1722 59.2665 41.1448 59.133C39.4132 58.9081 31.333 61.3357 30.8178 57.858C32.7048 57.7257 32.7113 60.0048 34.7169 58.8655C35.2994 58.5349 35.6332 58.8872 36.746 58.9459L36.7786 58.4434C36.7769 58.3673 36.7714 58.3148 36.7631 58.2801L39.526 58.3359C39.1864 57.6329 38.9834 57.463 38.9175 57.4286C38.927 57.4291 38.9391 57.4286 38.9541 57.4258C38.9878 57.4192 39.0354 57.4015 39.0974 57.3592C39.1286 57.3377 39.1632 57.3101 39.2017 57.2745C39.2958 57.1876 40.1269 57.0028 40.3362 56.9653ZM17.3752 62.5472C17.427 62.6801 17.4079 62.7272 17.3752 62.5472V62.5472ZM16.3079 56.1313C18.4737 55.3695 21.7291 54.1303 24.1282 54.5637C23.768 55.3604 24.3482 54.2479 23.276 55.3057L22.9755 55.6655C23.8397 55.6725 25.0464 55.247 25.5849 55.5244C25.2504 56.0923 25.3997 56.0131 24.8954 56.3054C23.7003 56.998 24.1509 55.6082 23.5006 56.8919C23.0863 57.7099 23.6906 57.1388 22.8629 57.8597C21.8634 57.6653 22.2794 57.0076 20.9345 57.856C20.8873 59.293 22.1294 58.1475 20.9839 59.5351C19.1998 61.6963 18.4703 64.0014 17.0289 64.6027C17.8217 61.9454 19.2486 61.5877 19.7446 60.3606C19.9471 59.8598 19.9435 60.482 19.9139 59.4626C19.8832 58.4048 19.8188 58.8074 19.6637 58.4779C17.7825 58.9527 19.3278 59.3234 19.328 59.324C19.3999 59.5855 19.646 59.2193 18.9733 60.2895C18.2259 61.4779 18.3689 61.7285 17.3592 62.4448C17.3646 62.4829 17.3696 62.5151 17.3745 62.5424C17.3747 62.5441 17.375 62.5458 17.3752 62.5472C17.3058 62.3686 17.1078 62.0343 16.6407 61.885C16.0954 63.061 14.7595 63.269 14.0434 63.4961L15.0768 64.0387C13.6438 67.4343 5.91016 65.6796 7.70328 60.8558L7.91165 61.9482C7.93196 62.023 7.97045 62.1266 7.98858 62.1878L8.1769 62.6719C8.23012 62.2383 8.27588 61.7784 8.40826 61.4522C9.09101 59.7701 8.66288 62.9211 9.87559 60.2926C9.81802 60.248 9.72967 60.2178 9.68441 60.1981L8.68196 59.8435C9.34266 59.1621 9.48957 59.2653 10.091 58.7854L9.97798 59.5952C11.1179 59.0839 10.6549 59.1875 11.3163 58.4262L12.8824 57.4478C13.9782 56.9949 15.1576 56.5356 16.3079 56.1313ZM38.6528 20.7263C38.4747 20.7277 38.5998 20.6682 38.6528 20.7263V20.7263ZM25.9194 58.1224C25.696 57.4006 26.0006 56.0359 26.4004 55.376C26.869 56.0229 26.8407 55.936 26.6137 56.8553C26.474 57.4213 26.0578 57.9175 25.9194 58.1224ZM24.2352 59.6194C23.8583 58.727 24.3266 57.885 24.8929 57.3642C25.187 58.5154 24.9106 59.1567 24.2352 59.6194ZM19.9561 62.5142C20.2261 61.7657 21.4478 59.5506 22.0147 59.2348C21.876 60.6893 20.7247 61.9705 19.9561 62.5142ZM15.4025 65.2062C15.7365 64.0886 15.7389 63.7461 16.8437 63.4137C16.4021 64.3803 16.161 64.7804 15.4025 65.2062ZM49.7081 58.955C50.1493 57.961 50.6302 57.9393 51.3727 58.8371L49.7081 58.955ZM46.4695 58.4434L47.9065 58.5936C47.6589 58.6872 47.3095 58.8429 47.0617 58.8198C46.4106 58.7592 46.8083 58.7417 46.4695 58.4434ZM43.5444 58.9959C43.8593 58.3856 45.4494 58.5498 45.8959 58.5837C45.3179 58.9629 44.3024 59.0845 43.5444 58.9959ZM51.2706 59.5788L52.1898 58.9761L52.7268 59.4513C52.1704 59.9713 51.9472 59.9701 51.2706 59.5788ZM22.4336 60.9856C22.3745 59.5556 22.8636 59.0255 23.658 58.3515C23.3208 60.3143 22.8632 59.9817 22.4336 60.9856Z" fill="#000"/><path fill-rule="evenodd" clip-rule="evenodd" d="M46.0336 12.0493C46.022 13.622 44.7405 15.2906 44.406 17.585L45.1572 16.5033C45.4266 16.0019 45.4622 15.8501 45.6226 15.3993C46.133 16.5131 45.6088 17.0554 46.5191 18.1668C46.3315 16.558 46.2424 15.4057 46.9922 14.3164C47.0028 15.9977 47.1139 16.4745 47.7398 17.548L47.6006 15.4337C48.3325 16.279 47.947 16.097 48.3153 15.9757L48.3032 13.3698C46.0021 12.7908 46.429 10.9783 47.2248 9.96459C48.7175 8.06316 48.6817 10.5176 49.5634 6.51901L49.3003 6.5083L48.6103 8.51267C48.5948 8.45903 48.5275 8.25418 48.5055 8.30246L48.0675 7.23622C47.3917 10.0873 46.0687 7.3217 46.0336 12.0493Z" fill="#000"/><path fill-rule="evenodd" clip-rule="evenodd" d="M55.1912 3.94287C55.1943 4.25026 55.0584 4.72943 54.8359 4.92029C54.6394 5.08902 54.2239 4.96447 54.0784 4.66647C54.215 4.55322 55.0685 3.96096 55.1912 3.94287Z" fill="#FCFCFC"/><defs><filter id="filter0_f" x="1" y="48" width="68" height="28" filterUnits="userSpaceOnUse" color-interpolation-filters="sRGB"><feFlood flood-opacity="0" result="BackgroundImageFix"/><feBlend in="SourceGraphic" in2="BackgroundImageFix" result="shape"/><feGaussianBlur stdDeviation="2.5" result="effect1_foregroundBlur"/></filter></defs></svg>