<svg width="28" height="28" viewBox="0 0 28 28" fill="none" xmlns="http://www.w3.org/2000/svg"><path d="M14 1C6.83197 1 1 6.83167 1 14C1 21.1683 6.83197 27 14 27C21.1683 27 27 21.1683 27 14C27 6.83167 21.168 1 14 1ZM14 25.1022C7.87832 25.1022 2.8978 20.1217 2.8978 14C2.8978 7.87832 7.87832 2.8978 14 2.8978C20.1217 2.8978 25.1022 7.87827 25.1022 13.9997C25.1022 20.1217 20.1217 25.1022 14 25.1022Z" fill="#3C6" stroke="#fff" stroke-width=".8"/><path d="M18.4283 13.9998H14.3164V8.30632C14.3164 7.78221 13.8916 7.35742 13.3675 7.35742C12.8434 7.35742 12.4186 7.78221 12.4186 8.30632V14.9487C12.4186 15.4728 12.8434 15.8976 13.3675 15.8976H18.4283C18.9524 15.8976 19.3772 15.4728 19.3772 14.9487C19.3772 14.4245 18.9524 13.9998 18.4283 13.9998Z" fill="#3C6" stroke="#fff" stroke-width=".8"/></svg>